  0
SECTION
  2
HEADER
  9
$ACADVER
  1
AC1024
  9
$ACADMAINTVER
 70
     6
  9
$DWGCODEPAGE
  3
ANSI_1252
  9
$INSBASE
 10
0.0
 20
0.0
 30
0.0
  9
$EXTMIN
 10
1.000000000000000E+20
 20
1.000000000000000E+20
 30
1.000000000000000E+20
  9
$EXTMAX
 10
-1.000000000000000E+20
 20
-1.000000000000000E+20
 30
-1.000000000000000E+20
  9
$LIMMIN
 10
0.0
 20
0.0
  9
$LIMMAX
 10
12.0
 20
9.0
  9
$ORTHOMODE
 70
     0
  9
$REGENMODE
 70
     1
  9
$FILLMODE
 70
     1
  9
$QTEXTMODE
 70
     0
  9
$MIRRTEXT
 70
     1
  9
$LTSCALE
 40
1.0
  9
$ATTMODE
 70
     1
  9
$TEXTSIZE
 40
0.2
  9
$TRACEWID
 40
0.05
  9
$TEXTSTYLE
  7
Standard
  9
$CLAYER
  8
0
  9
$CELTYPE
  6
ByLayer
  9
$CECOLOR
 62
   256
  9
$CELTSCALE
 40
1.0
  9
$DISPSILH
 70
     0
  9
$DIMSCALE
 40
1.0
  9
$DIMASZ
 40
0.18
  9
$DIMEXO
 40
0.0625
  9
$DIMDLI
 40
0.38
  9
$DIMRND
 40
0.0
  9
$DIMDLE
 40
0.0
  9
$DIMEXE
 40
0.18
  9
$DIMTP
 40
0.0
  9
$DIMTM
 40
0.0
  9
$DIMTXT
 40
0.18
  9
$DIMCEN
 40
0.09
  9
$DIMTSZ
 40
0.0
  9
$DIMTOL
 70
     0
  9
$DIMLIM
 70
     0
  9
$DIMTIH
 70
     1
  9
$DIMTOH
 70
     1
  9
$DIMSE1
 70
     0
  9
$DIMSE2
 70
     0
  9
$DIMTAD
 70
     0
  9
$DIMZIN
 70
     0
  9
$DIMBLK
  1

  9
$DIMASO
 70
     1
  9
$DIMSHO
 70
     1
  9
$DIMPOST
  1

  9
$DIMAPOST
  1

  9
$DIMALT
 70
     0
  9
$DIMALTD
 70
     2
  9
$DIMALTF
 40
25.4
  9
$DIMLFAC
 40
1.0
  9
$DIMTOFL
 70
     0
  9
$DIMTVP
 40
0.0
  9
$DIMTIX
 70
     0
  9
$DIMSOXD
 70
     0
  9
$DIMSAH
 70
     0
  9
$DIMBLK1
  1

  9
$DIMBLK2
  1

  9
$DIMSTYLE
  2
Standard
  9
$DIMCLRD
 70
     0
  9
$DIMCLRE
 70
     0
  9
$DIMCLRT
 70
     0
  9
$DIMTFAC
 40
1.0
  9
$DIMGAP
 40
0.09
  9
$DIMJUST
 70
     0
  9
$DIMSD1
 70
     0
  9
$DIMSD2
 70
     0
  9
$DIMTOLJ
 70
     1
  9
$DIMTZIN
 70
     0
  9
$DIMALTZ
 70
     0
  9
$DIMALTTZ
 70
     0
  9
$DIMUPT
 70
     0
  9
$DIMDEC
 70
     4
  9
$DIMTDEC
 70
     4
  9
$DIMALTU
 70
     2
  9
$DIMALTTD
 70
     2
  9
$DIMTXSTY
  7
Standard
  9
$DIMAUNIT
 70
     0
  9
$DIMADEC
 70
     0
  9
$DIMALTRND
 40
0.0
  9
$DIMAZIN
 70
     0
  9
$DIMDSEP
 70
    46
  9
$DIMATFIT
 70
     3
  9
$DIMFRAC
 70
     0
  9
$DIMLDRBLK
  1

  9
$DIMLUNIT
 70
     2
  9
$DIMLWD
 70
    -2
  9
$DIMLWE
 70
    -2
  9
$DIMTMOVE
 70
     0
  9
$DIMFXL
 40
1.0
  9
$DIMFXLON
 70
     0
  9
$DIMJOGANG
 40
0.7853981633974483
  9
$DIMTFILL
 70
     0
  9
$DIMTFILLCLR
 70
     0
  9
$DIMARCSYM
 70
     0
  9
$DIMLTYPE
  6

  9
$DIMLTEX1
  6

  9
$DIMLTEX2
  6

  9
$DIMTXTDIRECTION
 70
     0
  9
$LUNITS
 70
     2
  9
$LUPREC
 70
     4
  9
$SKETCHINC
 40
0.1
  9
$FILLETRAD
 40
0.5
  9
$AUNITS
 70
     0
  9
$AUPREC
 70
     0
  9
$MENU
  1
.
  9
$ELEVATION
 40
0.0
  9
$PELEVATION
 40
0.0
  9
$THICKNESS
 40
0.0
  9
$LIMCHECK
 70
     0
  9
$CHAMFERA
 40
0.5
  9
$CHAMFERB
 40
0.5
  9
$CHAMFERC
 40
1.0
  9
$CHAMFERD
 40
0.0
  9
$SKPOLY
 70
     0
  9
$TDCREATE
 40
2457721.586416933
  9
$TDUCREATE
 40
2457721.544750266
  9
$TDUPDATE
 40
2457721.586417164
  9
$TDUUPDATE
 40
2457721.544750498
  9
$TDINDWG
 40
0.0000000116
  9
$TDUSRTIMER
 40
0.0000000116
  9
$USRTIMER
 70
     1
  9
$ANGBASE
 50
0.0
  9
$ANGDIR
 70
     0
  9
$PDMODE
 70
     0
  9
$PDSIZE
 40
0.0
  9
$PLINEWID
 40
0.0
  9
$SPLFRAME
 70
     0
  9
$SPLINETYPE
 70
     6
  9
$SPLINESEGS
 70
     8
  9
$HANDSEED
  5
2E6
  9
$SURFTAB1
 70
     6
  9
$SURFTAB2
 70
     6
  9
$SURFTYPE
 70
     6
  9
$SURFU
 70
     6
  9
$SURFV
 70
     6
  9
$UCSBASE
  2

  9
$UCSNAME
  2

  9
$UCSORG
 10
0.0
 20
0.0
 30
0.0
  9
$UCSXDIR
 10
1.0
 20
0.0
 30
0.0
  9
$UCSYDIR
 10
0.0
 20
1.0
 30
0.0
  9
$UCSORTHOREF
  2

  9
$UCSORTHOVIEW
 70
     0
  9
$UCSORGTOP
 10
0.0
 20
0.0
 30
0.0
  9
$UCSORGBOTTOM
 10
0.0
 20
0.0
 30
0.0
  9
$UCSORGLEFT
 10
0.0
 20
0.0
 30
0.0
  9
$UCSORGRIGHT
 10
0.0
 20
0.0
 30
0.0
  9
$UCSORGFRONT
 10
0.0
 20
0.0
 30
0.0
  9
$UCSORGBACK
 10
0.0
 20
0.0
 30
0.0
  9
$PUCSBASE
  2

  9
$PUCSNAME
  2

  9
$PUCSORG
 10
0.0
 20
0.0
 30
0.0
  9
$PUCSXDIR
 10
1.0
 20
0.0
 30
0.0
  9
$PUCSYDIR
 10
0.0
 20
1.0
 30
0.0
  9
$PUCSORTHOREF
  2

  9
$PUCSORTHOVIEW
 70
     0
  9
$PUCSORGTOP
 10
0.0
 20
0.0
 30
0.0
  9
$PUCSORGBOTTOM
 10
0.0
 20
0.0
 30
0.0
  9
$PUCSORGLEFT
 10
0.0
 20
0.0
 30
0.0
  9
$PUCSORGRIGHT
 10
0.0
 20
0.0
 30
0.0
  9
$PUCSORGFRONT
 10
0.0
 20
0.0
 30
0.0
  9
$PUCSORGBACK
 10
0.0
 20
0.0
 30
0.0
  9
$USERI1
 70
     0
  9
$USERI2
 70
     0
  9
$USERI3
 70
     0
  9
$USERI4
 70
     0
  9
$USERI5
 70
     0
  9
$USERR1
 40
0.0
  9
$USERR2
 40
0.0
  9
$USERR3
 40
0.0
  9
$USERR4
 40
0.0
  9
$USERR5
 40
0.0
  9
$WORLDVIEW
 70
     1
  9
$SHADEDGE
 70
     3
  9
$SHADEDIF
 70
    70
  9
$TILEMODE
 70
     1
  9
$MAXACTVP
 70
    64
  9
$PINSBASE
 10
0.0
 20
0.0
 30
0.0
  9
$PLIMCHECK
 70
     0
  9
$PEXTMIN
 10
1.000000000000000E+20
 20
1.000000000000000E+20
 30
1.000000000000000E+20
  9
$PEXTMAX
 10
-1.000000000000000E+20
 20
-1.000000000000000E+20
 30
-1.000000000000000E+20
  9
$PLIMMIN
 10
0.0
 20
0.0
  9
$PLIMMAX
 10
12.0
 20
9.0
  9
$UNITMODE
 70
     0
  9
$VISRETAIN
 70
     1
  9
$PLINEGEN
 70
     0
  9
$PSLTSCALE
 70
     1
  9
$TREEDEPTH
 70
  3020
  9
$CMLSTYLE
  2
Standard
  9
$CMLJUST
 70
     0
  9
$CMLSCALE
 40
1.0
  9
$PROXYGRAPHICS
 70
     1
  9
$MEASUREMENT
 70
     0
  9
$CELWEIGHT
370
    -1
  9
$ENDCAPS
280
     0
  9
$JOINSTYLE
280
     0
  9
$LWDISPLAY
290
     1
  9
$INSUNITS
 70
     1
  9
$HYPERLINKBASE
  1

  9
$STYLESHEET
  1

  9
$XEDIT
290
     1
  9
$CEPSNTYPE
380
     0
  9
$PSTYLEMODE
290
     1
  9
$FINGERPRINTGUID
  2
{797DB45F-7CC7-422E-B0C5-1B52A0CAEB5F}
  9
$VERSIONGUID
  2
{FAEB1C32-E019-11D5-929B-00C0DF256EC4}
  9
$EXTNAMES
290
     1
  9
$PSVPSCALE
 40
0.0
  9
$OLESTARTUP
290
     0
  9
$SORTENTS
280
   127
  9
$INDEXCTL
280
     0
  9
$HIDETEXT
280
     1
  9
$XCLIPFRAME
280
     2
  9
$HALOGAP
280
     0
  9
$OBSCOLOR
 70
   257
  9
$OBSLTYPE
280
     0
  9
$INTERSECTIONDISPLAY
280
     0
  9
$INTERSECTIONCOLOR
 70
   257
  9
$DIMASSOC
280
     2
  9
$PROJECTNAME
  1

  9
$CAMERADISPLAY
290
     0
  9
$LENSLENGTH
 40
50.0
  9
$CAMERAHEIGHT
 40
0.0
  9
$STEPSPERSEC
 40
2.0
  9
$STEPSIZE
 40
6.0
  9
$3DDWFPREC
 40
2.0
  9
$PSOLWIDTH
 40
0.25
  9
$PSOLHEIGHT
 40
4.0
  9
$LOFTANG1
 40
1.570796326794897
  9
$LOFTANG2
 40
1.570796326794897
  9
$LOFTMAG1
 40
0.0
  9
$LOFTMAG2
 40
0.0
  9
$LOFTPARAM
 70
     7
  9
$LOFTNORMALS
280
     1
  9
$LATITUDE
 40
37.795
  9
$LONGITUDE
 40
-122.394
  9
$NORTHDIRECTION
 40
0.0
  9
$TIMEZONE
 70
 -8000
  9
$LIGHTGLYPHDISPLAY
280
     1
  9
$TILEMODELIGHTSYNCH
280
     1
  9
$CMATERIAL
347
3C
  9
$SOLIDHIST
280
     1
  9
$SHOWHIST
280
     1
  9
$DWFFRAME
280
     2
  9
$DGNFRAME
280
     2
  9
$REALWORLDSCALE
290
     1
  9
$INTERFERECOLOR
 62
   256
  9
$CSHADOW
280
     0
  9
$SHADOWPLANELOCATION
 40
0.0
  0
ENDSEC
  0
SECTION
  2
CLASSES
  0
CLASS
  1
ACDBDICTIONARYWDFLT
  2
AcDbDictionaryWithDefault
  3
ObjectDBX Classes
 90
        0
 91
        4
280
     0
281
     0
  0
CLASS
  1
VISUALSTYLE
  2
AcDbVisualStyle
  3
ObjectDBX Classes
 90
     4095
 91
        4
280
     0
281
     0
  0
CLASS
  1
MATERIAL
  2
AcDbMaterial
  3
ObjectDBX Classes
 90
     1153
 91
        4
280
     0
281
     0
  0
CLASS
  1
SUN
  2
AcDbSun
  3
SCENEOE
 90
     1024
 91
        4
280
     0
281
     0
  0
ENDSEC
  0
SECTION
  2
TABLES
  0
TABLE
  2
VPORT
  5
8
330
0
100
AcDbSymbolTable
 70
     1
  0
VPORT
  5
29
330
8
100
AcDbSymbolTableRecord
100
AcDbViewportTableRecord
  2
*Active
 70
     0
 10
0.0
 20
0.0
 11
1.0
 21
1.0
 12
0.0
 22
0.0
 13
0.0
 23
0.0
 14
0.5
 24
0.5
 15
0.5
 25
0.5
 16
0.0
 26
0.0
 36
1.0
 17
200.0073653674783
 27
200.0073653674781
 37
0.0
 40
249.9999999375
 41
1.000000000000001
 42
50.0
 43
0.0
 44
0.0
 50
0.0
 51
0.0
 71
     0
 72
   100
 73
     1
 74
     3
 75
     0
 76
     0
 77
     0
 78
     0
281
     0
 65
     1
110
0.0
120
0.0
130
0.0
111
1.0
121
0.0
131
0.0
112
0.0
122
1.0
132
0.0
 79
     0
146
0.0
 60
     3
 61
     5
292
     1
282
     1
141
0.0
142
0.0
 63
   250
361
3F
  0
ENDTAB
  0
TABLE
  2
LTYPE
  5
5
330
0
100
AcDbSymbolTable
 70
     1
  0
LTYPE
  5
14
330
5
100
AcDbSymbolTableRecord
100
AcDbLinetypeTableRecord
  2
ByBlock
 70
     0
  3

 72
    65
 73
     0
 40
0.0
  0
LTYPE
  5
15
330
5
100
AcDbSymbolTableRecord
100
AcDbLinetypeTableRecord
  2
ByLayer
 70
     0
  3

 72
    65
 73
     0
 40
0.0
  0
LTYPE
  5
16
330
5
100
AcDbSymbolTableRecord
100
AcDbLinetypeTableRecord
  2
Continuous
 70
     0
  3
Solid line
 72
    65
 73
     0
 40
0.0
  0
ENDTAB
  0
TABLE
  2
LAYER
  5
2
330
0
100
AcDbSymbolTable
 70
     2
  0
LAYER
  5
10
330
2
100
AcDbSymbolTableRecord
100
AcDbLayerTableRecord
  2
0
 70
     0
 62
     7
  6
Continuous
370
    -3
390
F
347
3E
  0
LAYER
  5
40
330
2
100
AcDbSymbolTableRecord
100
AcDbLayerTableRecord
  2
Layer 1
 70
     0
 62
     7
  6
Continuous
370
    -3
390
F
347
3E
  0
ENDTAB
  0
TABLE
  2
STYLE
  5
3
330
0
100
AcDbSymbolTable
 70
     1
  0
STYLE
  5
11
330
3
100
AcDbSymbolTableRecord
100
AcDbTextStyleTableRecord
  2
Standard
 70
     0
 40
0.0
 41
1.0
 50
0.0
 71
     0
 42
0.2
  3
txt
  4

  0
ENDTAB
  0
TABLE
  2
VIEW
  5
6
330
0
100
AcDbSymbolTable
 70
     0
  0
ENDTAB
  0
TABLE
  2
UCS
  5
7
330
0
100
AcDbSymbolTable
 70
     0
  0
ENDTAB
  0
TABLE
  2
APPID
  5
9
330
0
100
AcDbSymbolTable
 70
     1
  0
APPID
  5
12
330
9
100
AcDbSymbolTableRecord
100
AcDbRegAppTableRecord
  2
ACAD
 70
     0
  0
ENDTAB
  0
TABLE
  2
DIMSTYLE
  5
A
330
0
100
AcDbSymbolTable
 70
     1
100
AcDbDimStyleTable
  0
DIMSTYLE
105
27
330
A
100
AcDbSymbolTableRecord
100
AcDbDimStyleTableRecord
  2
Standard
 70
     0
178
     0
340
11
  0
ENDTAB
  0
TABLE
  2
BLOCK_RECORD
  5
1
330
0
100
AcDbSymbolTable
 70
    10
  0
BLOCK_RECORD
  5
1F
330
1
100
AcDbSymbolTableRecord
100
AcDbBlockTableRecord
  2
*Model_Space
340
22
 70
     0
280
     1
281
     0
  0
BLOCK_RECORD
  5
1B
330
1
100
AcDbSymbolTableRecord
100
AcDbBlockTableRecord
  2
*Paper_Space
340
1E
 70
     0
280
     1
281
     0
  0
BLOCK_RECORD
  5
23
330
1
100
AcDbSymbolTableRecord
100
AcDbBlockTableRecord
  2
*Paper_Space0
340
26
 70
     0
280
     1
281
     0
  0
BLOCK_RECORD
  5
41
330
1
100
AcDbSymbolTableRecord
100
AcDbBlockTableRecord
  2
block 2
340
0
102
{BLKREFS
331
42
102
}
 70
     0
280
     1
281
     0
  0
BLOCK_RECORD
  5
8C
330
1
100
AcDbSymbolTableRecord
100
AcDbBlockTableRecord
  2
block 3
340
0
102
{BLKREFS
331
8D
102
}
 70
     0
280
     1
281
     0
  0
BLOCK_RECORD
  5
D7
330
1
100
AcDbSymbolTableRecord
100
AcDbBlockTableRecord
  2
block 4
340
0
102
{BLKREFS
331
D8
102
}
 70
     0
280
     1
281
     0
  0
BLOCK_RECORD
  5
122
330
1
100
AcDbSymbolTableRecord
100
AcDbBlockTableRecord
  2
block 5
340
0
102
{BLKREFS
331
123
102
}
 70
     0
280
     1
281
     0
  0
BLOCK_RECORD
  5
16D
330
1
100
AcDbSymbolTableRecord
100
AcDbBlockTableRecord
  2
block 6
340
0
102
{BLKREFS
331
16E
102
}
 70
     0
280
     1
281
     0
  0
BLOCK_RECORD
  5
1B8
330
1
100
AcDbSymbolTableRecord
100
AcDbBlockTableRecord
  2
block 7
340
0
102
{BLKREFS
331
1B9
102
}
 70
     0
280
     1
281
     0
  0
BLOCK_RECORD
  5
203
330
1
100
AcDbSymbolTableRecord
100
AcDbBlockTableRecord
  2
block 8
340
0
102
{BLKREFS
331
204
102
}
 70
     0
280
     1
281
     0
  0
BLOCK_RECORD
  5
24E
330
1
100
AcDbSymbolTableRecord
100
AcDbBlockTableRecord
  2
block 9
340
0
102
{BLKREFS
331
24F
102
}
 70
     0
280
     1
281
     0
  0
BLOCK_RECORD
  5
299
330
1
100
AcDbSymbolTableRecord
100
AcDbBlockTableRecord
  2
block 10
340
0
102
{BLKREFS
331
29A
102
}
 70
     0
280
     1
281
     0
  0
ENDTAB
  0
ENDSEC
  0
SECTION
  2
BLOCKS
  0
BLOCK
  5
20
330
1F
100
AcDbEntity
  8
0
100
AcDbBlockBegin
  2
*Model_Space
 70
     0
 10
0.0
 20
0.0
 30
0.0
  3
*Model_Space
  1

  0
ENDBLK
  5
21
330
1F
100
AcDbEntity
  8
0
100
AcDbBlockEnd
  0
BLOCK
  5
1C
330
1B
100
AcDbEntity
 67
     1
  8
0
100
AcDbBlockBegin
  2
*Paper_Space
 70
     0
 10
0.0
 20
0.0
 30
0.0
  3
*Paper_Space
  1

  0
ENDBLK
  5
1D
330
1B
100
AcDbEntity
 67
     1
  8
0
100
AcDbBlockEnd
  0
BLOCK
  5
24
330
23
100
AcDbEntity
  8
0
100
AcDbBlockBegin
  2
*Paper_Space0
 70
     0
 10
0.0
 20
0.0
 30
0.0
  3
*Paper_Space0
  1

  0
ENDBLK
  5
25
330
23
100
AcDbEntity
  8
0
100
AcDbBlockEnd
  0
BLOCK
  5
43
330
41
100
AcDbEntity
  8
0
100
AcDbBlockBegin
  2
block 2
 70
     0
 10
0.0
 20
0.0
 30
0.0
  3
block 2
  1

  0
POLYLINE
  5
45
330
41
100
AcDbEntity
  8
Layer 1
 62
     7
420
 16777215
370
    13
100
AcDb2dPolyline
 66
     1
 10
0.0
 20
0.0
 30
0.0
  0
VERTEX
  5
46
330
45
100
AcDbEntity
  8
Layer 1
 62
     7
420
 16777215
370
    13
100
AcDbVertex
100
AcDb2dVertex
 10
83.58423648440044
 20
316.4416665875563
 30
0.0
  0
VERTEX
  5
47
330
45
100
AcDbEntity
  8
Layer 1
 62
     7
420
 16777215
370
    13
100
AcDbVertex
100
AcDb2dVertex
 10
88.09979176967902
 20
316.4416665875563
 30
0.0
  0
VERTEX
  5
48
330
45
100
AcDbEntity
  8
Layer 1
 62
     7
420
 16777215
370
    13
100
AcDbVertex
100
AcDb2dVertex
 10
88.09979176967902
 20
319.4402776979177
 30
0.0
  0
VERTEX
  5
49
330
45
100
AcDbEntity
  8
Layer 1
 62
     7
420
 16777215
370
    13
100
AcDbVertex
100
AcDb2dVertex
 10
95.57868025297606
 20
319.4402776979177
 30
0.0
  0
VERTEX
  5
4A
330
45
100
AcDbEntity
  8
Layer 1
 62
     7
420
 16777215
370
    13
100
AcDbVertex
100
AcDb2dVertex
 10
95.57868025297606
 20
316.4416665875563
 30
0.0
  0
VERTEX
  5
4B
330
45
100
AcDbEntity
  8
Layer 1
 62
     7
420
 16777215
370
    13
100
AcDbVertex
100
AcDb2dVertex
 10
101.5759025998621
 20
316.4416665875563
 30
0.0
  0
VERTEX
  5
4C
330
45
100
AcDbEntity
  8
Layer 1
 62
     7
420
 16777215
370
    13
100
AcDbVertex
100
AcDb2dVertex
 10
101.5759025998621
 20
319.4402776979177
 30
0.0
  0
VERTEX
  5
4D
330
45
100
AcDbEntity
  8
Layer 1
 62
     7
420
 16777215
370
    13
100
AcDbVertex
100
AcDb2dVertex
 10
107.5731246944219
 20
319.4402776979177
 30
0.0
  0
VERTEX
  5
4E
330
45
100
AcDbEntity
  8
Layer 1
 62
     7
420
 16777215
370
    13
100
AcDbVertex
100
AcDb2dVertex
 10
107.5731246944219
 20
316.4416665875563
 30
0.0
  0
VERTEX
  5
4F
330
45
100
AcDbEntity
  8
Layer 1
 62
     7
420
 16777215
370
    13
100
AcDbVertex
100
AcDb2dVertex
 10
113.570347588015
 20
316.4416665875563
 30
0.0
  0
VERTEX
  5
50
330
45
100
AcDbEntity
  8
Layer 1
 62
     7
420
 16777215
370
    13
100
AcDbVertex
100
AcDb2dVertex
 10
113.570347588015
 20
319.4402776979177
 30
0.0
  0
VERTEX
  5
51
330
45
100
AcDbEntity
  8
Layer 1
 62
     7
420
 16777215
370
    13
100
AcDbVertex
100
AcDb2dVertex
 10
119.5675698087379
 20
319.4402776979177
 30
0.0
  0
VERTEX
  5
52
330
45
100
AcDbEntity
  8
Layer 1
 62
     7
420
 16777215
370
    13
100
AcDbVertex
100
AcDb2dVertex
 10
119.5675698087379
 20
316.4416665875563
 30
0.0
  0
VERTEX
  5
53
330
45
100
AcDbEntity
  8
Layer 1
 62
     7
420
 16777215
370
    13
100
AcDbVertex
100
AcDb2dVertex
 10
125.6000692689337
 20
316.4416665875563
 30
0.0
  0
VERTEX
  5
54
330
45
100
AcDbEntity
  8
Layer 1
 62
     7
420
 16777215
370
    13
100
AcDbVertex
100
AcDb2dVertex
 10
125.6000692689337
 20
319.4402776979177
 30
0.0
  0
VERTEX
  5
55
330
45
100
AcDbEntity
  8
Layer 1
 62
     7
420
 16777215
370
    13
100
AcDbVertex
100
AcDb2dVertex
 10
133.0789570793605
 20
319.4402776979177
 30
0.0
  0
VERTEX
  5
56
330
45
100
AcDbEntity
  8
Layer 1
 62
     7
420
 16777215
370
    13
100
AcDbVertex
100
AcDb2dVertex
 10
133.0789570793605
 20
316.4416665875563
 30
0.0
  0
VERTEX
  5
57
330
45
100
AcDbEntity
  8
Layer 1
 62
     7
420
 16777215
370
    13
100
AcDbVertex
100
AcDb2dVertex
 10
137.5945137103795
 20
316.4416665875563
 30
0.0
  0
VERTEX
  5
58
330
45
100
AcDbEntity
  8
Layer 1
 62
     7
420
 16777215
370
    13
100
AcDbVertex
100
AcDb2dVertex
 10
137.5945137103795
 20
311.9261153394989
 30
0.0
  0
VERTEX
  5
59
330
45
100
AcDbEntity
  8
Layer 1
 62
     7
420
 16777215
370
    13
100
AcDbVertex
100
AcDb2dVertex
 10
140.5931248207409
 20
311.9261153394989
 30
0.0
  0
VERTEX
  5
5A
330
45
100
AcDbEntity
  8
Layer 1
 62
     7
420
 16777215
370
    13
100
AcDbVertex
100
AcDb2dVertex
 10
140.5931248207409
 20
304.4472221461104
 30
0.0
  0
VERTEX
  5
5B
330
45
100
AcDbEntity
  8
Layer 1
 62
     7
420
 16777215
370
    13
100
AcDbVertex
100
AcDb2dVertex
 10
137.5945137103795
 20
304.4472221461104
 30
0.0
  0
VERTEX
  5
5C
330
45
100
AcDbEntity
  8
Layer 1
 62
     7
420
 16777215
370
    13
100
AcDbVertex
100
AcDb2dVertex
 10
137.5945137103795
 20
298.4499999253875
 30
0.0
  0
VERTEX
  5
5D
330
45
100
AcDbEntity
  8
Layer 1
 62
     7
420
 16777215
370
    13
100
AcDbVertex
100
AcDb2dVertex
 10
140.5931248207409
 20
298.4499999253875
 30
0.0
  0
VERTEX
  5
5E
330
45
100
AcDbEntity
  8
Layer 1
 62
     7
420
 16777215
370
    13
100
AcDbVertex
100
AcDb2dVertex
 10
140.5931248207409
 20
292.4527777046646
 30
0.0
  0
VERTEX
  5
5F
330
45
100
AcDbEntity
  8
Layer 1
 62
     7
420
 16777215
370
    13
100
AcDbVertex
100
AcDb2dVertex
 10
137.5945137103795
 20
292.4527777046646
 30
0.0
  0
VERTEX
  5
60
330
45
100
AcDbEntity
  8
Layer 1
 62
     7
420
 16777215
370
    13
100
AcDbVertex
100
AcDb2dVertex
 10
137.5945137103795
 20
286.4555554839417
 30
0.0
  0
VERTEX
  5
61
330
45
100
AcDbEntity
  8
Layer 1
 62
     7
420
 16777215
370
    13
100
AcDbVertex
100
AcDb2dVertex
 10
140.5931248207409
 20
286.4555554839417
 30
0.0
  0
VERTEX
  5
62
330
45
100
AcDbEntity
  8
Layer 1
 62
     7
420
 16777215
370
    13
100
AcDbVertex
100
AcDb2dVertex
 10
140.5931248207409
 20
280.4583332632188
 30
0.0
  0
VERTEX
  5
63
330
45
100
AcDbEntity
  8
Layer 1
 62
     7
420
 16777215
370
    13
100
AcDbVertex
100
AcDb2dVertex
 10
137.5945137103795
 20
280.4583332632188
 30
0.0
  0
VERTEX
  5
64
330
45
100
AcDbEntity
  8
Layer 1
 62
     7
420
 16777215
370
    13
100
AcDbVertex
100
AcDb2dVertex
 10
137.5945137103795
 20
274.4258418774659
 30
0.0
  0
VERTEX
  5
65
330
45
100
AcDbEntity
  8
Layer 1
 62
     7
420
 16777215
370
    13
100
AcDbVertex
100
AcDb2dVertex
 10
140.5931248207409
 20
274.4258418774659
 30
0.0
  0
VERTEX
  5
66
330
45
100
AcDbEntity
  8
Layer 1
 62
     7
420
 16777215
370
    13
100
AcDbVertex
100
AcDb2dVertex
 10
140.5931248207409
 20
266.9469486840771
 30
0.0
  0
VERTEX
  5
67
330
45
100
AcDbEntity
  8
Layer 1
 62
     7
420
 16777215
370
    13
100
AcDbVertex
100
AcDb2dVertex
 10
137.5945137103795
 20
266.9469486840771
 30
0.0
  0
VERTEX
  5
68
330
45
100
AcDbEntity
  8
Layer 1
 62
     7
420
 16777215
370
    13
100
AcDbVertex
100
AcDb2dVertex
 10
137.5945137103795
 20
262.4313974360201
 30
0.0
  0
VERTEX
  5
69
330
45
100
AcDbEntity
  8
Layer 1
 62
     7
420
 16777215
370
    13
100
AcDbVertex
100
AcDb2dVertex
 10
133.0789570793605
 20
262.4313974360201
 30
0.0
  0
VERTEX
  5
6A
330
45
100
AcDbEntity
  8
Layer 1
 62
     7
420
 16777215
370
    13
100
AcDbVertex
100
AcDb2dVertex
 10
133.0789570793605
 20
259.4327863256586
 30
0.0
  0
VERTEX
  5
6B
330
45
100
AcDbEntity
  8
Layer 1
 62
     7
420
 16777215
370
    13
100
AcDbVertex
100
AcDb2dVertex
 10
125.6000692689337
 20
259.4327863256586
 30
0.0
  0
VERTEX
  5
6C
330
45
100
AcDbEntity
  8
Layer 1
 62
     7
420
 16777215
370
    13
100
AcDbVertex
100
AcDb2dVertex
 10
125.6000692689337
 20
262.4313974360201
 30
0.0
  0
VERTEX
  5
6D
330
45
100
AcDbEntity
  8
Layer 1
 62
     7
420
 16777215
370
    13
100
AcDbVertex
100
AcDb2dVertex
 10
119.5675698087379
 20
262.4313974360201
 30
0.0
  0
VERTEX
  5
6E
330
45
100
AcDbEntity
  8
Layer 1
 62
     7
420
 16777215
370
    13
100
AcDbVertex
100
AcDb2dVertex
 10
119.5675698087379
 20
259.4327863256586
 30
0.0
  0
VERTEX
  5
6F
330
45
100
AcDbEntity
  8
Layer 1
 62
     7
420
 16777215
370
    13
100
AcDbVertex
100
AcDb2dVertex
 10
113.570347588015
 20
259.4327863256586
 30
0.0
  0
VERTEX
  5
70
330
45
100
AcDbEntity
  8
Layer 1
 62
     7
420
 16777215
370
    13
100
AcDbVertex
100
AcDb2dVertex
 10
113.570347588015
 20
262.4313974360201
 30
0.0
  0
VERTEX
  5
71
330
45
100
AcDbEntity
  8
Layer 1
 62
     7
420
 16777215
370
    13
100
AcDbVertex
100
AcDb2dVertex
 10
107.5731246944219
 20
262.4313974360201
 30
0.0
  0
VERTEX
  5
72
330
45
100
AcDbEntity
  8
Layer 1
 62
     7
420
 16777215
370
    13
100
AcDbVertex
100
AcDb2dVertex
 10
107.5731246944219
 20
259.4327863256586
 30
0.0
  0
VERTEX
  5
73
330
45
100
AcDbEntity
  8
Layer 1
 62
     7
420
 16777215
370
    13
100
AcDbVertex
100
AcDb2dVertex
 10
101.5759025998621
 20
259.4327863256586
 30
0.0
  0
VERTEX
  5
74
330
45
100
AcDbEntity
  8
Layer 1
 62
     7
420
 16777215
370
    13
100
AcDbVertex
100
AcDb2dVertex
 10
101.5759025998621
 20
262.4313974360201
 30
0.0
  0
VERTEX
  5
75
330
45
100
AcDbEntity
  8
Layer 1
 62
     7
420
 16777215
370
    13
100
AcDbVertex
100
AcDb2dVertex
 10
95.57868025297606
 20
262.4313974360201
 30
0.0
  0
VERTEX
  5
76
330
45
100
AcDbEntity
  8
Layer 1
 62
     7
420
 16777215
370
    13
100
AcDbVertex
100
AcDb2dVertex
 10
95.57868025297606
 20
259.4327863256586
 30
0.0
  0
VERTEX
  5
77
330
45
100
AcDbEntity
  8
Layer 1
 62
     7
420
 16777215
370
    13
100
AcDbVertex
100
AcDb2dVertex
 10
88.09979176967902
 20
259.4327863256586
 30
0.0
  0
VERTEX
  5
78
330
45
100
AcDbEntity
  8
Layer 1
 62
     7
420
 16777215
370
    13
100
AcDbVertex
100
AcDb2dVertex
 10
88.09979176967902
 20
262.4313974360201
 30
0.0
  0
VERTEX
  5
79
330
45
100
AcDbEntity
  8
Layer 1
 62
     7
420
 16777215
370
    13
100
AcDbVertex
100
AcDb2dVertex
 10
83.58423648440044
 20
262.4313974360201
 30
0.0
  0
VERTEX
  5
7A
330
45
100
AcDbEntity
  8
Layer 1
 62
     7
420
 16777215
370
    13
100
AcDbVertex
100
AcDb2dVertex
 10
83.58423648440044
 20
266.9469486840771
 30
0.0
  0
VERTEX
  5
7B
330
45
100
AcDbEntity
  8
Layer 1
 62
     7
420
 16777215
370
    13
100
AcDbVertex
100
AcDb2dVertex
 10
80.58562537403898
 20
266.9469486840771
 30
0.0
  0
VERTEX
  5
7C
330
45
100
AcDbEntity
  8
Layer 1
 62
     7
420
 16777215
370
    13
100
AcDbVertex
100
AcDb2dVertex
 10
80.58562537403898
 20
274.4258418774659
 30
0.0
  0
VERTEX
  5
7D
330
45
100
AcDbEntity
  8
Layer 1
 62
     7
420
 16777215
370
    13
100
AcDbVertex
100
AcDb2dVertex
 10
83.58423648440044
 20
274.4258418774659
 30
0.0
  0
VERTEX
  5
7E
330
45
100
AcDbEntity
  8
Layer 1
 62
     7
420
 16777215
370
    13
100
AcDbVertex
100
AcDb2dVertex
 10
83.58423648440044
 20
280.4583332632188
 30
0.0
  0
VERTEX
  5
7F
330
45
100
AcDbEntity
  8
Layer 1
 62
     7
420
 16777215
370
    13
100
AcDbVertex
100
AcDb2dVertex
 10
80.58562537403898
 20
280.4583332632188
 30
0.0
  0
VERTEX
  5
80
330
45
100
AcDbEntity
  8
Layer 1
 62
     7
420
 16777215
370
    13
100
AcDbVertex
100
AcDb2dVertex
 10
80.58562537403898
 20
286.4555554839417
 30
0.0
  0
VERTEX
  5
81
330
45
100
AcDbEntity
  8
Layer 1
 62
     7
420
 16777215
370
    13
100
AcDbVertex
100
AcDb2dVertex
 10
83.58423648440044
 20
286.4555554839417
 30
0.0
  0
VERTEX
  5
82
330
45
100
AcDbEntity
  8
Layer 1
 62
     7
420
 16777215
370
    13
100
AcDbVertex
100
AcDb2dVertex
 10
83.58423648440044
 20
292.4527777046646
 30
0.0
  0
VERTEX
  5
83
330
45
100
AcDbEntity
  8
Layer 1
 62
     7
420
 16777215
370
    13
100
AcDbVertex
100
AcDb2dVertex
 10
80.58562537403898
 20
292.4527777046646
 30
0.0
  0
VERTEX
  5
84
330
45
100
AcDbEntity
  8
Layer 1
 62
     7
420
 16777215
370
    13
100
AcDbVertex
100
AcDb2dVertex
 10
80.58562537403898
 20
298.4499999253875
 30
0.0
  0
VERTEX
  5
85
330
45
100
AcDbEntity
  8
Layer 1
 62
     7
420
 16777215
370
    13
100
AcDbVertex
100
AcDb2dVertex
 10
83.58423648440044
 20
298.4499999253875
 30
0.0
  0
VERTEX
  5
86
330
45
100
AcDbEntity
  8
Layer 1
 62
     7
420
 16777215
370
    13
100
AcDbVertex
100
AcDb2dVertex
 10
83.58423648440044
 20
304.4472221461104
 30
0.0
  0
VERTEX
  5
87
330
45
100
AcDbEntity
  8
Layer 1
 62
     7
420
 16777215
370
    13
100
AcDbVertex
100
AcDb2dVertex
 10
80.58562537403898
 20
304.4472221461104
 30
0.0
  0
VERTEX
  5
88
330
45
100
AcDbEntity
  8
Layer 1
 62
     7
420
 16777215
370
    13
100
AcDbVertex
100
AcDb2dVertex
 10
80.58562537403898
 20
311.9261153394989
 30
0.0
  0
VERTEX
  5
89
330
45
100
AcDbEntity
  8
Layer 1
 62
     7
420
 16777215
370
    13
100
AcDbVertex
100
AcDb2dVertex
 10
83.58423648440044
 20
311.9261153394989
 30
0.0
  0
VERTEX
  5
8A
330
45
100
AcDbEntity
  8
Layer 1
 62
     7
420
 16777215
370
    13
100
AcDbVertex
100
AcDb2dVertex
 10
83.58423648440044
 20
316.4416665875563
 30
0.0
  0
SEQEND
  5
8B
330
45
100
AcDbEntity
  8
Layer 1
 62
     7
420
 16777215
370
    13
  0
ENDBLK
  5
44
330
41
100
AcDbEntity
  8
0
100
AcDbBlockEnd
  0
BLOCK
  5
8E
330
8C
100
AcDbEntity
  8
0
100
AcDbBlockBegin
  2
block 3
 70
     0
 10
0.0
 20
0.0
 30
0.0
  3
block 3
  1

  0
POLYLINE
  5
90
330
8C
100
AcDbEntity
  8
Layer 1
 62
     7
420
 16777215
370
    13
100
AcDb2dPolyline
 66
     1
 10
0.0
 20
0.0
 30
0.0
  0
VERTEX
  5
91
330
90
100
AcDbEntity
  8
Layer 1
 62
     7
420
 16777215
370
    13
100
AcDbVertex
100
AcDb2dVertex
 10
148.4953475792838
 20
316.4416665875563
 30
0.0
  0
VERTEX
  5
92
330
90
100
AcDbEntity
  8
Layer 1
 62
     7
420
 16777215
370
    13
100
AcDbVertex
100
AcDb2dVertex
 10
153.0109028645624
 20
316.4416665875563
 30
0.0
  0
VERTEX
  5
93
330
90
100
AcDbEntity
  8
Layer 1
 62
     7
420
 16777215
370
    13
100
AcDbVertex
100
AcDb2dVertex
 10
153.0109028645624
 20
319.4402776979177
 30
0.0
  0
VERTEX
  5
94
330
90
100
AcDbEntity
  8
Layer 1
 62
     7
420
 16777215
370
    13
100
AcDbVertex
100
AcDb2dVertex
 10
160.4897913478594
 20
319.4402776979177
 30
0.0
  0
VERTEX
  5
95
330
90
100
AcDbEntity
  8
Layer 1
 62
     7
420
 16777215
370
    13
100
AcDbVertex
100
AcDb2dVertex
 10
160.4897913478594
 20
316.4416665875563
 30
0.0
  0
VERTEX
  5
96
330
90
100
AcDbEntity
  8
Layer 1
 62
     7
420
 16777215
370
    13
100
AcDbVertex
100
AcDb2dVertex
 10
166.4870136947455
 20
316.4416665875563
 30
0.0
  0
VERTEX
  5
97
330
90
100
AcDbEntity
  8
Layer 1
 62
     7
420
 16777215
370
    13
100
AcDbVertex
100
AcDb2dVertex
 10
166.4870136947455
 20
319.4402776979177
 30
0.0
  0
VERTEX
  5
98
330
90
100
AcDbEntity
  8
Layer 1
 62
     7
420
 16777215
370
    13
100
AcDbVertex
100
AcDb2dVertex
 10
172.4842357893052
 20
319.4402776979177
 30
0.0
  0
VERTEX
  5
99
330
90
100
AcDbEntity
  8
Layer 1
 62
     7
420
 16777215
370
    13
100
AcDbVertex
100
AcDb2dVertex
 10
172.4842357893052
 20
316.4416665875563
 30
0.0
  0
VERTEX
  5
9A
330
90
100
AcDbEntity
  8
Layer 1
 62
     7
420
 16777215
370
    13
100
AcDbVertex
100
AcDb2dVertex
 10
178.4814586828984
 20
316.4416665875563
 30
0.0
  0
VERTEX
  5
9B
330
90
100
AcDbEntity
  8
Layer 1
 62
     7
420
 16777215
370
    13
100
AcDbVertex
100
AcDb2dVertex
 10
178.4814586828984
 20
319.4402776979177
 30
0.0
  0
VERTEX
  5
9C
330
90
100
AcDbEntity
  8
Layer 1
 62
     7
420
 16777215
370
    13
100
AcDbVertex
100
AcDb2dVertex
 10
184.4786809036213
 20
319.4402776979177
 30
0.0
  0
VERTEX
  5
9D
330
90
100
AcDbEntity
  8
Layer 1
 62
     7
420
 16777215
370
    13
100
AcDbVertex
100
AcDb2dVertex
 10
184.4786809036213
 20
316.4416665875563
 30
0.0
  0
VERTEX
  5
9E
330
90
100
AcDbEntity
  8
Layer 1
 62
     7
420
 16777215
370
    13
100
AcDbVertex
100
AcDb2dVertex
 10
190.511180363817
 20
316.4416665875563
 30
0.0
  0
VERTEX
  5
9F
330
90
100
AcDbEntity
  8
Layer 1
 62
     7
420
 16777215
370
    13
100
AcDbVertex
100
AcDb2dVertex
 10
190.511180363817
 20
319.4402776979177
 30
0.0
  0
VERTEX
  5
A0
330
90
100
AcDbEntity
  8
Layer 1
 62
     7
420
 16777215
370
    13
100
AcDbVertex
100
AcDb2dVertex
 10
197.9900681742438
 20
319.4402776979177
 30
0.0
  0
VERTEX
  5
A1
330
90
100
AcDbEntity
  8
Layer 1
 62
     7
420
 16777215
370
    13
100
AcDbVertex
100
AcDb2dVertex
 10
197.9900681742438
 20
316.4416665875563
 30
0.0
  0
VERTEX
  5
A2
330
90
100
AcDbEntity
  8
Layer 1
 62
     7
420
 16777215
370
    13
100
AcDbVertex
100
AcDb2dVertex
 10
202.5056248052628
 20
316.4416665875563
 30
0.0
  0
VERTEX
  5
A3
330
90
100
AcDbEntity
  8
Layer 1
 62
     7
420
 16777215
370
    13
100
AcDbVertex
100
AcDb2dVertex
 10
202.5056248052628
 20
311.9261153394989
 30
0.0
  0
VERTEX
  5
A4
330
90
100
AcDbEntity
  8
Layer 1
 62
     7
420
 16777215
370
    13
100
AcDbVertex
100
AcDb2dVertex
 10
205.5042359156243
 20
311.9261153394989
 30
0.0
  0
VERTEX
  5
A5
330
90
100
AcDbEntity
  8
Layer 1
 62
     7
420
 16777215
370
    13
100
AcDbVertex
100
AcDb2dVertex
 10
205.5042359156243
 20
304.4472221461104
 30
0.0
  0
VERTEX
  5
A6
330
90
100
AcDbEntity
  8
Layer 1
 62
     7
420
 16777215
370
    13
100
AcDbVertex
100
AcDb2dVertex
 10
202.5056248052628
 20
304.4472221461104
 30
0.0
  0
VERTEX
  5
A7
330
90
100
AcDbEntity
  8
Layer 1
 62
     7
420
 16777215
370
    13
100
AcDbVertex
100
AcDb2dVertex
 10
202.5056248052628
 20
298.4499999253875
 30
0.0
  0
VERTEX
  5
A8
330
90
100
AcDbEntity
  8
Layer 1
 62
     7
420
 16777215
370
    13
100
AcDbVertex
100
AcDb2dVertex
 10
205.5042359156243
 20
298.4499999253875
 30
0.0
  0
VERTEX
  5
A9
330
90
100
AcDbEntity
  8
Layer 1
 62
     7
420
 16777215
370
    13
100
AcDbVertex
100
AcDb2dVertex
 10
205.5042359156243
 20
292.4527777046646
 30
0.0
  0
VERTEX
  5
AA
330
90
100
AcDbEntity
  8
Layer 1
 62
     7
420
 16777215
370
    13
100
AcDbVertex
100
AcDb2dVertex
 10
202.5056248052628
 20
292.4527777046646
 30
0.0
  0
VERTEX
  5
AB
330
90
100
AcDbEntity
  8
Layer 1
 62
     7
420
 16777215
370
    13
100
AcDbVertex
100
AcDb2dVertex
 10
202.5056248052628
 20
286.4555554839417
 30
0.0
  0
VERTEX
  5
AC
330
90
100
AcDbEntity
  8
Layer 1
 62
     7
420
 16777215
370
    13
100
AcDbVertex
100
AcDb2dVertex
 10
205.5042359156243
 20
286.4555554839417
 30
0.0
  0
VERTEX
  5
AD
330
90
100
AcDbEntity
  8
Layer 1
 62
     7
420
 16777215
370
    13
100
AcDbVertex
100
AcDb2dVertex
 10
205.5042359156243
 20
280.4583332632188
 30
0.0
  0
VERTEX
  5
AE
330
90
100
AcDbEntity
  8
Layer 1
 62
     7
420
 16777215
370
    13
100
AcDbVertex
100
AcDb2dVertex
 10
202.5056248052628
 20
280.4583332632188
 30
0.0
  0
VERTEX
  5
AF
330
90
100
AcDbEntity
  8
Layer 1
 62
     7
420
 16777215
370
    13
100
AcDbVertex
100
AcDb2dVertex
 10
202.5056248052628
 20
274.4258418774659
 30
0.0
  0
VERTEX
  5
B0
330
90
100
AcDbEntity
  8
Layer 1
 62
     7
420
 16777215
370
    13
100
AcDbVertex
100
AcDb2dVertex
 10
205.5042359156243
 20
274.4258418774659
 30
0.0
  0
VERTEX
  5
B1
330
90
100
AcDbEntity
  8
Layer 1
 62
     7
420
 16777215
370
    13
100
AcDbVertex
100
AcDb2dVertex
 10
205.5042359156243
 20
266.9469486840771
 30
0.0
  0
VERTEX
  5
B2
330
90
100
AcDbEntity
  8
Layer 1
 62
     7
420
 16777215
370
    13
100
AcDbVertex
100
AcDb2dVertex
 10
202.5056248052628
 20
266.9469486840771
 30
0.0
  0
VERTEX
  5
B3
330
90
100
AcDbEntity
  8
Layer 1
 62
     7
420
 16777215
370
    13
100
AcDbVertex
100
AcDb2dVertex
 10
202.5056248052628
 20
262.4313974360201
 30
0.0
  0
VERTEX
  5
B4
330
90
100
AcDbEntity
  8
Layer 1
 62
     7
420
 16777215
370
    13
100
AcDbVertex
100
AcDb2dVertex
 10
197.9900681742438
 20
262.4313974360201
 30
0.0
  0
VERTEX
  5
B5
330
90
100
AcDbEntity
  8
Layer 1
 62
     7
420
 16777215
370
    13
100
AcDbVertex
100
AcDb2dVertex
 10
197.9900681742438
 20
259.4327863256586
 30
0.0
  0
VERTEX
  5
B6
330
90
100
AcDbEntity
  8
Layer 1
 62
     7
420
 16777215
370
    13
100
AcDbVertex
100
AcDb2dVertex
 10
190.511180363817
 20
259.4327863256586
 30
0.0
  0
VERTEX
  5
B7
330
90
100
AcDbEntity
  8
Layer 1
 62
     7
420
 16777215
370
    13
100
AcDbVertex
100
AcDb2dVertex
 10
190.511180363817
 20
262.4313974360201
 30
0.0
  0
VERTEX
  5
B8
330
90
100
AcDbEntity
  8
Layer 1
 62
     7
420
 16777215
370
    13
100
AcDbVertex
100
AcDb2dVertex
 10
184.4786809036213
 20
262.4313974360201
 30
0.0
  0
VERTEX
  5
B9
330
90
100
AcDbEntity
  8
Layer 1
 62
     7
420
 16777215
370
    13
100
AcDbVertex
100
AcDb2dVertex
 10
184.4786809036213
 20
259.4327863256586
 30
0.0
  0
VERTEX
  5
BA
330
90
100
AcDbEntity
  8
Layer 1
 62
     7
420
 16777215
370
    13
100
AcDbVertex
100
AcDb2dVertex
 10
178.4814586828984
 20
259.4327863256586
 30
0.0
  0
VERTEX
  5
BB
330
90
100
AcDbEntity
  8
Layer 1
 62
     7
420
 16777215
370
    13
100
AcDbVertex
100
AcDb2dVertex
 10
178.4814586828984
 20
262.4313974360201
 30
0.0
  0
VERTEX
  5
BC
330
90
100
AcDbEntity
  8
Layer 1
 62
     7
420
 16777215
370
    13
100
AcDbVertex
100
AcDb2dVertex
 10
172.4842357893052
 20
262.4313974360201
 30
0.0
  0
VERTEX
  5
BD
330
90
100
AcDbEntity
  8
Layer 1
 62
     7
420
 16777215
370
    13
100
AcDbVertex
100
AcDb2dVertex
 10
172.4842357893052
 20
259.4327863256586
 30
0.0
  0
VERTEX
  5
BE
330
90
100
AcDbEntity
  8
Layer 1
 62
     7
420
 16777215
370
    13
100
AcDbVertex
100
AcDb2dVertex
 10
166.4870136947455
 20
259.4327863256586
 30
0.0
  0
VERTEX
  5
BF
330
90
100
AcDbEntity
  8
Layer 1
 62
     7
420
 16777215
370
    13
100
AcDbVertex
100
AcDb2dVertex
 10
166.4870136947455
 20
262.4313974360201
 30
0.0
  0
VERTEX
  5
C0
330
90
100
AcDbEntity
  8
Layer 1
 62
     7
420
 16777215
370
    13
100
AcDbVertex
100
AcDb2dVertex
 10
160.4897913478594
 20
262.4313974360201
 30
0.0
  0
VERTEX
  5
C1
330
90
100
AcDbEntity
  8
Layer 1
 62
     7
420
 16777215
370
    13
100
AcDbVertex
100
AcDb2dVertex
 10
160.4897913478594
 20
259.4327863256586
 30
0.0
  0
VERTEX
  5
C2
330
90
100
AcDbEntity
  8
Layer 1
 62
     7
420
 16777215
370
    13
100
AcDbVertex
100
AcDb2dVertex
 10
153.0109028645624
 20
259.4327863256586
 30
0.0
  0
VERTEX
  5
C3
330
90
100
AcDbEntity
  8
Layer 1
 62
     7
420
 16777215
370
    13
100
AcDbVertex
100
AcDb2dVertex
 10
153.0109028645624
 20
262.4313974360201
 30
0.0
  0
VERTEX
  5
C4
330
90
100
AcDbEntity
  8
Layer 1
 62
     7
420
 16777215
370
    13
100
AcDbVertex
100
AcDb2dVertex
 10
148.4953475792838
 20
262.4313974360201
 30
0.0
  0
VERTEX
  5
C5
330
90
100
AcDbEntity
  8
Layer 1
 62
     7
420
 16777215
370
    13
100
AcDbVertex
100
AcDb2dVertex
 10
148.4953475792838
 20
266.9469486840771
 30
0.0
  0
VERTEX
  5
C6
330
90
100
AcDbEntity
  8
Layer 1
 62
     7
420
 16777215
370
    13
100
AcDbVertex
100
AcDb2dVertex
 10
145.4967364689223
 20
266.9469486840771
 30
0.0
  0
VERTEX
  5
C7
330
90
100
AcDbEntity
  8
Layer 1
 62
     7
420
 16777215
370
    13
100
AcDbVertex
100
AcDb2dVertex
 10
145.4967364689223
 20
274.4258418774659
 30
0.0
  0
VERTEX
  5
C8
330
90
100
AcDbEntity
  8
Layer 1
 62
     7
420
 16777215
370
    13
100
AcDbVertex
100
AcDb2dVertex
 10
148.4953475792838
 20
274.4258418774659
 30
0.0
  0
VERTEX
  5
C9
330
90
100
AcDbEntity
  8
Layer 1
 62
     7
420
 16777215
370
    13
100
AcDbVertex
100
AcDb2dVertex
 10
148.4953475792838
 20
280.4583332632188
 30
0.0
  0
VERTEX
  5
CA
330
90
100
AcDbEntity
  8
Layer 1
 62
     7
420
 16777215
370
    13
100
AcDbVertex
100
AcDb2dVertex
 10
145.4967364689223
 20
280.4583332632188
 30
0.0
  0
VERTEX
  5
CB
330
90
100
AcDbEntity
  8
Layer 1
 62
     7
420
 16777215
370
    13
100
AcDbVertex
100
AcDb2dVertex
 10
145.4967364689223
 20
286.4555554839417
 30
0.0
  0
VERTEX
  5
CC
330
90
100
AcDbEntity
  8
Layer 1
 62
     7
420
 16777215
370
    13
100
AcDbVertex
100
AcDb2dVertex
 10
148.4953475792838
 20
286.4555554839417
 30
0.0
  0
VERTEX
  5
CD
330
90
100
AcDbEntity
  8
Layer 1
 62
     7
420
 16777215
370
    13
100
AcDbVertex
100
AcDb2dVertex
 10
148.4953475792838
 20
292.4527777046646
 30
0.0
  0
VERTEX
  5
CE
330
90
100
AcDbEntity
  8
Layer 1
 62
     7
420
 16777215
370
    13
100
AcDbVertex
100
AcDb2dVertex
 10
145.4967364689223
 20
292.4527777046646
 30
0.0
  0
VERTEX
  5
CF
330
90
100
AcDbEntity
  8
Layer 1
 62
     7
420
 16777215
370
    13
100
AcDbVertex
100
AcDb2dVertex
 10
145.4967364689223
 20
298.4499999253875
 30
0.0
  0
VERTEX
  5
D0
330
90
100
AcDbEntity
  8
Layer 1
 62
     7
420
 16777215
370
    13
100
AcDbVertex
100
AcDb2dVertex
 10
148.4953475792838
 20
298.4499999253875
 30
0.0
  0
VERTEX
  5
D1
330
90
100
AcDbEntity
  8
Layer 1
 62
     7
420
 16777215
370
    13
100
AcDbVertex
100
AcDb2dVertex
 10
148.4953475792838
 20
304.4472221461104
 30
0.0
  0
VERTEX
  5
D2
330
90
100
AcDbEntity
  8
Layer 1
 62
     7
420
 16777215
370
    13
100
AcDbVertex
100
AcDb2dVertex
 10
145.4967364689223
 20
304.4472221461104
 30
0.0
  0
VERTEX
  5
D3
330
90
100
AcDbEntity
  8
Layer 1
 62
     7
420
 16777215
370
    13
100
AcDbVertex
100
AcDb2dVertex
 10
145.4967364689223
 20
311.9261153394989
 30
0.0
  0
VERTEX
  5
D4
330
90
100
AcDbEntity
  8
Layer 1
 62
     7
420
 16777215
370
    13
100
AcDbVertex
100
AcDb2dVertex
 10
148.4953475792838
 20
311.9261153394989
 30
0.0
  0
VERTEX
  5
D5
330
90
100
AcDbEntity
  8
Layer 1
 62
     7
420
 16777215
370
    13
100
AcDbVertex
100
AcDb2dVertex
 10
148.4953475792838
 20
316.4416665875563
 30
0.0
  0
SEQEND
  5
D6
330
90
100
AcDbEntity
  8
Layer 1
 62
     7
420
 16777215
370
    13
  0
ENDBLK
  5
8F
330
8C
100
AcDbEntity
  8
0
100
AcDbBlockEnd
  0
BLOCK
  5
D9
330
D7
100
AcDbEntity
  8
0
100
AcDbBlockBegin
  2
block 4
 70
     0
 10
0.0
 20
0.0
 30
0.0
  3
block 4
  1

  0
POLYLINE
  5
DB
330
D7
100
AcDbEntity
  8
Layer 1
 62
     7
420
 16777215
370
    13
100
AcDb2dPolyline
 66
     1
 10
0.0
 20
0.0
 30
0.0
  0
VERTEX
  5
DC
330
DB
100
AcDbEntity
  8
Layer 1
 62
     7
420
 16777215
370
    13
100
AcDbVertex
100
AcDb2dVertex
 10
213.1712716947202
 20
316.4416665875563
 30
0.0
  0
VERTEX
  5
DD
330
DB
100
AcDbEntity
  8
Layer 1
 62
     7
420
 16777215
370
    13
100
AcDbVertex
100
AcDb2dVertex
 10
217.6868269799987
 20
316.4416665875563
 30
0.0
  0
VERTEX
  5
DE
330
DB
100
AcDbEntity
  8
Layer 1
 62
     7
420
 16777215
370
    13
100
AcDbVertex
100
AcDb2dVertex
 10
217.6868269799987
 20
319.4402776979177
 30
0.0
  0
VERTEX
  5
DF
330
DB
100
AcDbEntity
  8
Layer 1
 62
     7
420
 16777215
370
    13
100
AcDbVertex
100
AcDb2dVertex
 10
225.1657154632958
 20
319.4402776979177
 30
0.0
  0
VERTEX
  5
E0
330
DB
100
AcDbEntity
  8
Layer 1
 62
     7
420
 16777215
370
    13
100
AcDbVertex
100
AcDb2dVertex
 10
225.1657154632958
 20
316.4416665875563
 30
0.0
  0
VERTEX
  5
E1
330
DB
100
AcDbEntity
  8
Layer 1
 62
     7
420
 16777215
370
    13
100
AcDbVertex
100
AcDb2dVertex
 10
231.1629378101819
 20
316.4416665875563
 30
0.0
  0
VERTEX
  5
E2
330
DB
100
AcDbEntity
  8
Layer 1
 62
     7
420
 16777215
370
    13
100
AcDbVertex
100
AcDb2dVertex
 10
231.1629378101819
 20
319.4402776979177
 30
0.0
  0
VERTEX
  5
E3
330
DB
100
AcDbEntity
  8
Layer 1
 62
     7
420
 16777215
370
    13
100
AcDbVertex
100
AcDb2dVertex
 10
237.1601599047416
 20
319.4402776979177
 30
0.0
  0
VERTEX
  5
E4
330
DB
100
AcDbEntity
  8
Layer 1
 62
     7
420
 16777215
370
    13
100
AcDbVertex
100
AcDb2dVertex
 10
237.1601599047416
 20
316.4416665875563
 30
0.0
  0
VERTEX
  5
E5
330
DB
100
AcDbEntity
  8
Layer 1
 62
     7
420
 16777215
370
    13
100
AcDbVertex
100
AcDb2dVertex
 10
243.1573827983347
 20
316.4416665875563
 30
0.0
  0
VERTEX
  5
E6
330
DB
100
AcDbEntity
  8
Layer 1
 62
     7
420
 16777215
370
    13
100
AcDbVertex
100
AcDb2dVertex
 10
243.1573827983347
 20
319.4402776979177
 30
0.0
  0
VERTEX
  5
E7
330
DB
100
AcDbEntity
  8
Layer 1
 62
     7
420
 16777215
370
    13
100
AcDbVertex
100
AcDb2dVertex
 10
249.1546050190577
 20
319.4402776979177
 30
0.0
  0
VERTEX
  5
E8
330
DB
100
AcDbEntity
  8
Layer 1
 62
     7
420
 16777215
370
    13
100
AcDbVertex
100
AcDb2dVertex
 10
249.1546050190577
 20
316.4416665875563
 30
0.0
  0
VERTEX
  5
E9
330
DB
100
AcDbEntity
  8
Layer 1
 62
     7
420
 16777215
370
    13
100
AcDbVertex
100
AcDb2dVertex
 10
255.1871044792534
 20
316.4416665875563
 30
0.0
  0
VERTEX
  5
EA
330
DB
100
AcDbEntity
  8
Layer 1
 62
     7
420
 16777215
370
    13
100
AcDbVertex
100
AcDb2dVertex
 10
255.1871044792534
 20
319.4402776979177
 30
0.0
  0
VERTEX
  5
EB
330
DB
100
AcDbEntity
  8
Layer 1
 62
     7
420
 16777215
370
    13
100
AcDbVertex
100
AcDb2dVertex
 10
262.6659922896802
 20
319.4402776979177
 30
0.0
  0
VERTEX
  5
EC
330
DB
100
AcDbEntity
  8
Layer 1
 62
     7
420
 16777215
370
    13
100
AcDbVertex
100
AcDb2dVertex
 10
262.6659922896802
 20
316.4416665875563
 30
0.0
  0
VERTEX
  5
ED
330
DB
100
AcDbEntity
  8
Layer 1
 62
     7
420
 16777215
370
    13
100
AcDbVertex
100
AcDb2dVertex
 10
267.1815489206992
 20
316.4416665875563
 30
0.0
  0
VERTEX
  5
EE
330
DB
100
AcDbEntity
  8
Layer 1
 62
     7
420
 16777215
370
    13
100
AcDbVertex
100
AcDb2dVertex
 10
267.1815489206992
 20
311.9261153394989
 30
0.0
  0
VERTEX
  5
EF
330
DB
100
AcDbEntity
  8
Layer 1
 62
     7
420
 16777215
370
    13
100
AcDbVertex
100
AcDb2dVertex
 10
270.1801600310607
 20
311.9261153394989
 30
0.0
  0
VERTEX
  5
F0
330
DB
100
AcDbEntity
  8
Layer 1
 62
     7
420
 16777215
370
    13
100
AcDbVertex
100
AcDb2dVertex
 10
270.1801600310607
 20
304.4472221461104
 30
0.0
  0
VERTEX
  5
F1
330
DB
100
AcDbEntity
  8
Layer 1
 62
     7
420
 16777215
370
    13
100
AcDbVertex
100
AcDb2dVertex
 10
267.1815489206992
 20
304.4472221461104
 30
0.0
  0
VERTEX
  5
F2
330
DB
100
AcDbEntity
  8
Layer 1
 62
     7
420
 16777215
370
    13
100
AcDbVertex
100
AcDb2dVertex
 10
267.1815489206992
 20
298.4499999253875
 30
0.0
  0
VERTEX
  5
F3
330
DB
100
AcDbEntity
  8
Layer 1
 62
     7
420
 16777215
370
    13
100
AcDbVertex
100
AcDb2dVertex
 10
270.1801600310607
 20
298.4499999253875
 30
0.0
  0
VERTEX
  5
F4
330
DB
100
AcDbEntity
  8
Layer 1
 62
     7
420
 16777215
370
    13
100
AcDbVertex
100
AcDb2dVertex
 10
270.1801600310607
 20
292.4527777046646
 30
0.0
  0
VERTEX
  5
F5
330
DB
100
AcDbEntity
  8
Layer 1
 62
     7
420
 16777215
370
    13
100
AcDbVertex
100
AcDb2dVertex
 10
267.1815489206992
 20
292.4527777046646
 30
0.0
  0
VERTEX
  5
F6
330
DB
100
AcDbEntity
  8
Layer 1
 62
     7
420
 16777215
370
    13
100
AcDbVertex
100
AcDb2dVertex
 10
267.1815489206992
 20
286.4555554839417
 30
0.0
  0
VERTEX
  5
F7
330
DB
100
AcDbEntity
  8
Layer 1
 62
     7
420
 16777215
370
    13
100
AcDbVertex
100
AcDb2dVertex
 10
270.1801600310607
 20
286.4555554839417
 30
0.0
  0
VERTEX
  5
F8
330
DB
100
AcDbEntity
  8
Layer 1
 62
     7
420
 16777215
370
    13
100
AcDbVertex
100
AcDb2dVertex
 10
270.1801600310607
 20
280.4583332632188
 30
0.0
  0
VERTEX
  5
F9
330
DB
100
AcDbEntity
  8
Layer 1
 62
     7
420
 16777215
370
    13
100
AcDbVertex
100
AcDb2dVertex
 10
267.1815489206992
 20
280.4583332632188
 30
0.0
  0
VERTEX
  5
FA
330
DB
100
AcDbEntity
  8
Layer 1
 62
     7
420
 16777215
370
    13
100
AcDbVertex
100
AcDb2dVertex
 10
267.1815489206992
 20
274.4258418774659
 30
0.0
  0
VERTEX
  5
FB
330
DB
100
AcDbEntity
  8
Layer 1
 62
     7
420
 16777215
370
    13
100
AcDbVertex
100
AcDb2dVertex
 10
270.1801600310607
 20
274.4258418774659
 30
0.0
  0
VERTEX
  5
FC
330
DB
100
AcDbEntity
  8
Layer 1
 62
     7
420
 16777215
370
    13
100
AcDbVertex
100
AcDb2dVertex
 10
270.1801600310607
 20
266.9469486840771
 30
0.0
  0
VERTEX
  5
FD
330
DB
100
AcDbEntity
  8
Layer 1
 62
     7
420
 16777215
370
    13
100
AcDbVertex
100
AcDb2dVertex
 10
267.1815489206992
 20
266.9469486840771
 30
0.0
  0
VERTEX
  5
FE
330
DB
100
AcDbEntity
  8
Layer 1
 62
     7
420
 16777215
370
    13
100
AcDbVertex
100
AcDb2dVertex
 10
267.1815489206992
 20
262.4313974360201
 30
0.0
  0
VERTEX
  5
FF
330
DB
100
AcDbEntity
  8
Layer 1
 62
     7
420
 16777215
370
    13
100
AcDbVertex
100
AcDb2dVertex
 10
262.6659922896802
 20
262.4313974360201
 30
0.0
  0
VERTEX
  5
100
330
DB
100
AcDbEntity
  8
Layer 1
 62
     7
420
 16777215
370
    13
100
AcDbVertex
100
AcDb2dVertex
 10
262.6659922896802
 20
259.4327863256586
 30
0.0
  0
VERTEX
  5
101
330
DB
100
AcDbEntity
  8
Layer 1
 62
     7
420
 16777215
370
    13
100
AcDbVertex
100
AcDb2dVertex
 10
255.1871044792534
 20
259.4327863256586
 30
0.0
  0
VERTEX
  5
102
330
DB
100
AcDbEntity
  8
Layer 1
 62
     7
420
 16777215
370
    13
100
AcDbVertex
100
AcDb2dVertex
 10
255.1871044792534
 20
262.4313974360201
 30
0.0
  0
VERTEX
  5
103
330
DB
100
AcDbEntity
  8
Layer 1
 62
     7
420
 16777215
370
    13
100
AcDbVertex
100
AcDb2dVertex
 10
249.1546050190577
 20
262.4313974360201
 30
0.0
  0
VERTEX
  5
104
330
DB
100
AcDbEntity
  8
Layer 1
 62
     7
420
 16777215
370
    13
100
AcDbVertex
100
AcDb2dVertex
 10
249.1546050190577
 20
259.4327863256586
 30
0.0
  0
VERTEX
  5
105
330
DB
100
AcDbEntity
  8
Layer 1
 62
     7
420
 16777215
370
    13
100
AcDbVertex
100
AcDb2dVertex
 10
243.1573827983347
 20
259.4327863256586
 30
0.0
  0
VERTEX
  5
106
330
DB
100
AcDbEntity
  8
Layer 1
 62
     7
420
 16777215
370
    13
100
AcDbVertex
100
AcDb2dVertex
 10
243.1573827983347
 20
262.4313974360201
 30
0.0
  0
VERTEX
  5
107
330
DB
100
AcDbEntity
  8
Layer 1
 62
     7
420
 16777215
370
    13
100
AcDbVertex
100
AcDb2dVertex
 10
237.1601599047416
 20
262.4313974360201
 30
0.0
  0
VERTEX
  5
108
330
DB
100
AcDbEntity
  8
Layer 1
 62
     7
420
 16777215
370
    13
100
AcDbVertex
100
AcDb2dVertex
 10
237.1601599047416
 20
259.4327863256586
 30
0.0
  0
VERTEX
  5
109
330
DB
100
AcDbEntity
  8
Layer 1
 62
     7
420
 16777215
370
    13
100
AcDbVertex
100
AcDb2dVertex
 10
231.1629378101819
 20
259.4327863256586
 30
0.0
  0
VERTEX
  5
10A
330
DB
100
AcDbEntity
  8
Layer 1
 62
     7
420
 16777215
370
    13
100
AcDbVertex
100
AcDb2dVertex
 10
231.1629378101819
 20
262.4313974360201
 30
0.0
  0
VERTEX
  5
10B
330
DB
100
AcDbEntity
  8
Layer 1
 62
     7
420
 16777215
370
    13
100
AcDbVertex
100
AcDb2dVertex
 10
225.1657154632958
 20
262.4313974360201
 30
0.0
  0
VERTEX
  5
10C
330
DB
100
AcDbEntity
  8
Layer 1
 62
     7
420
 16777215
370
    13
100
AcDbVertex
100
AcDb2dVertex
 10
225.1657154632958
 20
259.4327863256586
 30
0.0
  0
VERTEX
  5
10D
330
DB
100
AcDbEntity
  8
Layer 1
 62
     7
420
 16777215
370
    13
100
AcDbVertex
100
AcDb2dVertex
 10
217.6868269799987
 20
259.4327863256586
 30
0.0
  0
VERTEX
  5
10E
330
DB
100
AcDbEntity
  8
Layer 1
 62
     7
420
 16777215
370
    13
100
AcDbVertex
100
AcDb2dVertex
 10
217.6868269799987
 20
262.4313974360201
 30
0.0
  0
VERTEX
  5
10F
330
DB
100
AcDbEntity
  8
Layer 1
 62
     7
420
 16777215
370
    13
100
AcDbVertex
100
AcDb2dVertex
 10
213.1712716947202
 20
262.4313974360201
 30
0.0
  0
VERTEX
  5
110
330
DB
100
AcDbEntity
  8
Layer 1
 62
     7
420
 16777215
370
    13
100
AcDbVertex
100
AcDb2dVertex
 10
213.1712716947202
 20
266.9469486840771
 30
0.0
  0
VERTEX
  5
111
330
DB
100
AcDbEntity
  8
Layer 1
 62
     7
420
 16777215
370
    13
100
AcDbVertex
100
AcDb2dVertex
 10
210.1726605843587
 20
266.9469486840771
 30
0.0
  0
VERTEX
  5
112
330
DB
100
AcDbEntity
  8
Layer 1
 62
     7
420
 16777215
370
    13
100
AcDbVertex
100
AcDb2dVertex
 10
210.1726605843587
 20
274.4258418774659
 30
0.0
  0
VERTEX
  5
113
330
DB
100
AcDbEntity
  8
Layer 1
 62
     7
420
 16777215
370
    13
100
AcDbVertex
100
AcDb2dVertex
 10
213.1712716947202
 20
274.4258418774659
 30
0.0
  0
VERTEX
  5
114
330
DB
100
AcDbEntity
  8
Layer 1
 62
     7
420
 16777215
370
    13
100
AcDbVertex
100
AcDb2dVertex
 10
213.1712716947202
 20
280.4583332632188
 30
0.0
  0
VERTEX
  5
115
330
DB
100
AcDbEntity
  8
Layer 1
 62
     7
420
 16777215
370
    13
100
AcDbVertex
100
AcDb2dVertex
 10
210.1726605843587
 20
280.4583332632188
 30
0.0
  0
VERTEX
  5
116
330
DB
100
AcDbEntity
  8
Layer 1
 62
     7
420
 16777215
370
    13
100
AcDbVertex
100
AcDb2dVertex
 10
210.1726605843587
 20
286.4555554839417
 30
0.0
  0
VERTEX
  5
117
330
DB
100
AcDbEntity
  8
Layer 1
 62
     7
420
 16777215
370
    13
100
AcDbVertex
100
AcDb2dVertex
 10
213.1712716947202
 20
286.4555554839417
 30
0.0
  0
VERTEX
  5
118
330
DB
100
AcDbEntity
  8
Layer 1
 62
     7
420
 16777215
370
    13
100
AcDbVertex
100
AcDb2dVertex
 10
213.1712716947202
 20
292.4527777046646
 30
0.0
  0
VERTEX
  5
119
330
DB
100
AcDbEntity
  8
Layer 1
 62
     7
420
 16777215
370
    13
100
AcDbVertex
100
AcDb2dVertex
 10
210.1726605843587
 20
292.4527777046646
 30
0.0
  0
VERTEX
  5
11A
330
DB
100
AcDbEntity
  8
Layer 1
 62
     7
420
 16777215
370
    13
100
AcDbVertex
100
AcDb2dVertex
 10
210.1726605843587
 20
298.4499999253875
 30
0.0
  0
VERTEX
  5
11B
330
DB
100
AcDbEntity
  8
Layer 1
 62
     7
420
 16777215
370
    13
100
AcDbVertex
100
AcDb2dVertex
 10
213.1712716947202
 20
298.4499999253875
 30
0.0
  0
VERTEX
  5
11C
330
DB
100
AcDbEntity
  8
Layer 1
 62
     7
420
 16777215
370
    13
100
AcDbVertex
100
AcDb2dVertex
 10
213.1712716947202
 20
304.4472221461104
 30
0.0
  0
VERTEX
  5
11D
330
DB
100
AcDbEntity
  8
Layer 1
 62
     7
420
 16777215
370
    13
100
AcDbVertex
100
AcDb2dVertex
 10
210.1726605843587
 20
304.4472221461104
 30
0.0
  0
VERTEX
  5
11E
330
DB
100
AcDbEntity
  8
Layer 1
 62
     7
420
 16777215
370
    13
100
AcDbVertex
100
AcDb2dVertex
 10
210.1726605843587
 20
311.9261153394989
 30
0.0
  0
VERTEX
  5
11F
330
DB
100
AcDbEntity
  8
Layer 1
 62
     7
420
 16777215
370
    13
100
AcDbVertex
100
AcDb2dVertex
 10
213.1712716947202
 20
311.9261153394989
 30
0.0
  0
VERTEX
  5
120
330
DB
100
AcDbEntity
  8
Layer 1
 62
     7
420
 16777215
370
    13
100
AcDbVertex
100
AcDb2dVertex
 10
213.1712716947202
 20
316.4416665875563
 30
0.0
  0
SEQEND
  5
121
330
DB
100
AcDbEntity
  8
Layer 1
 62
     7
420
 16777215
370
    13
  0
ENDBLK
  5
DA
330
D7
100
AcDbEntity
  8
0
100
AcDbBlockEnd
  0
BLOCK
  5
124
330
122
100
AcDbEntity
  8
0
100
AcDbBlockBegin
  2
block 5
 70
     0
 10
0.0
 20
0.0
 30
0.0
  3
block 5
  1

  0
POLYLINE
  5
126
330
122
100
AcDbEntity
  8
Layer 1
 62
     7
420
 16777215
370
    13
100
AcDb2dPolyline
 66
     1
 10
0.0
 20
0.0
 30
0.0
  0
VERTEX
  5
127
330
126
100
AcDbEntity
  8
Layer 1
 62
     7
420
 16777215
370
    13
100
AcDbVertex
100
AcDb2dVertex
 10
83.70182997412391
 20
251.2953705318366
 30
0.0
  0
VERTEX
  5
128
330
126
100
AcDbEntity
  8
Layer 1
 62
     7
420
 16777215
370
    13
100
AcDbVertex
100
AcDb2dVertex
 10
88.2173852594025
 20
251.2953705318366
 30
0.0
  0
VERTEX
  5
129
330
126
100
AcDbEntity
  8
Layer 1
 62
     7
420
 16777215
370
    13
100
AcDbVertex
100
AcDb2dVertex
 10
88.2173852594025
 20
254.2939816421981
 30
0.0
  0
VERTEX
  5
12A
330
126
100
AcDbEntity
  8
Layer 1
 62
     7
420
 16777215
370
    13
100
AcDbVertex
100
AcDb2dVertex
 10
95.69627374269955
 20
254.2939816421981
 30
0.0
  0
VERTEX
  5
12B
330
126
100
AcDbEntity
  8
Layer 1
 62
     7
420
 16777215
370
    13
100
AcDbVertex
100
AcDb2dVertex
 10
95.69627374269955
 20
251.2953705318366
 30
0.0
  0
VERTEX
  5
12C
330
126
100
AcDbEntity
  8
Layer 1
 62
     7
420
 16777215
370
    13
100
AcDbVertex
100
AcDb2dVertex
 10
101.6934960895856
 20
251.2953705318366
 30
0.0
  0
VERTEX
  5
12D
330
126
100
AcDbEntity
  8
Layer 1
 62
     7
420
 16777215
370
    13
100
AcDbVertex
100
AcDb2dVertex
 10
101.6934960895856
 20
254.2939816421981
 30
0.0
  0
VERTEX
  5
12E
330
126
100
AcDbEntity
  8
Layer 1
 62
     7
420
 16777215
370
    13
100
AcDbVertex
100
AcDb2dVertex
 10
107.6907181841454
 20
254.2939816421981
 30
0.0
  0
VERTEX
  5
12F
330
126
100
AcDbEntity
  8
Layer 1
 62
     7
420
 16777215
370
    13
100
AcDbVertex
100
AcDb2dVertex
 10
107.6907181841454
 20
251.2953705318366
 30
0.0
  0
VERTEX
  5
130
330
126
100
AcDbEntity
  8
Layer 1
 62
     7
420
 16777215
370
    13
100
AcDbVertex
100
AcDb2dVertex
 10
113.6879410777385
 20
251.2953705318366
 30
0.0
  0
VERTEX
  5
131
330
126
100
AcDbEntity
  8
Layer 1
 62
     7
420
 16777215
370
    13
100
AcDbVertex
100
AcDb2dVertex
 10
113.6879410777385
 20
254.2939816421981
 30
0.0
  0
VERTEX
  5
132
330
126
100
AcDbEntity
  8
Layer 1
 62
     7
420
 16777215
370
    13
100
AcDbVertex
100
AcDb2dVertex
 10
119.6851632984614
 20
254.2939816421981
 30
0.0
  0
VERTEX
  5
133
330
126
100
AcDbEntity
  8
Layer 1
 62
     7
420
 16777215
370
    13
100
AcDbVertex
100
AcDb2dVertex
 10
119.6851632984614
 20
251.2953705318366
 30
0.0
  0
VERTEX
  5
134
330
126
100
AcDbEntity
  8
Layer 1
 62
     7
420
 16777215
370
    13
100
AcDbVertex
100
AcDb2dVertex
 10
125.7176627586571
 20
251.2953705318366
 30
0.0
  0
VERTEX
  5
135
330
126
100
AcDbEntity
  8
Layer 1
 62
     7
420
 16777215
370
    13
100
AcDbVertex
100
AcDb2dVertex
 10
125.7176627586571
 20
254.2939816421981
 30
0.0
  0
VERTEX
  5
136
330
126
100
AcDbEntity
  8
Layer 1
 62
     7
420
 16777215
370
    13
100
AcDbVertex
100
AcDb2dVertex
 10
133.1965505690839
 20
254.2939816421981
 30
0.0
  0
VERTEX
  5
137
330
126
100
AcDbEntity
  8
Layer 1
 62
     7
420
 16777215
370
    13
100
AcDbVertex
100
AcDb2dVertex
 10
133.1965505690839
 20
251.2953705318366
 30
0.0
  0
VERTEX
  5
138
330
126
100
AcDbEntity
  8
Layer 1
 62
     7
420
 16777215
370
    13
100
AcDbVertex
100
AcDb2dVertex
 10
137.712107200103
 20
251.2953705318366
 30
0.0
  0
VERTEX
  5
139
330
126
100
AcDbEntity
  8
Layer 1
 62
     7
420
 16777215
370
    13
100
AcDbVertex
100
AcDb2dVertex
 10
137.712107200103
 20
246.7798192837793
 30
0.0
  0
VERTEX
  5
13A
330
126
100
AcDbEntity
  8
Layer 1
 62
     7
420
 16777215
370
    13
100
AcDbVertex
100
AcDb2dVertex
 10
140.7107183104644
 20
246.7798192837793
 30
0.0
  0
VERTEX
  5
13B
330
126
100
AcDbEntity
  8
Layer 1
 62
     7
420
 16777215
370
    13
100
AcDbVertex
100
AcDb2dVertex
 10
140.7107183104644
 20
239.3009260903908
 30
0.0
  0
VERTEX
  5
13C
330
126
100
AcDbEntity
  8
Layer 1
 62
     7
420
 16777215
370
    13
100
AcDbVertex
100
AcDb2dVertex
 10
137.712107200103
 20
239.3009260903908
 30
0.0
  0
VERTEX
  5
13D
330
126
100
AcDbEntity
  8
Layer 1
 62
     7
420
 16777215
370
    13
100
AcDbVertex
100
AcDb2dVertex
 10
137.712107200103
 20
233.3037038696679
 30
0.0
  0
VERTEX
  5
13E
330
126
100
AcDbEntity
  8
Layer 1
 62
     7
420
 16777215
370
    13
100
AcDbVertex
100
AcDb2dVertex
 10
140.7107183104644
 20
233.3037038696679
 30
0.0
  0
VERTEX
  5
13F
330
126
100
AcDbEntity
  8
Layer 1
 62
     7
420
 16777215
370
    13
100
AcDbVertex
100
AcDb2dVertex
 10
140.7107183104644
 20
227.306481648945
 30
0.0
  0
VERTEX
  5
140
330
126
100
AcDbEntity
  8
Layer 1
 62
     7
420
 16777215
370
    13
100
AcDbVertex
100
AcDb2dVertex
 10
137.712107200103
 20
227.306481648945
 30
0.0
  0
VERTEX
  5
141
330
126
100
AcDbEntity
  8
Layer 1
 62
     7
420
 16777215
370
    13
100
AcDbVertex
100
AcDb2dVertex
 10
137.712107200103
 20
221.309259428222
 30
0.0
  0
VERTEX
  5
142
330
126
100
AcDbEntity
  8
Layer 1
 62
     7
420
 16777215
370
    13
100
AcDbVertex
100
AcDb2dVertex
 10
140.7107183104644
 20
221.309259428222
 30
0.0
  0
VERTEX
  5
143
330
126
100
AcDbEntity
  8
Layer 1
 62
     7
420
 16777215
370
    13
100
AcDbVertex
100
AcDb2dVertex
 10
140.7107183104644
 20
215.3120372074991
 30
0.0
  0
VERTEX
  5
144
330
126
100
AcDbEntity
  8
Layer 1
 62
     7
420
 16777215
370
    13
100
AcDbVertex
100
AcDb2dVertex
 10
137.712107200103
 20
215.3120372074991
 30
0.0
  0
VERTEX
  5
145
330
126
100
AcDbEntity
  8
Layer 1
 62
     7
420
 16777215
370
    13
100
AcDbVertex
100
AcDb2dVertex
 10
137.712107200103
 20
209.2795458217463
 30
0.0
  0
VERTEX
  5
146
330
126
100
AcDbEntity
  8
Layer 1
 62
     7
420
 16777215
370
    13
100
AcDbVertex
100
AcDb2dVertex
 10
140.7107183104644
 20
209.2795458217463
 30
0.0
  0
VERTEX
  5
147
330
126
100
AcDbEntity
  8
Layer 1
 62
     7
420
 16777215
370
    13
100
AcDbVertex
100
AcDb2dVertex
 10
140.7107183104644
 20
201.8006526283574
 30
0.0
  0
VERTEX
  5
148
330
126
100
AcDbEntity
  8
Layer 1
 62
     7
420
 16777215
370
    13
100
AcDbVertex
100
AcDb2dVertex
 10
137.712107200103
 20
201.8006526283574
 30
0.0
  0
VERTEX
  5
149
330
126
100
AcDbEntity
  8
Layer 1
 62
     7
420
 16777215
370
    13
100
AcDbVertex
100
AcDb2dVertex
 10
137.712107200103
 20
197.2851013803001
 30
0.0
  0
VERTEX
  5
14A
330
126
100
AcDbEntity
  8
Layer 1
 62
     7
420
 16777215
370
    13
100
AcDbVertex
100
AcDb2dVertex
 10
133.1965505690839
 20
197.2851013803001
 30
0.0
  0
VERTEX
  5
14B
330
126
100
AcDbEntity
  8
Layer 1
 62
     7
420
 16777215
370
    13
100
AcDbVertex
100
AcDb2dVertex
 10
133.1965505690839
 20
194.2864902699387
 30
0.0
  0
VERTEX
  5
14C
330
126
100
AcDbEntity
  8
Layer 1
 62
     7
420
 16777215
370
    13
100
AcDbVertex
100
AcDb2dVertex
 10
125.7176627586571
 20
194.2864902699387
 30
0.0
  0
VERTEX
  5
14D
330
126
100
AcDbEntity
  8
Layer 1
 62
     7
420
 16777215
370
    13
100
AcDbVertex
100
AcDb2dVertex
 10
125.7176627586571
 20
197.2851013803001
 30
0.0
  0
VERTEX
  5
14E
330
126
100
AcDbEntity
  8
Layer 1
 62
     7
420
 16777215
370
    13
100
AcDbVertex
100
AcDb2dVertex
 10
119.6851632984614
 20
197.2851013803001
 30
0.0
  0
VERTEX
  5
14F
330
126
100
AcDbEntity
  8
Layer 1
 62
     7
420
 16777215
370
    13
100
AcDbVertex
100
AcDb2dVertex
 10
119.6851632984614
 20
194.2864902699387
 30
0.0
  0
VERTEX
  5
150
330
126
100
AcDbEntity
  8
Layer 1
 62
     7
420
 16777215
370
    13
100
AcDbVertex
100
AcDb2dVertex
 10
113.6879410777385
 20
194.2864902699387
 30
0.0
  0
VERTEX
  5
151
330
126
100
AcDbEntity
  8
Layer 1
 62
     7
420
 16777215
370
    13
100
AcDbVertex
100
AcDb2dVertex
 10
113.6879410777385
 20
197.2851013803001
 30
0.0
  0
VERTEX
  5
152
330
126
100
AcDbEntity
  8
Layer 1
 62
     7
420
 16777215
370
    13
100
AcDbVertex
100
AcDb2dVertex
 10
107.6907181841454
 20
197.2851013803001
 30
0.0
  0
VERTEX
  5
153
330
126
100
AcDbEntity
  8
Layer 1
 62
     7
420
 16777215
370
    13
100
AcDbVertex
100
AcDb2dVertex
 10
107.6907181841454
 20
194.2864902699387
 30
0.0
  0
VERTEX
  5
154
330
126
100
AcDbEntity
  8
Layer 1
 62
     7
420
 16777215
370
    13
100
AcDbVertex
100
AcDb2dVertex
 10
101.6934960895856
 20
194.2864902699387
 30
0.0
  0
VERTEX
  5
155
330
126
100
AcDbEntity
  8
Layer 1
 62
     7
420
 16777215
370
    13
100
AcDbVertex
100
AcDb2dVertex
 10
101.6934960895856
 20
197.2851013803001
 30
0.0
  0
VERTEX
  5
156
330
126
100
AcDbEntity
  8
Layer 1
 62
     7
420
 16777215
370
    13
100
AcDbVertex
100
AcDb2dVertex
 10
95.69627374269955
 20
197.2851013803001
 30
0.0
  0
VERTEX
  5
157
330
126
100
AcDbEntity
  8
Layer 1
 62
     7
420
 16777215
370
    13
100
AcDbVertex
100
AcDb2dVertex
 10
95.69627374269955
 20
194.2864902699387
 30
0.0
  0
VERTEX
  5
158
330
126
100
AcDbEntity
  8
Layer 1
 62
     7
420
 16777215
370
    13
100
AcDbVertex
100
AcDb2dVertex
 10
88.2173852594025
 20
194.2864902699387
 30
0.0
  0
VERTEX
  5
159
330
126
100
AcDbEntity
  8
Layer 1
 62
     7
420
 16777215
370
    13
100
AcDbVertex
100
AcDb2dVertex
 10
88.2173852594025
 20
197.2851013803001
 30
0.0
  0
VERTEX
  5
15A
330
126
100
AcDbEntity
  8
Layer 1
 62
     7
420
 16777215
370
    13
100
AcDbVertex
100
AcDb2dVertex
 10
83.70182997412391
 20
197.2851013803001
 30
0.0
  0
VERTEX
  5
15B
330
126
100
AcDbEntity
  8
Layer 1
 62
     7
420
 16777215
370
    13
100
AcDbVertex
100
AcDb2dVertex
 10
83.70182997412391
 20
201.8006526283574
 30
0.0
  0
VERTEX
  5
15C
330
126
100
AcDbEntity
  8
Layer 1
 62
     7
420
 16777215
370
    13
100
AcDbVertex
100
AcDb2dVertex
 10
80.70321886376246
 20
201.8006526283574
 30
0.0
  0
VERTEX
  5
15D
330
126
100
AcDbEntity
  8
Layer 1
 62
     7
420
 16777215
370
    13
100
AcDbVertex
100
AcDb2dVertex
 10
80.70321886376246
 20
209.2795458217463
 30
0.0
  0
VERTEX
  5
15E
330
126
100
AcDbEntity
  8
Layer 1
 62
     7
420
 16777215
370
    13
100
AcDbVertex
100
AcDb2dVertex
 10
83.70182997412391
 20
209.2795458217463
 30
0.0
  0
VERTEX
  5
15F
330
126
100
AcDbEntity
  8
Layer 1
 62
     7
420
 16777215
370
    13
100
AcDbVertex
100
AcDb2dVertex
 10
83.70182997412391
 20
215.3120372074991
 30
0.0
  0
VERTEX
  5
160
330
126
100
AcDbEntity
  8
Layer 1
 62
     7
420
 16777215
370
    13
100
AcDbVertex
100
AcDb2dVertex
 10
80.70321886376246
 20
215.3120372074991
 30
0.0
  0
VERTEX
  5
161
330
126
100
AcDbEntity
  8
Layer 1
 62
     7
420
 16777215
370
    13
100
AcDbVertex
100
AcDb2dVertex
 10
80.70321886376246
 20
221.309259428222
 30
0.0
  0
VERTEX
  5
162
330
126
100
AcDbEntity
  8
Layer 1
 62
     7
420
 16777215
370
    13
100
AcDbVertex
100
AcDb2dVertex
 10
83.70182997412391
 20
221.309259428222
 30
0.0
  0
VERTEX
  5
163
330
126
100
AcDbEntity
  8
Layer 1
 62
     7
420
 16777215
370
    13
100
AcDbVertex
100
AcDb2dVertex
 10
83.70182997412391
 20
227.306481648945
 30
0.0
  0
VERTEX
  5
164
330
126
100
AcDbEntity
  8
Layer 1
 62
     7
420
 16777215
370
    13
100
AcDbVertex
100
AcDb2dVertex
 10
80.70321886376246
 20
227.306481648945
 30
0.0
  0
VERTEX
  5
165
330
126
100
AcDbEntity
  8
Layer 1
 62
     7
420
 16777215
370
    13
100
AcDbVertex
100
AcDb2dVertex
 10
80.70321886376246
 20
233.3037038696679
 30
0.0
  0
VERTEX
  5
166
330
126
100
AcDbEntity
  8
Layer 1
 62
     7
420
 16777215
370
    13
100
AcDbVertex
100
AcDb2dVertex
 10
83.70182997412391
 20
233.3037038696679
 30
0.0
  0
VERTEX
  5
167
330
126
100
AcDbEntity
  8
Layer 1
 62
     7
420
 16777215
370
    13
100
AcDbVertex
100
AcDb2dVertex
 10
83.70182997412391
 20
239.3009260903908
 30
0.0
  0
VERTEX
  5
168
330
126
100
AcDbEntity
  8
Layer 1
 62
     7
420
 16777215
370
    13
100
AcDbVertex
100
AcDb2dVertex
 10
80.70321886376246
 20
239.3009260903908
 30
0.0
  0
VERTEX
  5
169
330
126
100
AcDbEntity
  8
Layer 1
 62
     7
420
 16777215
370
    13
100
AcDbVertex
100
AcDb2dVertex
 10
80.70321886376246
 20
246.7798192837793
 30
0.0
  0
VERTEX
  5
16A
330
126
100
AcDbEntity
  8
Layer 1
 62
     7
420
 16777215
370
    13
100
AcDbVertex
100
AcDb2dVertex
 10
83.70182997412391
 20
246.7798192837793
 30
0.0
  0
VERTEX
  5
16B
330
126
100
AcDbEntity
  8
Layer 1
 62
     7
420
 16777215
370
    13
100
AcDbVertex
100
AcDb2dVertex
 10
83.70182997412391
 20
251.2953705318366
 30
0.0
  0
SEQEND
  5
16C
330
126
100
AcDbEntity
  8
Layer 1
 62
     7
420
 16777215
370
    13
  0
ENDBLK
  5
125
330
122
100
AcDbEntity
  8
0
100
AcDbBlockEnd
  0
BLOCK
  5
16F
330
16D
100
AcDbEntity
  8
0
100
AcDbBlockBegin
  2
block 6
 70
     0
 10
0.0
 20
0.0
 30
0.0
  3
block 6
  1

  0
POLYLINE
  5
171
330
16D
100
AcDbEntity
  8
Layer 1
 62
     7
420
 16777215
370
    13
100
AcDb2dPolyline
 66
     1
 10
0.0
 20
0.0
 30
0.0
  0
VERTEX
  5
172
330
171
100
AcDbEntity
  8
Layer 1
 62
     7
420
 16777215
370
    13
100
AcDbVertex
100
AcDb2dVertex
 10
148.6129410690073
 20
251.2953705318366
 30
0.0
  0
VERTEX
  5
173
330
171
100
AcDbEntity
  8
Layer 1
 62
     7
420
 16777215
370
    13
100
AcDbVertex
100
AcDb2dVertex
 10
153.1284963542858
 20
251.2953705318366
 30
0.0
  0
VERTEX
  5
174
330
171
100
AcDbEntity
  8
Layer 1
 62
     7
420
 16777215
370
    13
100
AcDbVertex
100
AcDb2dVertex
 10
153.1284963542858
 20
254.2939816421981
 30
0.0
  0
VERTEX
  5
175
330
171
100
AcDbEntity
  8
Layer 1
 62
     7
420
 16777215
370
    13
100
AcDbVertex
100
AcDb2dVertex
 10
160.6073848375829
 20
254.2939816421981
 30
0.0
  0
VERTEX
  5
176
330
171
100
AcDbEntity
  8
Layer 1
 62
     7
420
 16777215
370
    13
100
AcDbVertex
100
AcDb2dVertex
 10
160.6073848375829
 20
251.2953705318366
 30
0.0
  0
VERTEX
  5
177
330
171
100
AcDbEntity
  8
Layer 1
 62
     7
420
 16777215
370
    13
100
AcDbVertex
100
AcDb2dVertex
 10
166.604607184469
 20
251.2953705318366
 30
0.0
  0
VERTEX
  5
178
330
171
100
AcDbEntity
  8
Layer 1
 62
     7
420
 16777215
370
    13
100
AcDbVertex
100
AcDb2dVertex
 10
166.604607184469
 20
254.2939816421981
 30
0.0
  0
VERTEX
  5
179
330
171
100
AcDbEntity
  8
Layer 1
 62
     7
420
 16777215
370
    13
100
AcDbVertex
100
AcDb2dVertex
 10
172.6018292790287
 20
254.2939816421981
 30
0.0
  0
VERTEX
  5
17A
330
171
100
AcDbEntity
  8
Layer 1
 62
     7
420
 16777215
370
    13
100
AcDbVertex
100
AcDb2dVertex
 10
172.6018292790287
 20
251.2953705318366
 30
0.0
  0
VERTEX
  5
17B
330
171
100
AcDbEntity
  8
Layer 1
 62
     7
420
 16777215
370
    13
100
AcDbVertex
100
AcDb2dVertex
 10
178.5990521726218
 20
251.2953705318366
 30
0.0
  0
VERTEX
  5
17C
330
171
100
AcDbEntity
  8
Layer 1
 62
     7
420
 16777215
370
    13
100
AcDbVertex
100
AcDb2dVertex
 10
178.5990521726218
 20
254.2939816421981
 30
0.0
  0
VERTEX
  5
17D
330
171
100
AcDbEntity
  8
Layer 1
 62
     7
420
 16777215
370
    13
100
AcDbVertex
100
AcDb2dVertex
 10
184.5962743933447
 20
254.2939816421981
 30
0.0
  0
VERTEX
  5
17E
330
171
100
AcDbEntity
  8
Layer 1
 62
     7
420
 16777215
370
    13
100
AcDbVertex
100
AcDb2dVertex
 10
184.5962743933447
 20
251.2953705318366
 30
0.0
  0
VERTEX
  5
17F
330
171
100
AcDbEntity
  8
Layer 1
 62
     7
420
 16777215
370
    13
100
AcDbVertex
100
AcDb2dVertex
 10
190.6287738535405
 20
251.2953705318366
 30
0.0
  0
VERTEX
  5
180
330
171
100
AcDbEntity
  8
Layer 1
 62
     7
420
 16777215
370
    13
100
AcDbVertex
100
AcDb2dVertex
 10
190.6287738535405
 20
254.2939816421981
 30
0.0
  0
VERTEX
  5
181
330
171
100
AcDbEntity
  8
Layer 1
 62
     7
420
 16777215
370
    13
100
AcDbVertex
100
AcDb2dVertex
 10
198.1076616639673
 20
254.2939816421981
 30
0.0
  0
VERTEX
  5
182
330
171
100
AcDbEntity
  8
Layer 1
 62
     7
420
 16777215
370
    13
100
AcDbVertex
100
AcDb2dVertex
 10
198.1076616639673
 20
251.2953705318366
 30
0.0
  0
VERTEX
  5
183
330
171
100
AcDbEntity
  8
Layer 1
 62
     7
420
 16777215
370
    13
100
AcDbVertex
100
AcDb2dVertex
 10
202.6232182949863
 20
251.2953705318366
 30
0.0
  0
VERTEX
  5
184
330
171
100
AcDbEntity
  8
Layer 1
 62
     7
420
 16777215
370
    13
100
AcDbVertex
100
AcDb2dVertex
 10
202.6232182949863
 20
246.7798192837793
 30
0.0
  0
VERTEX
  5
185
330
171
100
AcDbEntity
  8
Layer 1
 62
     7
420
 16777215
370
    13
100
AcDbVertex
100
AcDb2dVertex
 10
205.6218294053477
 20
246.7798192837793
 30
0.0
  0
VERTEX
  5
186
330
171
100
AcDbEntity
  8
Layer 1
 62
     7
420
 16777215
370
    13
100
AcDbVertex
100
AcDb2dVertex
 10
205.6218294053477
 20
239.3009260903908
 30
0.0
  0
VERTEX
  5
187
330
171
100
AcDbEntity
  8
Layer 1
 62
     7
420
 16777215
370
    13
100
AcDbVertex
100
AcDb2dVertex
 10
202.6232182949863
 20
239.3009260903908
 30
0.0
  0
VERTEX
  5
188
330
171
100
AcDbEntity
  8
Layer 1
 62
     7
420
 16777215
370
    13
100
AcDbVertex
100
AcDb2dVertex
 10
202.6232182949863
 20
233.3037038696679
 30
0.0
  0
VERTEX
  5
189
330
171
100
AcDbEntity
  8
Layer 1
 62
     7
420
 16777215
370
    13
100
AcDbVertex
100
AcDb2dVertex
 10
205.6218294053477
 20
233.3037038696679
 30
0.0
  0
VERTEX
  5
18A
330
171
100
AcDbEntity
  8
Layer 1
 62
     7
420
 16777215
370
    13
100
AcDbVertex
100
AcDb2dVertex
 10
205.6218294053477
 20
227.306481648945
 30
0.0
  0
VERTEX
  5
18B
330
171
100
AcDbEntity
  8
Layer 1
 62
     7
420
 16777215
370
    13
100
AcDbVertex
100
AcDb2dVertex
 10
202.6232182949863
 20
227.306481648945
 30
0.0
  0
VERTEX
  5
18C
330
171
100
AcDbEntity
  8
Layer 1
 62
     7
420
 16777215
370
    13
100
AcDbVertex
100
AcDb2dVertex
 10
202.6232182949863
 20
221.309259428222
 30
0.0
  0
VERTEX
  5
18D
330
171
100
AcDbEntity
  8
Layer 1
 62
     7
420
 16777215
370
    13
100
AcDbVertex
100
AcDb2dVertex
 10
205.6218294053477
 20
221.309259428222
 30
0.0
  0
VERTEX
  5
18E
330
171
100
AcDbEntity
  8
Layer 1
 62
     7
420
 16777215
370
    13
100
AcDbVertex
100
AcDb2dVertex
 10
205.6218294053477
 20
215.3120372074991
 30
0.0
  0
VERTEX
  5
18F
330
171
100
AcDbEntity
  8
Layer 1
 62
     7
420
 16777215
370
    13
100
AcDbVertex
100
AcDb2dVertex
 10
202.6232182949863
 20
215.3120372074991
 30
0.0
  0
VERTEX
  5
190
330
171
100
AcDbEntity
  8
Layer 1
 62
     7
420
 16777215
370
    13
100
AcDbVertex
100
AcDb2dVertex
 10
202.6232182949863
 20
209.2795458217463
 30
0.0
  0
VERTEX
  5
191
330
171
100
AcDbEntity
  8
Layer 1
 62
     7
420
 16777215
370
    13
100
AcDbVertex
100
AcDb2dVertex
 10
205.6218294053477
 20
209.2795458217463
 30
0.0
  0
VERTEX
  5
192
330
171
100
AcDbEntity
  8
Layer 1
 62
     7
420
 16777215
370
    13
100
AcDbVertex
100
AcDb2dVertex
 10
205.6218294053477
 20
201.8006526283574
 30
0.0
  0
VERTEX
  5
193
330
171
100
AcDbEntity
  8
Layer 1
 62
     7
420
 16777215
370
    13
100
AcDbVertex
100
AcDb2dVertex
 10
202.6232182949863
 20
201.8006526283574
 30
0.0
  0
VERTEX
  5
194
330
171
100
AcDbEntity
  8
Layer 1
 62
     7
420
 16777215
370
    13
100
AcDbVertex
100
AcDb2dVertex
 10
202.6232182949863
 20
197.2851013803001
 30
0.0
  0
VERTEX
  5
195
330
171
100
AcDbEntity
  8
Layer 1
 62
     7
420
 16777215
370
    13
100
AcDbVertex
100
AcDb2dVertex
 10
198.1076616639673
 20
197.2851013803001
 30
0.0
  0
VERTEX
  5
196
330
171
100
AcDbEntity
  8
Layer 1
 62
     7
420
 16777215
370
    13
100
AcDbVertex
100
AcDb2dVertex
 10
198.1076616639673
 20
194.2864902699387
 30
0.0
  0
VERTEX
  5
197
330
171
100
AcDbEntity
  8
Layer 1
 62
     7
420
 16777215
370
    13
100
AcDbVertex
100
AcDb2dVertex
 10
190.6287738535405
 20
194.2864902699387
 30
0.0
  0
VERTEX
  5
198
330
171
100
AcDbEntity
  8
Layer 1
 62
     7
420
 16777215
370
    13
100
AcDbVertex
100
AcDb2dVertex
 10
190.6287738535405
 20
197.2851013803001
 30
0.0
  0
VERTEX
  5
199
330
171
100
AcDbEntity
  8
Layer 1
 62
     7
420
 16777215
370
    13
100
AcDbVertex
100
AcDb2dVertex
 10
184.5962743933447
 20
197.2851013803001
 30
0.0
  0
VERTEX
  5
19A
330
171
100
AcDbEntity
  8
Layer 1
 62
     7
420
 16777215
370
    13
100
AcDbVertex
100
AcDb2dVertex
 10
184.5962743933447
 20
194.2864902699387
 30
0.0
  0
VERTEX
  5
19B
330
171
100
AcDbEntity
  8
Layer 1
 62
     7
420
 16777215
370
    13
100
AcDbVertex
100
AcDb2dVertex
 10
178.5990521726218
 20
194.2864902699387
 30
0.0
  0
VERTEX
  5
19C
330
171
100
AcDbEntity
  8
Layer 1
 62
     7
420
 16777215
370
    13
100
AcDbVertex
100
AcDb2dVertex
 10
178.5990521726218
 20
197.2851013803001
 30
0.0
  0
VERTEX
  5
19D
330
171
100
AcDbEntity
  8
Layer 1
 62
     7
420
 16777215
370
    13
100
AcDbVertex
100
AcDb2dVertex
 10
172.6018292790287
 20
197.2851013803001
 30
0.0
  0
VERTEX
  5
19E
330
171
100
AcDbEntity
  8
Layer 1
 62
     7
420
 16777215
370
    13
100
AcDbVertex
100
AcDb2dVertex
 10
172.6018292790287
 20
194.2864902699387
 30
0.0
  0
VERTEX
  5
19F
330
171
100
AcDbEntity
  8
Layer 1
 62
     7
420
 16777215
370
    13
100
AcDbVertex
100
AcDb2dVertex
 10
166.604607184469
 20
194.2864902699387
 30
0.0
  0
VERTEX
  5
1A0
330
171
100
AcDbEntity
  8
Layer 1
 62
     7
420
 16777215
370
    13
100
AcDbVertex
100
AcDb2dVertex
 10
166.604607184469
 20
197.2851013803001
 30
0.0
  0
VERTEX
  5
1A1
330
171
100
AcDbEntity
  8
Layer 1
 62
     7
420
 16777215
370
    13
100
AcDbVertex
100
AcDb2dVertex
 10
160.6073848375829
 20
197.2851013803001
 30
0.0
  0
VERTEX
  5
1A2
330
171
100
AcDbEntity
  8
Layer 1
 62
     7
420
 16777215
370
    13
100
AcDbVertex
100
AcDb2dVertex
 10
160.6073848375829
 20
194.2864902699387
 30
0.0
  0
VERTEX
  5
1A3
330
171
100
AcDbEntity
  8
Layer 1
 62
     7
420
 16777215
370
    13
100
AcDbVertex
100
AcDb2dVertex
 10
153.1284963542858
 20
194.2864902699387
 30
0.0
  0
VERTEX
  5
1A4
330
171
100
AcDbEntity
  8
Layer 1
 62
     7
420
 16777215
370
    13
100
AcDbVertex
100
AcDb2dVertex
 10
153.1284963542858
 20
197.2851013803001
 30
0.0
  0
VERTEX
  5
1A5
330
171
100
AcDbEntity
  8
Layer 1
 62
     7
420
 16777215
370
    13
100
AcDbVertex
100
AcDb2dVertex
 10
148.6129410690073
 20
197.2851013803001
 30
0.0
  0
VERTEX
  5
1A6
330
171
100
AcDbEntity
  8
Layer 1
 62
     7
420
 16777215
370
    13
100
AcDbVertex
100
AcDb2dVertex
 10
148.6129410690073
 20
201.8006526283574
 30
0.0
  0
VERTEX
  5
1A7
330
171
100
AcDbEntity
  8
Layer 1
 62
     7
420
 16777215
370
    13
100
AcDbVertex
100
AcDb2dVertex
 10
145.6143299586458
 20
201.8006526283574
 30
0.0
  0
VERTEX
  5
1A8
330
171
100
AcDbEntity
  8
Layer 1
 62
     7
420
 16777215
370
    13
100
AcDbVertex
100
AcDb2dVertex
 10
145.6143299586458
 20
209.2795458217463
 30
0.0
  0
VERTEX
  5
1A9
330
171
100
AcDbEntity
  8
Layer 1
 62
     7
420
 16777215
370
    13
100
AcDbVertex
100
AcDb2dVertex
 10
148.6129410690073
 20
209.2795458217463
 30
0.0
  0
VERTEX
  5
1AA
330
171
100
AcDbEntity
  8
Layer 1
 62
     7
420
 16777215
370
    13
100
AcDbVertex
100
AcDb2dVertex
 10
148.6129410690073
 20
215.3120372074991
 30
0.0
  0
VERTEX
  5
1AB
330
171
100
AcDbEntity
  8
Layer 1
 62
     7
420
 16777215
370
    13
100
AcDbVertex
100
AcDb2dVertex
 10
145.6143299586458
 20
215.3120372074991
 30
0.0
  0
VERTEX
  5
1AC
330
171
100
AcDbEntity
  8
Layer 1
 62
     7
420
 16777215
370
    13
100
AcDbVertex
100
AcDb2dVertex
 10
145.6143299586458
 20
221.309259428222
 30
0.0
  0
VERTEX
  5
1AD
330
171
100
AcDbEntity
  8
Layer 1
 62
     7
420
 16777215
370
    13
100
AcDbVertex
100
AcDb2dVertex
 10
148.6129410690073
 20
221.309259428222
 30
0.0
  0
VERTEX
  5
1AE
330
171
100
AcDbEntity
  8
Layer 1
 62
     7
420
 16777215
370
    13
100
AcDbVertex
100
AcDb2dVertex
 10
148.6129410690073
 20
227.306481648945
 30
0.0
  0
VERTEX
  5
1AF
330
171
100
AcDbEntity
  8
Layer 1
 62
     7
420
 16777215
370
    13
100
AcDbVertex
100
AcDb2dVertex
 10
145.6143299586458
 20
227.306481648945
 30
0.0
  0
VERTEX
  5
1B0
330
171
100
AcDbEntity
  8
Layer 1
 62
     7
420
 16777215
370
    13
100
AcDbVertex
100
AcDb2dVertex
 10
145.6143299586458
 20
233.3037038696679
 30
0.0
  0
VERTEX
  5
1B1
330
171
100
AcDbEntity
  8
Layer 1
 62
     7
420
 16777215
370
    13
100
AcDbVertex
100
AcDb2dVertex
 10
148.6129410690073
 20
233.3037038696679
 30
0.0
  0
VERTEX
  5
1B2
330
171
100
AcDbEntity
  8
Layer 1
 62
     7
420
 16777215
370
    13
100
AcDbVertex
100
AcDb2dVertex
 10
148.6129410690073
 20
239.3009260903908
 30
0.0
  0
VERTEX
  5
1B3
330
171
100
AcDbEntity
  8
Layer 1
 62
     7
420
 16777215
370
    13
100
AcDbVertex
100
AcDb2dVertex
 10
145.6143299586458
 20
239.3009260903908
 30
0.0
  0
VERTEX
  5
1B4
330
171
100
AcDbEntity
  8
Layer 1
 62
     7
420
 16777215
370
    13
100
AcDbVertex
100
AcDb2dVertex
 10
145.6143299586458
 20
246.7798192837793
 30
0.0
  0
VERTEX
  5
1B5
330
171
100
AcDbEntity
  8
Layer 1
 62
     7
420
 16777215
370
    13
100
AcDbVertex
100
AcDb2dVertex
 10
148.6129410690073
 20
246.7798192837793
 30
0.0
  0
VERTEX
  5
1B6
330
171
100
AcDbEntity
  8
Layer 1
 62
     7
420
 16777215
370
    13
100
AcDbVertex
100
AcDb2dVertex
 10
148.6129410690073
 20
251.2953705318366
 30
0.0
  0
SEQEND
  5
1B7
330
171
100
AcDbEntity
  8
Layer 1
 62
     7
420
 16777215
370
    13
  0
ENDBLK
  5
170
330
16D
100
AcDbEntity
  8
0
100
AcDbBlockEnd
  0
BLOCK
  5
1BA
330
1B8
100
AcDbEntity
  8
0
100
AcDbBlockBegin
  2
block 7
 70
     0
 10
0.0
 20
0.0
 30
0.0
  3
block 7
  1

  0
POLYLINE
  5
1BC
330
1B8
100
AcDbEntity
  8
Layer 1
 62
     7
420
 16777215
370
    13
100
AcDb2dPolyline
 66
     1
 10
0.0
 20
0.0
 30
0.0
  0
VERTEX
  5
1BD
330
1BC
100
AcDbEntity
  8
Layer 1
 62
     7
420
 16777215
370
    13
100
AcDbVertex
100
AcDb2dVertex
 10
213.2888651844436
 20
251.2953705318366
 30
0.0
  0
VERTEX
  5
1BE
330
1BC
100
AcDbEntity
  8
Layer 1
 62
     7
420
 16777215
370
    13
100
AcDbVertex
100
AcDb2dVertex
 10
217.8044204697222
 20
251.2953705318366
 30
0.0
  0
VERTEX
  5
1BF
330
1BC
100
AcDbEntity
  8
Layer 1
 62
     7
420
 16777215
370
    13
100
AcDbVertex
100
AcDb2dVertex
 10
217.8044204697222
 20
254.2939816421981
 30
0.0
  0
VERTEX
  5
1C0
330
1BC
100
AcDbEntity
  8
Layer 1
 62
     7
420
 16777215
370
    13
100
AcDbVertex
100
AcDb2dVertex
 10
225.2833089530193
 20
254.2939816421981
 30
0.0
  0
VERTEX
  5
1C1
330
1BC
100
AcDbEntity
  8
Layer 1
 62
     7
420
 16777215
370
    13
100
AcDbVertex
100
AcDb2dVertex
 10
225.2833089530193
 20
251.2953705318366
 30
0.0
  0
VERTEX
  5
1C2
330
1BC
100
AcDbEntity
  8
Layer 1
 62
     7
420
 16777215
370
    13
100
AcDbVertex
100
AcDb2dVertex
 10
231.2805312999053
 20
251.2953705318366
 30
0.0
  0
VERTEX
  5
1C3
330
1BC
100
AcDbEntity
  8
Layer 1
 62
     7
420
 16777215
370
    13
100
AcDbVertex
100
AcDb2dVertex
 10
231.2805312999053
 20
254.2939816421981
 30
0.0
  0
VERTEX
  5
1C4
330
1BC
100
AcDbEntity
  8
Layer 1
 62
     7
420
 16777215
370
    13
100
AcDbVertex
100
AcDb2dVertex
 10
237.2777533944651
 20
254.2939816421981
 30
0.0
  0
VERTEX
  5
1C5
330
1BC
100
AcDbEntity
  8
Layer 1
 62
     7
420
 16777215
370
    13
100
AcDbVertex
100
AcDb2dVertex
 10
237.2777533944651
 20
251.2953705318366
 30
0.0
  0
VERTEX
  5
1C6
330
1BC
100
AcDbEntity
  8
Layer 1
 62
     7
420
 16777215
370
    13
100
AcDbVertex
100
AcDb2dVertex
 10
243.2749762880582
 20
251.2953705318366
 30
0.0
  0
VERTEX
  5
1C7
330
1BC
100
AcDbEntity
  8
Layer 1
 62
     7
420
 16777215
370
    13
100
AcDbVertex
100
AcDb2dVertex
 10
243.2749762880582
 20
254.2939816421981
 30
0.0
  0
VERTEX
  5
1C8
330
1BC
100
AcDbEntity
  8
Layer 1
 62
     7
420
 16777215
370
    13
100
AcDbVertex
100
AcDb2dVertex
 10
249.2721985087811
 20
254.2939816421981
 30
0.0
  0
VERTEX
  5
1C9
330
1BC
100
AcDbEntity
  8
Layer 1
 62
     7
420
 16777215
370
    13
100
AcDbVertex
100
AcDb2dVertex
 10
249.2721985087811
 20
251.2953705318366
 30
0.0
  0
VERTEX
  5
1CA
330
1BC
100
AcDbEntity
  8
Layer 1
 62
     7
420
 16777215
370
    13
100
AcDbVertex
100
AcDb2dVertex
 10
255.3046979689769
 20
251.2953705318366
 30
0.0
  0
VERTEX
  5
1CB
330
1BC
100
AcDbEntity
  8
Layer 1
 62
     7
420
 16777215
370
    13
100
AcDbVertex
100
AcDb2dVertex
 10
255.3046979689769
 20
254.2939816421981
 30
0.0
  0
VERTEX
  5
1CC
330
1BC
100
AcDbEntity
  8
Layer 1
 62
     7
420
 16777215
370
    13
100
AcDbVertex
100
AcDb2dVertex
 10
262.7835857794037
 20
254.2939816421981
 30
0.0
  0
VERTEX
  5
1CD
330
1BC
100
AcDbEntity
  8
Layer 1
 62
     7
420
 16777215
370
    13
100
AcDbVertex
100
AcDb2dVertex
 10
262.7835857794037
 20
251.2953705318366
 30
0.0
  0
VERTEX
  5
1CE
330
1BC
100
AcDbEntity
  8
Layer 1
 62
     7
420
 16777215
370
    13
100
AcDbVertex
100
AcDb2dVertex
 10
267.2991424104227
 20
251.2953705318366
 30
0.0
  0
VERTEX
  5
1CF
330
1BC
100
AcDbEntity
  8
Layer 1
 62
     7
420
 16777215
370
    13
100
AcDbVertex
100
AcDb2dVertex
 10
267.2991424104227
 20
246.7798192837793
 30
0.0
  0
VERTEX
  5
1D0
330
1BC
100
AcDbEntity
  8
Layer 1
 62
     7
420
 16777215
370
    13
100
AcDbVertex
100
AcDb2dVertex
 10
270.2977535207841
 20
246.7798192837793
 30
0.0
  0
VERTEX
  5
1D1
330
1BC
100
AcDbEntity
  8
Layer 1
 62
     7
420
 16777215
370
    13
100
AcDbVertex
100
AcDb2dVertex
 10
270.2977535207841
 20
239.3009260903908
 30
0.0
  0
VERTEX
  5
1D2
330
1BC
100
AcDbEntity
  8
Layer 1
 62
     7
420
 16777215
370
    13
100
AcDbVertex
100
AcDb2dVertex
 10
267.2991424104227
 20
239.3009260903908
 30
0.0
  0
VERTEX
  5
1D3
330
1BC
100
AcDbEntity
  8
Layer 1
 62
     7
420
 16777215
370
    13
100
AcDbVertex
100
AcDb2dVertex
 10
267.2991424104227
 20
233.3037038696679
 30
0.0
  0
VERTEX
  5
1D4
330
1BC
100
AcDbEntity
  8
Layer 1
 62
     7
420
 16777215
370
    13
100
AcDbVertex
100
AcDb2dVertex
 10
270.2977535207841
 20
233.3037038696679
 30
0.0
  0
VERTEX
  5
1D5
330
1BC
100
AcDbEntity
  8
Layer 1
 62
     7
420
 16777215
370
    13
100
AcDbVertex
100
AcDb2dVertex
 10
270.2977535207841
 20
227.306481648945
 30
0.0
  0
VERTEX
  5
1D6
330
1BC
100
AcDbEntity
  8
Layer 1
 62
     7
420
 16777215
370
    13
100
AcDbVertex
100
AcDb2dVertex
 10
267.2991424104227
 20
227.306481648945
 30
0.0
  0
VERTEX
  5
1D7
330
1BC
100
AcDbEntity
  8
Layer 1
 62
     7
420
 16777215
370
    13
100
AcDbVertex
100
AcDb2dVertex
 10
267.2991424104227
 20
221.309259428222
 30
0.0
  0
VERTEX
  5
1D8
330
1BC
100
AcDbEntity
  8
Layer 1
 62
     7
420
 16777215
370
    13
100
AcDbVertex
100
AcDb2dVertex
 10
270.2977535207841
 20
221.309259428222
 30
0.0
  0
VERTEX
  5
1D9
330
1BC
100
AcDbEntity
  8
Layer 1
 62
     7
420
 16777215
370
    13
100
AcDbVertex
100
AcDb2dVertex
 10
270.2977535207841
 20
215.3120372074991
 30
0.0
  0
VERTEX
  5
1DA
330
1BC
100
AcDbEntity
  8
Layer 1
 62
     7
420
 16777215
370
    13
100
AcDbVertex
100
AcDb2dVertex
 10
267.2991424104227
 20
215.3120372074991
 30
0.0
  0
VERTEX
  5
1DB
330
1BC
100
AcDbEntity
  8
Layer 1
 62
     7
420
 16777215
370
    13
100
AcDbVertex
100
AcDb2dVertex
 10
267.2991424104227
 20
209.2795458217463
 30
0.0
  0
VERTEX
  5
1DC
330
1BC
100
AcDbEntity
  8
Layer 1
 62
     7
420
 16777215
370
    13
100
AcDbVertex
100
AcDb2dVertex
 10
270.2977535207841
 20
209.2795458217463
 30
0.0
  0
VERTEX
  5
1DD
330
1BC
100
AcDbEntity
  8
Layer 1
 62
     7
420
 16777215
370
    13
100
AcDbVertex
100
AcDb2dVertex
 10
270.2977535207841
 20
201.8006526283574
 30
0.0
  0
VERTEX
  5
1DE
330
1BC
100
AcDbEntity
  8
Layer 1
 62
     7
420
 16777215
370
    13
100
AcDbVertex
100
AcDb2dVertex
 10
267.2991424104227
 20
201.8006526283574
 30
0.0
  0
VERTEX
  5
1DF
330
1BC
100
AcDbEntity
  8
Layer 1
 62
     7
420
 16777215
370
    13
100
AcDbVertex
100
AcDb2dVertex
 10
267.2991424104227
 20
197.2851013803001
 30
0.0
  0
VERTEX
  5
1E0
330
1BC
100
AcDbEntity
  8
Layer 1
 62
     7
420
 16777215
370
    13
100
AcDbVertex
100
AcDb2dVertex
 10
262.7835857794037
 20
197.2851013803001
 30
0.0
  0
VERTEX
  5
1E1
330
1BC
100
AcDbEntity
  8
Layer 1
 62
     7
420
 16777215
370
    13
100
AcDbVertex
100
AcDb2dVertex
 10
262.7835857794037
 20
194.2864902699387
 30
0.0
  0
VERTEX
  5
1E2
330
1BC
100
AcDbEntity
  8
Layer 1
 62
     7
420
 16777215
370
    13
100
AcDbVertex
100
AcDb2dVertex
 10
255.3046979689769
 20
194.2864902699387
 30
0.0
  0
VERTEX
  5
1E3
330
1BC
100
AcDbEntity
  8
Layer 1
 62
     7
420
 16777215
370
    13
100
AcDbVertex
100
AcDb2dVertex
 10
255.3046979689769
 20
197.2851013803001
 30
0.0
  0
VERTEX
  5
1E4
330
1BC
100
AcDbEntity
  8
Layer 1
 62
     7
420
 16777215
370
    13
100
AcDbVertex
100
AcDb2dVertex
 10
249.2721985087811
 20
197.2851013803001
 30
0.0
  0
VERTEX
  5
1E5
330
1BC
100
AcDbEntity
  8
Layer 1
 62
     7
420
 16777215
370
    13
100
AcDbVertex
100
AcDb2dVertex
 10
249.2721985087811
 20
194.2864902699387
 30
0.0
  0
VERTEX
  5
1E6
330
1BC
100
AcDbEntity
  8
Layer 1
 62
     7
420
 16777215
370
    13
100
AcDbVertex
100
AcDb2dVertex
 10
243.2749762880582
 20
194.2864902699387
 30
0.0
  0
VERTEX
  5
1E7
330
1BC
100
AcDbEntity
  8
Layer 1
 62
     7
420
 16777215
370
    13
100
AcDbVertex
100
AcDb2dVertex
 10
243.2749762880582
 20
197.2851013803001
 30
0.0
  0
VERTEX
  5
1E8
330
1BC
100
AcDbEntity
  8
Layer 1
 62
     7
420
 16777215
370
    13
100
AcDbVertex
100
AcDb2dVertex
 10
237.2777533944651
 20
197.2851013803001
 30
0.0
  0
VERTEX
  5
1E9
330
1BC
100
AcDbEntity
  8
Layer 1
 62
     7
420
 16777215
370
    13
100
AcDbVertex
100
AcDb2dVertex
 10
237.2777533944651
 20
194.2864902699387
 30
0.0
  0
VERTEX
  5
1EA
330
1BC
100
AcDbEntity
  8
Layer 1
 62
     7
420
 16777215
370
    13
100
AcDbVertex
100
AcDb2dVertex
 10
231.2805312999053
 20
194.2864902699387
 30
0.0
  0
VERTEX
  5
1EB
330
1BC
100
AcDbEntity
  8
Layer 1
 62
     7
420
 16777215
370
    13
100
AcDbVertex
100
AcDb2dVertex
 10
231.2805312999053
 20
197.2851013803001
 30
0.0
  0
VERTEX
  5
1EC
330
1BC
100
AcDbEntity
  8
Layer 1
 62
     7
420
 16777215
370
    13
100
AcDbVertex
100
AcDb2dVertex
 10
225.2833089530193
 20
197.2851013803001
 30
0.0
  0
VERTEX
  5
1ED
330
1BC
100
AcDbEntity
  8
Layer 1
 62
     7
420
 16777215
370
    13
100
AcDbVertex
100
AcDb2dVertex
 10
225.2833089530193
 20
194.2864902699387
 30
0.0
  0
VERTEX
  5
1EE
330
1BC
100
AcDbEntity
  8
Layer 1
 62
     7
420
 16777215
370
    13
100
AcDbVertex
100
AcDb2dVertex
 10
217.8044204697222
 20
194.2864902699387
 30
0.0
  0
VERTEX
  5
1EF
330
1BC
100
AcDbEntity
  8
Layer 1
 62
     7
420
 16777215
370
    13
100
AcDbVertex
100
AcDb2dVertex
 10
217.8044204697222
 20
197.2851013803001
 30
0.0
  0
VERTEX
  5
1F0
330
1BC
100
AcDbEntity
  8
Layer 1
 62
     7
420
 16777215
370
    13
100
AcDbVertex
100
AcDb2dVertex
 10
213.2888651844436
 20
197.2851013803001
 30
0.0
  0
VERTEX
  5
1F1
330
1BC
100
AcDbEntity
  8
Layer 1
 62
     7
420
 16777215
370
    13
100
AcDbVertex
100
AcDb2dVertex
 10
213.2888651844436
 20
201.8006526283574
 30
0.0
  0
VERTEX
  5
1F2
330
1BC
100
AcDbEntity
  8
Layer 1
 62
     7
420
 16777215
370
    13
100
AcDbVertex
100
AcDb2dVertex
 10
210.2902540740822
 20
201.8006526283574
 30
0.0
  0
VERTEX
  5
1F3
330
1BC
100
AcDbEntity
  8
Layer 1
 62
     7
420
 16777215
370
    13
100
AcDbVertex
100
AcDb2dVertex
 10
210.2902540740822
 20
209.2795458217463
 30
0.0
  0
VERTEX
  5
1F4
330
1BC
100
AcDbEntity
  8
Layer 1
 62
     7
420
 16777215
370
    13
100
AcDbVertex
100
AcDb2dVertex
 10
213.2888651844436
 20
209.2795458217463
 30
0.0
  0
VERTEX
  5
1F5
330
1BC
100
AcDbEntity
  8
Layer 1
 62
     7
420
 16777215
370
    13
100
AcDbVertex
100
AcDb2dVertex
 10
213.2888651844436
 20
215.3120372074991
 30
0.0
  0
VERTEX
  5
1F6
330
1BC
100
AcDbEntity
  8
Layer 1
 62
     7
420
 16777215
370
    13
100
AcDbVertex
100
AcDb2dVertex
 10
210.2902540740822
 20
215.3120372074991
 30
0.0
  0
VERTEX
  5
1F7
330
1BC
100
AcDbEntity
  8
Layer 1
 62
     7
420
 16777215
370
    13
100
AcDbVertex
100
AcDb2dVertex
 10
210.2902540740822
 20
221.309259428222
 30
0.0
  0
VERTEX
  5
1F8
330
1BC
100
AcDbEntity
  8
Layer 1
 62
     7
420
 16777215
370
    13
100
AcDbVertex
100
AcDb2dVertex
 10
213.2888651844436
 20
221.309259428222
 30
0.0
  0
VERTEX
  5
1F9
330
1BC
100
AcDbEntity
  8
Layer 1
 62
     7
420
 16777215
370
    13
100
AcDbVertex
100
AcDb2dVertex
 10
213.2888651844436
 20
227.306481648945
 30
0.0
  0
VERTEX
  5
1FA
330
1BC
100
AcDbEntity
  8
Layer 1
 62
     7
420
 16777215
370
    13
100
AcDbVertex
100
AcDb2dVertex
 10
210.2902540740822
 20
227.306481648945
 30
0.0
  0
VERTEX
  5
1FB
330
1BC
100
AcDbEntity
  8
Layer 1
 62
     7
420
 16777215
370
    13
100
AcDbVertex
100
AcDb2dVertex
 10
210.2902540740822
 20
233.3037038696679
 30
0.0
  0
VERTEX
  5
1FC
330
1BC
100
AcDbEntity
  8
Layer 1
 62
     7
420
 16777215
370
    13
100
AcDbVertex
100
AcDb2dVertex
 10
213.2888651844436
 20
233.3037038696679
 30
0.0
  0
VERTEX
  5
1FD
330
1BC
100
AcDbEntity
  8
Layer 1
 62
     7
420
 16777215
370
    13
100
AcDbVertex
100
AcDb2dVertex
 10
213.2888651844436
 20
239.3009260903908
 30
0.0
  0
VERTEX
  5
1FE
330
1BC
100
AcDbEntity
  8
Layer 1
 62
     7
420
 16777215
370
    13
100
AcDbVertex
100
AcDb2dVertex
 10
210.2902540740822
 20
239.3009260903908
 30
0.0
  0
VERTEX
  5
1FF
330
1BC
100
AcDbEntity
  8
Layer 1
 62
     7
420
 16777215
370
    13
100
AcDbVertex
100
AcDb2dVertex
 10
210.2902540740822
 20
246.7798192837793
 30
0.0
  0
VERTEX
  5
200
330
1BC
100
AcDbEntity
  8
Layer 1
 62
     7
420
 16777215
370
    13
100
AcDbVertex
100
AcDb2dVertex
 10
213.2888651844436
 20
246.7798192837793
 30
0.0
  0
VERTEX
  5
201
330
1BC
100
AcDbEntity
  8
Layer 1
 62
     7
420
 16777215
370
    13
100
AcDbVertex
100
AcDb2dVertex
 10
213.2888651844436
 20
251.2953705318366
 30
0.0
  0
SEQEND
  5
202
330
1BC
100
AcDbEntity
  8
Layer 1
 62
     7
420
 16777215
370
    13
  0
ENDBLK
  5
1BB
330
1B8
100
AcDbEntity
  8
0
100
AcDbBlockEnd
  0
BLOCK
  5
205
330
203
100
AcDbEntity
  8
0
100
AcDbBlockBegin
  2
block 8
 70
     0
 10
0.0
 20
0.0
 30
0.0
  3
block 8
  1

  0
POLYLINE
  5
207
330
203
100
AcDbEntity
  8
Layer 1
 62
     7
420
 16777215
370
    13
100
AcDb2dPolyline
 66
     1
 10
0.0
 20
0.0
 30
0.0
  0
VERTEX
  5
208
330
207
100
AcDbEntity
  8
Layer 1
 62
     7
420
 16777215
370
    13
100
AcDbVertex
100
AcDb2dVertex
 10
85.6421081929877
 20
186.7958339595046
 30
0.0
  0
VERTEX
  5
209
330
207
100
AcDbEntity
  8
Layer 1
 62
     7
420
 16777215
370
    13
100
AcDbVertex
100
AcDb2dVertex
 10
90.15766347826629
 20
186.7958339595046
 30
0.0
  0
VERTEX
  5
20A
330
207
100
AcDbEntity
  8
Layer 1
 62
     7
420
 16777215
370
    13
100
AcDbVertex
100
AcDb2dVertex
 10
90.15766347826629
 20
189.794445069866
 30
0.0
  0
VERTEX
  5
20B
330
207
100
AcDbEntity
  8
Layer 1
 62
     7
420
 16777215
370
    13
100
AcDbVertex
100
AcDb2dVertex
 10
97.63655196156333
 20
189.794445069866
 30
0.0
  0
VERTEX
  5
20C
330
207
100
AcDbEntity
  8
Layer 1
 62
     7
420
 16777215
370
    13
100
AcDbVertex
100
AcDb2dVertex
 10
97.63655196156333
 20
186.7958339595046
 30
0.0
  0
VERTEX
  5
20D
330
207
100
AcDbEntity
  8
Layer 1
 62
     7
420
 16777215
370
    13
100
AcDbVertex
100
AcDb2dVertex
 10
103.6337743084494
 20
186.7958339595046
 30
0.0
  0
VERTEX
  5
20E
330
207
100
AcDbEntity
  8
Layer 1
 62
     7
420
 16777215
370
    13
100
AcDbVertex
100
AcDb2dVertex
 10
103.6337743084494
 20
189.794445069866
 30
0.0
  0
VERTEX
  5
20F
330
207
100
AcDbEntity
  8
Layer 1
 62
     7
420
 16777215
370
    13
100
AcDbVertex
100
AcDb2dVertex
 10
109.6309964030092
 20
189.794445069866
 30
0.0
  0
VERTEX
  5
210
330
207
100
AcDbEntity
  8
Layer 1
 62
     7
420
 16777215
370
    13
100
AcDbVertex
100
AcDb2dVertex
 10
109.6309964030092
 20
186.7958339595046
 30
0.0
  0
VERTEX
  5
211
330
207
100
AcDbEntity
  8
Layer 1
 62
     7
420
 16777215
370
    13
100
AcDbVertex
100
AcDb2dVertex
 10
115.6282192966023
 20
186.7958339595046
 30
0.0
  0
VERTEX
  5
212
330
207
100
AcDbEntity
  8
Layer 1
 62
     7
420
 16777215
370
    13
100
AcDbVertex
100
AcDb2dVertex
 10
115.6282192966023
 20
189.794445069866
 30
0.0
  0
VERTEX
  5
213
330
207
100
AcDbEntity
  8
Layer 1
 62
     7
420
 16777215
370
    13
100
AcDbVertex
100
AcDb2dVertex
 10
121.6254415173252
 20
189.794445069866
 30
0.0
  0
VERTEX
  5
214
330
207
100
AcDbEntity
  8
Layer 1
 62
     7
420
 16777215
370
    13
100
AcDbVertex
100
AcDb2dVertex
 10
121.6254415173252
 20
186.7958339595046
 30
0.0
  0
VERTEX
  5
215
330
207
100
AcDbEntity
  8
Layer 1
 62
     7
420
 16777215
370
    13
100
AcDbVertex
100
AcDb2dVertex
 10
127.6579409775209
 20
186.7958339595046
 30
0.0
  0
VERTEX
  5
216
330
207
100
AcDbEntity
  8
Layer 1
 62
     7
420
 16777215
370
    13
100
AcDbVertex
100
AcDb2dVertex
 10
127.6579409775209
 20
189.794445069866
 30
0.0
  0
VERTEX
  5
217
330
207
100
AcDbEntity
  8
Layer 1
 62
     7
420
 16777215
370
    13
100
AcDbVertex
100
AcDb2dVertex
 10
135.1368287879477
 20
189.794445069866
 30
0.0
  0
VERTEX
  5
218
330
207
100
AcDbEntity
  8
Layer 1
 62
     7
420
 16777215
370
    13
100
AcDbVertex
100
AcDb2dVertex
 10
135.1368287879477
 20
186.7958339595046
 30
0.0
  0
VERTEX
  5
219
330
207
100
AcDbEntity
  8
Layer 1
 62
     7
420
 16777215
370
    13
100
AcDbVertex
100
AcDb2dVertex
 10
139.6523854189667
 20
186.7958339595046
 30
0.0
  0
VERTEX
  5
21A
330
207
100
AcDbEntity
  8
Layer 1
 62
     7
420
 16777215
370
    13
100
AcDbVertex
100
AcDb2dVertex
 10
139.6523854189667
 20
182.2802827114473
 30
0.0
  0
VERTEX
  5
21B
330
207
100
AcDbEntity
  8
Layer 1
 62
     7
420
 16777215
370
    13
100
AcDbVertex
100
AcDb2dVertex
 10
142.6509965293282
 20
182.2802827114473
 30
0.0
  0
VERTEX
  5
21C
330
207
100
AcDbEntity
  8
Layer 1
 62
     7
420
 16777215
370
    13
100
AcDbVertex
100
AcDb2dVertex
 10
142.6509965293282
 20
174.8013895180588
 30
0.0
  0
VERTEX
  5
21D
330
207
100
AcDbEntity
  8
Layer 1
 62
     7
420
 16777215
370
    13
100
AcDbVertex
100
AcDb2dVertex
 10
139.6523854189667
 20
174.8013895180588
 30
0.0
  0
VERTEX
  5
21E
330
207
100
AcDbEntity
  8
Layer 1
 62
     7
420
 16777215
370
    13
100
AcDbVertex
100
AcDb2dVertex
 10
139.6523854189667
 20
168.8041672973359
 30
0.0
  0
VERTEX
  5
21F
330
207
100
AcDbEntity
  8
Layer 1
 62
     7
420
 16777215
370
    13
100
AcDbVertex
100
AcDb2dVertex
 10
142.6509965293282
 20
168.8041672973359
 30
0.0
  0
VERTEX
  5
220
330
207
100
AcDbEntity
  8
Layer 1
 62
     7
420
 16777215
370
    13
100
AcDbVertex
100
AcDb2dVertex
 10
142.6509965293282
 20
162.8069450766129
 30
0.0
  0
VERTEX
  5
221
330
207
100
AcDbEntity
  8
Layer 1
 62
     7
420
 16777215
370
    13
100
AcDbVertex
100
AcDb2dVertex
 10
139.6523854189667
 20
162.8069450766129
 30
0.0
  0
VERTEX
  5
222
330
207
100
AcDbEntity
  8
Layer 1
 62
     7
420
 16777215
370
    13
100
AcDbVertex
100
AcDb2dVertex
 10
139.6523854189667
 20
156.80972285589
 30
0.0
  0
VERTEX
  5
223
330
207
100
AcDbEntity
  8
Layer 1
 62
     7
420
 16777215
370
    13
100
AcDbVertex
100
AcDb2dVertex
 10
142.6509965293282
 20
156.80972285589
 30
0.0
  0
VERTEX
  5
224
330
207
100
AcDbEntity
  8
Layer 1
 62
     7
420
 16777215
370
    13
100
AcDbVertex
100
AcDb2dVertex
 10
142.6509965293282
 20
150.8125006351671
 30
0.0
  0
VERTEX
  5
225
330
207
100
AcDbEntity
  8
Layer 1
 62
     7
420
 16777215
370
    13
100
AcDbVertex
100
AcDb2dVertex
 10
139.6523854189667
 20
150.8125006351671
 30
0.0
  0
VERTEX
  5
226
330
207
100
AcDbEntity
  8
Layer 1
 62
     7
420
 16777215
370
    13
100
AcDbVertex
100
AcDb2dVertex
 10
139.6523854189667
 20
144.7800092494139
 30
0.0
  0
VERTEX
  5
227
330
207
100
AcDbEntity
  8
Layer 1
 62
     7
420
 16777215
370
    13
100
AcDbVertex
100
AcDb2dVertex
 10
142.6509965293282
 20
144.7800092494139
 30
0.0
  0
VERTEX
  5
228
330
207
100
AcDbEntity
  8
Layer 1
 62
     7
420
 16777215
370
    13
100
AcDbVertex
100
AcDb2dVertex
 10
142.6509965293282
 20
137.3011160560254
 30
0.0
  0
VERTEX
  5
229
330
207
100
AcDbEntity
  8
Layer 1
 62
     7
420
 16777215
370
    13
100
AcDbVertex
100
AcDb2dVertex
 10
139.6523854189667
 20
137.3011160560254
 30
0.0
  0
VERTEX
  5
22A
330
207
100
AcDbEntity
  8
Layer 1
 62
     7
420
 16777215
370
    13
100
AcDbVertex
100
AcDb2dVertex
 10
139.6523854189667
 20
132.7855648079681
 30
0.0
  0
VERTEX
  5
22B
330
207
100
AcDbEntity
  8
Layer 1
 62
     7
420
 16777215
370
    13
100
AcDbVertex
100
AcDb2dVertex
 10
135.1368287879477
 20
132.7855648079681
 30
0.0
  0
VERTEX
  5
22C
330
207
100
AcDbEntity
  8
Layer 1
 62
     7
420
 16777215
370
    13
100
AcDbVertex
100
AcDb2dVertex
 10
135.1368287879477
 20
129.7869536976066
 30
0.0
  0
VERTEX
  5
22D
330
207
100
AcDbEntity
  8
Layer 1
 62
     7
420
 16777215
370
    13
100
AcDbVertex
100
AcDb2dVertex
 10
127.6579409775209
 20
129.7869536976066
 30
0.0
  0
VERTEX
  5
22E
330
207
100
AcDbEntity
  8
Layer 1
 62
     7
420
 16777215
370
    13
100
AcDbVertex
100
AcDb2dVertex
 10
127.6579409775209
 20
132.7855648079681
 30
0.0
  0
VERTEX
  5
22F
330
207
100
AcDbEntity
  8
Layer 1
 62
     7
420
 16777215
370
    13
100
AcDbVertex
100
AcDb2dVertex
 10
121.6254415173252
 20
132.7855648079681
 30
0.0
  0
VERTEX
  5
230
330
207
100
AcDbEntity
  8
Layer 1
 62
     7
420
 16777215
370
    13
100
AcDbVertex
100
AcDb2dVertex
 10
121.6254415173252
 20
129.7869536976066
 30
0.0
  0
VERTEX
  5
231
330
207
100
AcDbEntity
  8
Layer 1
 62
     7
420
 16777215
370
    13
100
AcDbVertex
100
AcDb2dVertex
 10
115.6282192966023
 20
129.7869536976066
 30
0.0
  0
VERTEX
  5
232
330
207
100
AcDbEntity
  8
Layer 1
 62
     7
420
 16777215
370
    13
100
AcDbVertex
100
AcDb2dVertex
 10
115.6282192966023
 20
132.7855648079681
 30
0.0
  0
VERTEX
  5
233
330
207
100
AcDbEntity
  8
Layer 1
 62
     7
420
 16777215
370
    13
100
AcDbVertex
100
AcDb2dVertex
 10
109.6309964030092
 20
132.7855648079681
 30
0.0
  0
VERTEX
  5
234
330
207
100
AcDbEntity
  8
Layer 1
 62
     7
420
 16777215
370
    13
100
AcDbVertex
100
AcDb2dVertex
 10
109.6309964030092
 20
129.7869536976066
 30
0.0
  0
VERTEX
  5
235
330
207
100
AcDbEntity
  8
Layer 1
 62
     7
420
 16777215
370
    13
100
AcDbVertex
100
AcDb2dVertex
 10
103.6337743084494
 20
129.7869536976066
 30
0.0
  0
VERTEX
  5
236
330
207
100
AcDbEntity
  8
Layer 1
 62
     7
420
 16777215
370
    13
100
AcDbVertex
100
AcDb2dVertex
 10
103.6337743084494
 20
132.7855648079681
 30
0.0
  0
VERTEX
  5
237
330
207
100
AcDbEntity
  8
Layer 1
 62
     7
420
 16777215
370
    13
100
AcDbVertex
100
AcDb2dVertex
 10
97.63655196156333
 20
132.7855648079681
 30
0.0
  0
VERTEX
  5
238
330
207
100
AcDbEntity
  8
Layer 1
 62
     7
420
 16777215
370
    13
100
AcDbVertex
100
AcDb2dVertex
 10
97.63655196156333
 20
129.7869536976066
 30
0.0
  0
VERTEX
  5
239
330
207
100
AcDbEntity
  8
Layer 1
 62
     7
420
 16777215
370
    13
100
AcDbVertex
100
AcDb2dVertex
 10
90.15766347826629
 20
129.7869536976066
 30
0.0
  0
VERTEX
  5
23A
330
207
100
AcDbEntity
  8
Layer 1
 62
     7
420
 16777215
370
    13
100
AcDbVertex
100
AcDb2dVertex
 10
90.15766347826629
 20
132.7855648079681
 30
0.0
  0
VERTEX
  5
23B
330
207
100
AcDbEntity
  8
Layer 1
 62
     7
420
 16777215
370
    13
100
AcDbVertex
100
AcDb2dVertex
 10
85.6421081929877
 20
132.7855648079681
 30
0.0
  0
VERTEX
  5
23C
330
207
100
AcDbEntity
  8
Layer 1
 62
     7
420
 16777215
370
    13
100
AcDbVertex
100
AcDb2dVertex
 10
85.6421081929877
 20
137.3011160560254
 30
0.0
  0
VERTEX
  5
23D
330
207
100
AcDbEntity
  8
Layer 1
 62
     7
420
 16777215
370
    13
100
AcDbVertex
100
AcDb2dVertex
 10
82.64349708262624
 20
137.3011160560254
 30
0.0
  0
VERTEX
  5
23E
330
207
100
AcDbEntity
  8
Layer 1
 62
     7
420
 16777215
370
    13
100
AcDbVertex
100
AcDb2dVertex
 10
82.64349708262624
 20
144.7800092494139
 30
0.0
  0
VERTEX
  5
23F
330
207
100
AcDbEntity
  8
Layer 1
 62
     7
420
 16777215
370
    13
100
AcDbVertex
100
AcDb2dVertex
 10
85.6421081929877
 20
144.7800092494139
 30
0.0
  0
VERTEX
  5
240
330
207
100
AcDbEntity
  8
Layer 1
 62
     7
420
 16777215
370
    13
100
AcDbVertex
100
AcDb2dVertex
 10
85.6421081929877
 20
150.8125006351671
 30
0.0
  0
VERTEX
  5
241
330
207
100
AcDbEntity
  8
Layer 1
 62
     7
420
 16777215
370
    13
100
AcDbVertex
100
AcDb2dVertex
 10
82.64349708262624
 20
150.8125006351671
 30
0.0
  0
VERTEX
  5
242
330
207
100
AcDbEntity
  8
Layer 1
 62
     7
420
 16777215
370
    13
100
AcDbVertex
100
AcDb2dVertex
 10
82.64349708262624
 20
156.80972285589
 30
0.0
  0
VERTEX
  5
243
330
207
100
AcDbEntity
  8
Layer 1
 62
     7
420
 16777215
370
    13
100
AcDbVertex
100
AcDb2dVertex
 10
85.6421081929877
 20
156.80972285589
 30
0.0
  0
VERTEX
  5
244
330
207
100
AcDbEntity
  8
Layer 1
 62
     7
420
 16777215
370
    13
100
AcDbVertex
100
AcDb2dVertex
 10
85.6421081929877
 20
162.8069450766129
 30
0.0
  0
VERTEX
  5
245
330
207
100
AcDbEntity
  8
Layer 1
 62
     7
420
 16777215
370
    13
100
AcDbVertex
100
AcDb2dVertex
 10
82.64349708262624
 20
162.8069450766129
 30
0.0
  0
VERTEX
  5
246
330
207
100
AcDbEntity
  8
Layer 1
 62
     7
420
 16777215
370
    13
100
AcDbVertex
100
AcDb2dVertex
 10
82.64349708262624
 20
168.8041672973359
 30
0.0
  0
VERTEX
  5
247
330
207
100
AcDbEntity
  8
Layer 1
 62
     7
420
 16777215
370
    13
100
AcDbVertex
100
AcDb2dVertex
 10
85.6421081929877
 20
168.8041672973359
 30
0.0
  0
VERTEX
  5
248
330
207
100
AcDbEntity
  8
Layer 1
 62
     7
420
 16777215
370
    13
100
AcDbVertex
100
AcDb2dVertex
 10
85.6421081929877
 20
174.8013895180588
 30
0.0
  0
VERTEX
  5
249
330
207
100
AcDbEntity
  8
Layer 1
 62
     7
420
 16777215
370
    13
100
AcDbVertex
100
AcDb2dVertex
 10
82.64349708262624
 20
174.8013895180588
 30
0.0
  0
VERTEX
  5
24A
330
207
100
AcDbEntity
  8
Layer 1
 62
     7
420
 16777215
370
    13
100
AcDbVertex
100
AcDb2dVertex
 10
82.64349708262624
 20
182.2802827114473
 30
0.0
  0
VERTEX
  5
24B
330
207
100
AcDbEntity
  8
Layer 1
 62
     7
420
 16777215
370
    13
100
AcDbVertex
100
AcDb2dVertex
 10
85.6421081929877
 20
182.2802827114473
 30
0.0
  0
VERTEX
  5
24C
330
207
100
AcDbEntity
  8
Layer 1
 62
     7
420
 16777215
370
    13
100
AcDbVertex
100
AcDb2dVertex
 10
85.6421081929877
 20
186.7958339595046
 30
0.0
  0
SEQEND
  5
24D
330
207
100
AcDbEntity
  8
Layer 1
 62
     7
420
 16777215
370
    13
  0
ENDBLK
  5
206
330
203
100
AcDbEntity
  8
0
100
AcDbBlockEnd
  0
BLOCK
  5
250
330
24E
100
AcDbEntity
  8
0
100
AcDbBlockBegin
  2
block 9
 70
     0
 10
0.0
 20
0.0
 30
0.0
  3
block 9
  1

  0
POLYLINE
  5
252
330
24E
100
AcDbEntity
  8
Layer 1
 62
     7
420
 16777215
370
    13
100
AcDb2dPolyline
 66
     1
 10
0.0
 20
0.0
 30
0.0
  0
VERTEX
  5
253
330
252
100
AcDbEntity
  8
Layer 1
 62
     7
420
 16777215
370
    13
100
AcDbVertex
100
AcDb2dVertex
 10
150.553219287871
 20
186.7958339595046
 30
0.0
  0
VERTEX
  5
254
330
252
100
AcDbEntity
  8
Layer 1
 62
     7
420
 16777215
370
    13
100
AcDbVertex
100
AcDb2dVertex
 10
155.0687745731496
 20
186.7958339595046
 30
0.0
  0
VERTEX
  5
255
330
252
100
AcDbEntity
  8
Layer 1
 62
     7
420
 16777215
370
    13
100
AcDbVertex
100
AcDb2dVertex
 10
155.0687745731496
 20
189.794445069866
 30
0.0
  0
VERTEX
  5
256
330
252
100
AcDbEntity
  8
Layer 1
 62
     7
420
 16777215
370
    13
100
AcDbVertex
100
AcDb2dVertex
 10
162.5476630564467
 20
189.794445069866
 30
0.0
  0
VERTEX
  5
257
330
252
100
AcDbEntity
  8
Layer 1
 62
     7
420
 16777215
370
    13
100
AcDbVertex
100
AcDb2dVertex
 10
162.5476630564467
 20
186.7958339595046
 30
0.0
  0
VERTEX
  5
258
330
252
100
AcDbEntity
  8
Layer 1
 62
     7
420
 16777215
370
    13
100
AcDbVertex
100
AcDb2dVertex
 10
168.5448854033327
 20
186.7958339595046
 30
0.0
  0
VERTEX
  5
259
330
252
100
AcDbEntity
  8
Layer 1
 62
     7
420
 16777215
370
    13
100
AcDbVertex
100
AcDb2dVertex
 10
168.5448854033327
 20
189.794445069866
 30
0.0
  0
VERTEX
  5
25A
330
252
100
AcDbEntity
  8
Layer 1
 62
     7
420
 16777215
370
    13
100
AcDbVertex
100
AcDb2dVertex
 10
174.5421074978925
 20
189.794445069866
 30
0.0
  0
VERTEX
  5
25B
330
252
100
AcDbEntity
  8
Layer 1
 62
     7
420
 16777215
370
    13
100
AcDbVertex
100
AcDb2dVertex
 10
174.5421074978925
 20
186.7958339595046
 30
0.0
  0
VERTEX
  5
25C
330
252
100
AcDbEntity
  8
Layer 1
 62
     7
420
 16777215
370
    13
100
AcDbVertex
100
AcDb2dVertex
 10
180.5393303914856
 20
186.7958339595046
 30
0.0
  0
VERTEX
  5
25D
330
252
100
AcDbEntity
  8
Layer 1
 62
     7
420
 16777215
370
    13
100
AcDbVertex
100
AcDb2dVertex
 10
180.5393303914856
 20
189.794445069866
 30
0.0
  0
VERTEX
  5
25E
330
252
100
AcDbEntity
  8
Layer 1
 62
     7
420
 16777215
370
    13
100
AcDbVertex
100
AcDb2dVertex
 10
186.5365526122085
 20
189.794445069866
 30
0.0
  0
VERTEX
  5
25F
330
252
100
AcDbEntity
  8
Layer 1
 62
     7
420
 16777215
370
    13
100
AcDbVertex
100
AcDb2dVertex
 10
186.5365526122085
 20
186.7958339595046
 30
0.0
  0
VERTEX
  5
260
330
252
100
AcDbEntity
  8
Layer 1
 62
     7
420
 16777215
370
    13
100
AcDbVertex
100
AcDb2dVertex
 10
192.5690520724042
 20
186.7958339595046
 30
0.0
  0
VERTEX
  5
261
330
252
100
AcDbEntity
  8
Layer 1
 62
     7
420
 16777215
370
    13
100
AcDbVertex
100
AcDb2dVertex
 10
192.5690520724042
 20
189.794445069866
 30
0.0
  0
VERTEX
  5
262
330
252
100
AcDbEntity
  8
Layer 1
 62
     7
420
 16777215
370
    13
100
AcDbVertex
100
AcDb2dVertex
 10
200.0479398828311
 20
189.794445069866
 30
0.0
  0
VERTEX
  5
263
330
252
100
AcDbEntity
  8
Layer 1
 62
     7
420
 16777215
370
    13
100
AcDbVertex
100
AcDb2dVertex
 10
200.0479398828311
 20
186.7958339595046
 30
0.0
  0
VERTEX
  5
264
330
252
100
AcDbEntity
  8
Layer 1
 62
     7
420
 16777215
370
    13
100
AcDbVertex
100
AcDb2dVertex
 10
204.5634965138501
 20
186.7958339595046
 30
0.0
  0
VERTEX
  5
265
330
252
100
AcDbEntity
  8
Layer 1
 62
     7
420
 16777215
370
    13
100
AcDbVertex
100
AcDb2dVertex
 10
204.5634965138501
 20
182.2802827114473
 30
0.0
  0
VERTEX
  5
266
330
252
100
AcDbEntity
  8
Layer 1
 62
     7
420
 16777215
370
    13
100
AcDbVertex
100
AcDb2dVertex
 10
207.5621076242115
 20
182.2802827114473
 30
0.0
  0
VERTEX
  5
267
330
252
100
AcDbEntity
  8
Layer 1
 62
     7
420
 16777215
370
    13
100
AcDbVertex
100
AcDb2dVertex
 10
207.5621076242115
 20
174.8013895180588
 30
0.0
  0
VERTEX
  5
268
330
252
100
AcDbEntity
  8
Layer 1
 62
     7
420
 16777215
370
    13
100
AcDbVertex
100
AcDb2dVertex
 10
204.5634965138501
 20
174.8013895180588
 30
0.0
  0
VERTEX
  5
269
330
252
100
AcDbEntity
  8
Layer 1
 62
     7
420
 16777215
370
    13
100
AcDbVertex
100
AcDb2dVertex
 10
204.5634965138501
 20
168.8041672973359
 30
0.0
  0
VERTEX
  5
26A
330
252
100
AcDbEntity
  8
Layer 1
 62
     7
420
 16777215
370
    13
100
AcDbVertex
100
AcDb2dVertex
 10
207.5621076242115
 20
168.8041672973359
 30
0.0
  0
VERTEX
  5
26B
330
252
100
AcDbEntity
  8
Layer 1
 62
     7
420
 16777215
370
    13
100
AcDbVertex
100
AcDb2dVertex
 10
207.5621076242115
 20
162.8069450766129
 30
0.0
  0
VERTEX
  5
26C
330
252
100
AcDbEntity
  8
Layer 1
 62
     7
420
 16777215
370
    13
100
AcDbVertex
100
AcDb2dVertex
 10
204.5634965138501
 20
162.8069450766129
 30
0.0
  0
VERTEX
  5
26D
330
252
100
AcDbEntity
  8
Layer 1
 62
     7
420
 16777215
370
    13
100
AcDbVertex
100
AcDb2dVertex
 10
204.5634965138501
 20
156.80972285589
 30
0.0
  0
VERTEX
  5
26E
330
252
100
AcDbEntity
  8
Layer 1
 62
     7
420
 16777215
370
    13
100
AcDbVertex
100
AcDb2dVertex
 10
207.5621076242115
 20
156.80972285589
 30
0.0
  0
VERTEX
  5
26F
330
252
100
AcDbEntity
  8
Layer 1
 62
     7
420
 16777215
370
    13
100
AcDbVertex
100
AcDb2dVertex
 10
207.5621076242115
 20
150.8125006351671
 30
0.0
  0
VERTEX
  5
270
330
252
100
AcDbEntity
  8
Layer 1
 62
     7
420
 16777215
370
    13
100
AcDbVertex
100
AcDb2dVertex
 10
204.5634965138501
 20
150.8125006351671
 30
0.0
  0
VERTEX
  5
271
330
252
100
AcDbEntity
  8
Layer 1
 62
     7
420
 16777215
370
    13
100
AcDbVertex
100
AcDb2dVertex
 10
204.5634965138501
 20
144.7800092494139
 30
0.0
  0
VERTEX
  5
272
330
252
100
AcDbEntity
  8
Layer 1
 62
     7
420
 16777215
370
    13
100
AcDbVertex
100
AcDb2dVertex
 10
207.5621076242115
 20
144.7800092494139
 30
0.0
  0
VERTEX
  5
273
330
252
100
AcDbEntity
  8
Layer 1
 62
     7
420
 16777215
370
    13
100
AcDbVertex
100
AcDb2dVertex
 10
207.5621076242115
 20
137.3011160560254
 30
0.0
  0
VERTEX
  5
274
330
252
100
AcDbEntity
  8
Layer 1
 62
     7
420
 16777215
370
    13
100
AcDbVertex
100
AcDb2dVertex
 10
204.5634965138501
 20
137.3011160560254
 30
0.0
  0
VERTEX
  5
275
330
252
100
AcDbEntity
  8
Layer 1
 62
     7
420
 16777215
370
    13
100
AcDbVertex
100
AcDb2dVertex
 10
204.5634965138501
 20
132.7855648079681
 30
0.0
  0
VERTEX
  5
276
330
252
100
AcDbEntity
  8
Layer 1
 62
     7
420
 16777215
370
    13
100
AcDbVertex
100
AcDb2dVertex
 10
200.0479398828311
 20
132.7855648079681
 30
0.0
  0
VERTEX
  5
277
330
252
100
AcDbEntity
  8
Layer 1
 62
     7
420
 16777215
370
    13
100
AcDbVertex
100
AcDb2dVertex
 10
200.0479398828311
 20
129.7869536976066
 30
0.0
  0
VERTEX
  5
278
330
252
100
AcDbEntity
  8
Layer 1
 62
     7
420
 16777215
370
    13
100
AcDbVertex
100
AcDb2dVertex
 10
192.5690520724042
 20
129.7869536976066
 30
0.0
  0
VERTEX
  5
279
330
252
100
AcDbEntity
  8
Layer 1
 62
     7
420
 16777215
370
    13
100
AcDbVertex
100
AcDb2dVertex
 10
192.5690520724042
 20
132.7855648079681
 30
0.0
  0
VERTEX
  5
27A
330
252
100
AcDbEntity
  8
Layer 1
 62
     7
420
 16777215
370
    13
100
AcDbVertex
100
AcDb2dVertex
 10
186.5365526122085
 20
132.7855648079681
 30
0.0
  0
VERTEX
  5
27B
330
252
100
AcDbEntity
  8
Layer 1
 62
     7
420
 16777215
370
    13
100
AcDbVertex
100
AcDb2dVertex
 10
186.5365526122085
 20
129.7869536976066
 30
0.0
  0
VERTEX
  5
27C
330
252
100
AcDbEntity
  8
Layer 1
 62
     7
420
 16777215
370
    13
100
AcDbVertex
100
AcDb2dVertex
 10
180.5393303914856
 20
129.7869536976066
 30
0.0
  0
VERTEX
  5
27D
330
252
100
AcDbEntity
  8
Layer 1
 62
     7
420
 16777215
370
    13
100
AcDbVertex
100
AcDb2dVertex
 10
180.5393303914856
 20
132.7855648079681
 30
0.0
  0
VERTEX
  5
27E
330
252
100
AcDbEntity
  8
Layer 1
 62
     7
420
 16777215
370
    13
100
AcDbVertex
100
AcDb2dVertex
 10
174.5421074978925
 20
132.7855648079681
 30
0.0
  0
VERTEX
  5
27F
330
252
100
AcDbEntity
  8
Layer 1
 62
     7
420
 16777215
370
    13
100
AcDbVertex
100
AcDb2dVertex
 10
174.5421074978925
 20
129.7869536976066
 30
0.0
  0
VERTEX
  5
280
330
252
100
AcDbEntity
  8
Layer 1
 62
     7
420
 16777215
370
    13
100
AcDbVertex
100
AcDb2dVertex
 10
168.5448854033327
 20
129.7869536976066
 30
0.0
  0
VERTEX
  5
281
330
252
100
AcDbEntity
  8
Layer 1
 62
     7
420
 16777215
370
    13
100
AcDbVertex
100
AcDb2dVertex
 10
168.5448854033327
 20
132.7855648079681
 30
0.0
  0
VERTEX
  5
282
330
252
100
AcDbEntity
  8
Layer 1
 62
     7
420
 16777215
370
    13
100
AcDbVertex
100
AcDb2dVertex
 10
162.5476630564467
 20
132.7855648079681
 30
0.0
  0
VERTEX
  5
283
330
252
100
AcDbEntity
  8
Layer 1
 62
     7
420
 16777215
370
    13
100
AcDbVertex
100
AcDb2dVertex
 10
162.5476630564467
 20
129.7869536976066
 30
0.0
  0
VERTEX
  5
284
330
252
100
AcDbEntity
  8
Layer 1
 62
     7
420
 16777215
370
    13
100
AcDbVertex
100
AcDb2dVertex
 10
155.0687745731496
 20
129.7869536976066
 30
0.0
  0
VERTEX
  5
285
330
252
100
AcDbEntity
  8
Layer 1
 62
     7
420
 16777215
370
    13
100
AcDbVertex
100
AcDb2dVertex
 10
155.0687745731496
 20
132.7855648079681
 30
0.0
  0
VERTEX
  5
286
330
252
100
AcDbEntity
  8
Layer 1
 62
     7
420
 16777215
370
    13
100
AcDbVertex
100
AcDb2dVertex
 10
150.553219287871
 20
132.7855648079681
 30
0.0
  0
VERTEX
  5
287
330
252
100
AcDbEntity
  8
Layer 1
 62
     7
420
 16777215
370
    13
100
AcDbVertex
100
AcDb2dVertex
 10
150.553219287871
 20
137.3011160560254
 30
0.0
  0
VERTEX
  5
288
330
252
100
AcDbEntity
  8
Layer 1
 62
     7
420
 16777215
370
    13
100
AcDbVertex
100
AcDb2dVertex
 10
147.5546081775096
 20
137.3011160560254
 30
0.0
  0
VERTEX
  5
289
330
252
100
AcDbEntity
  8
Layer 1
 62
     7
420
 16777215
370
    13
100
AcDbVertex
100
AcDb2dVertex
 10
147.5546081775096
 20
144.7800092494139
 30
0.0
  0
VERTEX
  5
28A
330
252
100
AcDbEntity
  8
Layer 1
 62
     7
420
 16777215
370
    13
100
AcDbVertex
100
AcDb2dVertex
 10
150.553219287871
 20
144.7800092494139
 30
0.0
  0
VERTEX
  5
28B
330
252
100
AcDbEntity
  8
Layer 1
 62
     7
420
 16777215
370
    13
100
AcDbVertex
100
AcDb2dVertex
 10
150.553219287871
 20
150.8125006351671
 30
0.0
  0
VERTEX
  5
28C
330
252
100
AcDbEntity
  8
Layer 1
 62
     7
420
 16777215
370
    13
100
AcDbVertex
100
AcDb2dVertex
 10
147.5546081775096
 20
150.8125006351671
 30
0.0
  0
VERTEX
  5
28D
330
252
100
AcDbEntity
  8
Layer 1
 62
     7
420
 16777215
370
    13
100
AcDbVertex
100
AcDb2dVertex
 10
147.5546081775096
 20
156.80972285589
 30
0.0
  0
VERTEX
  5
28E
330
252
100
AcDbEntity
  8
Layer 1
 62
     7
420
 16777215
370
    13
100
AcDbVertex
100
AcDb2dVertex
 10
150.553219287871
 20
156.80972285589
 30
0.0
  0
VERTEX
  5
28F
330
252
100
AcDbEntity
  8
Layer 1
 62
     7
420
 16777215
370
    13
100
AcDbVertex
100
AcDb2dVertex
 10
150.553219287871
 20
162.8069450766129
 30
0.0
  0
VERTEX
  5
290
330
252
100
AcDbEntity
  8
Layer 1
 62
     7
420
 16777215
370
    13
100
AcDbVertex
100
AcDb2dVertex
 10
147.5546081775096
 20
162.8069450766129
 30
0.0
  0
VERTEX
  5
291
330
252
100
AcDbEntity
  8
Layer 1
 62
     7
420
 16777215
370
    13
100
AcDbVertex
100
AcDb2dVertex
 10
147.5546081775096
 20
168.8041672973359
 30
0.0
  0
VERTEX
  5
292
330
252
100
AcDbEntity
  8
Layer 1
 62
     7
420
 16777215
370
    13
100
AcDbVertex
100
AcDb2dVertex
 10
150.553219287871
 20
168.8041672973359
 30
0.0
  0
VERTEX
  5
293
330
252
100
AcDbEntity
  8
Layer 1
 62
     7
420
 16777215
370
    13
100
AcDbVertex
100
AcDb2dVertex
 10
150.553219287871
 20
174.8013895180588
 30
0.0
  0
VERTEX
  5
294
330
252
100
AcDbEntity
  8
Layer 1
 62
     7
420
 16777215
370
    13
100
AcDbVertex
100
AcDb2dVertex
 10
147.5546081775096
 20
174.8013895180588
 30
0.0
  0
VERTEX
  5
295
330
252
100
AcDbEntity
  8
Layer 1
 62
     7
420
 16777215
370
    13
100
AcDbVertex
100
AcDb2dVertex
 10
147.5546081775096
 20
182.2802827114473
 30
0.0
  0
VERTEX
  5
296
330
252
100
AcDbEntity
  8
Layer 1
 62
     7
420
 16777215
370
    13
100
AcDbVertex
100
AcDb2dVertex
 10
150.553219287871
 20
182.2802827114473
 30
0.0
  0
VERTEX
  5
297
330
252
100
AcDbEntity
  8
Layer 1
 62
     7
420
 16777215
370
    13
100
AcDbVertex
100
AcDb2dVertex
 10
150.553219287871
 20
186.7958339595046
 30
0.0
  0
SEQEND
  5
298
330
252
100
AcDbEntity
  8
Layer 1
 62
     7
420
 16777215
370
    13
  0
ENDBLK
  5
251
330
24E
100
AcDbEntity
  8
0
100
AcDbBlockEnd
  0
BLOCK
  5
29B
330
299
100
AcDbEntity
  8
0
100
AcDbBlockBegin
  2
block 10
 70
     0
 10
0.0
 20
0.0
 30
0.0
  3
block 10
  1

  0
POLYLINE
  5
29D
330
299
100
AcDbEntity
  8
Layer 1
 62
     7
420
 16777215
370
    13
100
AcDb2dPolyline
 66
     1
 10
0.0
 20
0.0
 30
0.0
  0
VERTEX
  5
29E
330
29D
100
AcDbEntity
  8
Layer 1
 62
     7
420
 16777215
370
    13
100
AcDbVertex
100
AcDb2dVertex
 10
215.2291434033074
 20
186.7958339595046
 30
0.0
  0
VERTEX
  5
29F
330
29D
100
AcDbEntity
  8
Layer 1
 62
     7
420
 16777215
370
    13
100
AcDbVertex
100
AcDb2dVertex
 10
219.744698688586
 20
186.7958339595046
 30
0.0
  0
VERTEX
  5
2A0
330
29D
100
AcDbEntity
  8
Layer 1
 62
     7
420
 16777215
370
    13
100
AcDbVertex
100
AcDb2dVertex
 10
219.744698688586
 20
189.794445069866
 30
0.0
  0
VERTEX
  5
2A1
330
29D
100
AcDbEntity
  8
Layer 1
 62
     7
420
 16777215
370
    13
100
AcDbVertex
100
AcDb2dVertex
 10
227.2235871718831
 20
189.794445069866
 30
0.0
  0
VERTEX
  5
2A2
330
29D
100
AcDbEntity
  8
Layer 1
 62
     7
420
 16777215
370
    13
100
AcDbVertex
100
AcDb2dVertex
 10
227.2235871718831
 20
186.7958339595046
 30
0.0
  0
VERTEX
  5
2A3
330
29D
100
AcDbEntity
  8
Layer 1
 62
     7
420
 16777215
370
    13
100
AcDbVertex
100
AcDb2dVertex
 10
233.2208095187691
 20
186.7958339595046
 30
0.0
  0
VERTEX
  5
2A4
330
29D
100
AcDbEntity
  8
Layer 1
 62
     7
420
 16777215
370
    13
100
AcDbVertex
100
AcDb2dVertex
 10
233.2208095187691
 20
189.794445069866
 30
0.0
  0
VERTEX
  5
2A5
330
29D
100
AcDbEntity
  8
Layer 1
 62
     7
420
 16777215
370
    13
100
AcDbVertex
100
AcDb2dVertex
 10
239.2180316133289
 20
189.794445069866
 30
0.0
  0
VERTEX
  5
2A6
330
29D
100
AcDbEntity
  8
Layer 1
 62
     7
420
 16777215
370
    13
100
AcDbVertex
100
AcDb2dVertex
 10
239.2180316133289
 20
186.7958339595046
 30
0.0
  0
VERTEX
  5
2A7
330
29D
100
AcDbEntity
  8
Layer 1
 62
     7
420
 16777215
370
    13
100
AcDbVertex
100
AcDb2dVertex
 10
245.215254506922
 20
186.7958339595046
 30
0.0
  0
VERTEX
  5
2A8
330
29D
100
AcDbEntity
  8
Layer 1
 62
     7
420
 16777215
370
    13
100
AcDbVertex
100
AcDb2dVertex
 10
245.215254506922
 20
189.794445069866
 30
0.0
  0
VERTEX
  5
2A9
330
29D
100
AcDbEntity
  8
Layer 1
 62
     7
420
 16777215
370
    13
100
AcDbVertex
100
AcDb2dVertex
 10
251.2124767276449
 20
189.794445069866
 30
0.0
  0
VERTEX
  5
2AA
330
29D
100
AcDbEntity
  8
Layer 1
 62
     7
420
 16777215
370
    13
100
AcDbVertex
100
AcDb2dVertex
 10
251.2124767276449
 20
186.7958339595046
 30
0.0
  0
VERTEX
  5
2AB
330
29D
100
AcDbEntity
  8
Layer 1
 62
     7
420
 16777215
370
    13
100
AcDbVertex
100
AcDb2dVertex
 10
257.2449761878406
 20
186.7958339595046
 30
0.0
  0
VERTEX
  5
2AC
330
29D
100
AcDbEntity
  8
Layer 1
 62
     7
420
 16777215
370
    13
100
AcDbVertex
100
AcDb2dVertex
 10
257.2449761878406
 20
189.794445069866
 30
0.0
  0
VERTEX
  5
2AD
330
29D
100
AcDbEntity
  8
Layer 1
 62
     7
420
 16777215
370
    13
100
AcDbVertex
100
AcDb2dVertex
 10
264.7238639982675
 20
189.794445069866
 30
0.0
  0
VERTEX
  5
2AE
330
29D
100
AcDbEntity
  8
Layer 1
 62
     7
420
 16777215
370
    13
100
AcDbVertex
100
AcDb2dVertex
 10
264.7238639982675
 20
186.7958339595046
 30
0.0
  0
VERTEX
  5
2AF
330
29D
100
AcDbEntity
  8
Layer 1
 62
     7
420
 16777215
370
    13
100
AcDbVertex
100
AcDb2dVertex
 10
269.2394206292865
 20
186.7958339595046
 30
0.0
  0
VERTEX
  5
2B0
330
29D
100
AcDbEntity
  8
Layer 1
 62
     7
420
 16777215
370
    13
100
AcDbVertex
100
AcDb2dVertex
 10
269.2394206292865
 20
182.2802827114473
 30
0.0
  0
VERTEX
  5
2B1
330
29D
100
AcDbEntity
  8
Layer 1
 62
     7
420
 16777215
370
    13
100
AcDbVertex
100
AcDb2dVertex
 10
272.2380317396479
 20
182.2802827114473
 30
0.0
  0
VERTEX
  5
2B2
330
29D
100
AcDbEntity
  8
Layer 1
 62
     7
420
 16777215
370
    13
100
AcDbVertex
100
AcDb2dVertex
 10
272.2380317396479
 20
174.8013895180588
 30
0.0
  0
VERTEX
  5
2B3
330
29D
100
AcDbEntity
  8
Layer 1
 62
     7
420
 16777215
370
    13
100
AcDbVertex
100
AcDb2dVertex
 10
269.2394206292865
 20
174.8013895180588
 30
0.0
  0
VERTEX
  5
2B4
330
29D
100
AcDbEntity
  8
Layer 1
 62
     7
420
 16777215
370
    13
100
AcDbVertex
100
AcDb2dVertex
 10
269.2394206292865
 20
168.8041672973359
 30
0.0
  0
VERTEX
  5
2B5
330
29D
100
AcDbEntity
  8
Layer 1
 62
     7
420
 16777215
370
    13
100
AcDbVertex
100
AcDb2dVertex
 10
272.2380317396479
 20
168.8041672973359
 30
0.0
  0
VERTEX
  5
2B6
330
29D
100
AcDbEntity
  8
Layer 1
 62
     7
420
 16777215
370
    13
100
AcDbVertex
100
AcDb2dVertex
 10
272.2380317396479
 20
162.8069450766129
 30
0.0
  0
VERTEX
  5
2B7
330
29D
100
AcDbEntity
  8
Layer 1
 62
     7
420
 16777215
370
    13
100
AcDbVertex
100
AcDb2dVertex
 10
269.2394206292865
 20
162.8069450766129
 30
0.0
  0
VERTEX
  5
2B8
330
29D
100
AcDbEntity
  8
Layer 1
 62
     7
420
 16777215
370
    13
100
AcDbVertex
100
AcDb2dVertex
 10
269.2394206292865
 20
156.80972285589
 30
0.0
  0
VERTEX
  5
2B9
330
29D
100
AcDbEntity
  8
Layer 1
 62
     7
420
 16777215
370
    13
100
AcDbVertex
100
AcDb2dVertex
 10
272.2380317396479
 20
156.80972285589
 30
0.0
  0
VERTEX
  5
2BA
330
29D
100
AcDbEntity
  8
Layer 1
 62
     7
420
 16777215
370
    13
100
AcDbVertex
100
AcDb2dVertex
 10
272.2380317396479
 20
150.8125006351671
 30
0.0
  0
VERTEX
  5
2BB
330
29D
100
AcDbEntity
  8
Layer 1
 62
     7
420
 16777215
370
    13
100
AcDbVertex
100
AcDb2dVertex
 10
269.2394206292865
 20
150.8125006351671
 30
0.0
  0
VERTEX
  5
2BC
330
29D
100
AcDbEntity
  8
Layer 1
 62
     7
420
 16777215
370
    13
100
AcDbVertex
100
AcDb2dVertex
 10
269.2394206292865
 20
144.7800092494139
 30
0.0
  0
VERTEX
  5
2BD
330
29D
100
AcDbEntity
  8
Layer 1
 62
     7
420
 16777215
370
    13
100
AcDbVertex
100
AcDb2dVertex
 10
272.2380317396479
 20
144.7800092494139
 30
0.0
  0
VERTEX
  5
2BE
330
29D
100
AcDbEntity
  8
Layer 1
 62
     7
420
 16777215
370
    13
100
AcDbVertex
100
AcDb2dVertex
 10
272.2380317396479
 20
137.3011160560254
 30
0.0
  0
VERTEX
  5
2BF
330
29D
100
AcDbEntity
  8
Layer 1
 62
     7
420
 16777215
370
    13
100
AcDbVertex
100
AcDb2dVertex
 10
269.2394206292865
 20
137.3011160560254
 30
0.0
  0
VERTEX
  5
2C0
330
29D
100
AcDbEntity
  8
Layer 1
 62
     7
420
 16777215
370
    13
100
AcDbVertex
100
AcDb2dVertex
 10
269.2394206292865
 20
132.7855648079681
 30
0.0
  0
VERTEX
  5
2C1
330
29D
100
AcDbEntity
  8
Layer 1
 62
     7
420
 16777215
370
    13
100
AcDbVertex
100
AcDb2dVertex
 10
264.7238639982675
 20
132.7855648079681
 30
0.0
  0
VERTEX
  5
2C2
330
29D
100
AcDbEntity
  8
Layer 1
 62
     7
420
 16777215
370
    13
100
AcDbVertex
100
AcDb2dVertex
 10
264.7238639982675
 20
129.7869536976066
 30
0.0
  0
VERTEX
  5
2C3
330
29D
100
AcDbEntity
  8
Layer 1
 62
     7
420
 16777215
370
    13
100
AcDbVertex
100
AcDb2dVertex
 10
257.2449761878406
 20
129.7869536976066
 30
0.0
  0
VERTEX
  5
2C4
330
29D
100
AcDbEntity
  8
Layer 1
 62
     7
420
 16777215
370
    13
100
AcDbVertex
100
AcDb2dVertex
 10
257.2449761878406
 20
132.7855648079681
 30
0.0
  0
VERTEX
  5
2C5
330
29D
100
AcDbEntity
  8
Layer 1
 62
     7
420
 16777215
370
    13
100
AcDbVertex
100
AcDb2dVertex
 10
251.2124767276449
 20
132.7855648079681
 30
0.0
  0
VERTEX
  5
2C6
330
29D
100
AcDbEntity
  8
Layer 1
 62
     7
420
 16777215
370
    13
100
AcDbVertex
100
AcDb2dVertex
 10
251.2124767276449
 20
129.7869536976066
 30
0.0
  0
VERTEX
  5
2C7
330
29D
100
AcDbEntity
  8
Layer 1
 62
     7
420
 16777215
370
    13
100
AcDbVertex
100
AcDb2dVertex
 10
245.215254506922
 20
129.7869536976066
 30
0.0
  0
VERTEX
  5
2C8
330
29D
100
AcDbEntity
  8
Layer 1
 62
     7
420
 16777215
370
    13
100
AcDbVertex
100
AcDb2dVertex
 10
245.215254506922
 20
132.7855648079681
 30
0.0
  0
VERTEX
  5
2C9
330
29D
100
AcDbEntity
  8
Layer 1
 62
     7
420
 16777215
370
    13
100
AcDbVertex
100
AcDb2dVertex
 10
239.2180316133289
 20
132.7855648079681
 30
0.0
  0
VERTEX
  5
2CA
330
29D
100
AcDbEntity
  8
Layer 1
 62
     7
420
 16777215
370
    13
100
AcDbVertex
100
AcDb2dVertex
 10
239.2180316133289
 20
129.7869536976066
 30
0.0
  0
VERTEX
  5
2CB
330
29D
100
AcDbEntity
  8
Layer 1
 62
     7
420
 16777215
370
    13
100
AcDbVertex
100
AcDb2dVertex
 10
233.2208095187691
 20
129.7869536976066
 30
0.0
  0
VERTEX
  5
2CC
330
29D
100
AcDbEntity
  8
Layer 1
 62
     7
420
 16777215
370
    13
100
AcDbVertex
100
AcDb2dVertex
 10
233.2208095187691
 20
132.7855648079681
 30
0.0
  0
VERTEX
  5
2CD
330
29D
100
AcDbEntity
  8
Layer 1
 62
     7
420
 16777215
370
    13
100
AcDbVertex
100
AcDb2dVertex
 10
227.2235871718831
 20
132.7855648079681
 30
0.0
  0
VERTEX
  5
2CE
330
29D
100
AcDbEntity
  8
Layer 1
 62
     7
420
 16777215
370
    13
100
AcDbVertex
100
AcDb2dVertex
 10
227.2235871718831
 20
129.7869536976066
 30
0.0
  0
VERTEX
  5
2CF
330
29D
100
AcDbEntity
  8
Layer 1
 62
     7
420
 16777215
370
    13
100
AcDbVertex
100
AcDb2dVertex
 10
219.744698688586
 20
129.7869536976066
 30
0.0
  0
VERTEX
  5
2D0
330
29D
100
AcDbEntity
  8
Layer 1
 62
     7
420
 16777215
370
    13
100
AcDbVertex
100
AcDb2dVertex
 10
219.744698688586
 20
132.7855648079681
 30
0.0
  0
VERTEX
  5
2D1
330
29D
100
AcDbEntity
  8
Layer 1
 62
     7
420
 16777215
370
    13
100
AcDbVertex
100
AcDb2dVertex
 10
215.2291434033074
 20
132.7855648079681
 30
0.0
  0
VERTEX
  5
2D2
330
29D
100
AcDbEntity
  8
Layer 1
 62
     7
420
 16777215
370
    13
100
AcDbVertex
100
AcDb2dVertex
 10
215.2291434033074
 20
137.3011160560254
 30
0.0
  0
VERTEX
  5
2D3
330
29D
100
AcDbEntity
  8
Layer 1
 62
     7
420
 16777215
370
    13
100
AcDbVertex
100
AcDb2dVertex
 10
212.230532292946
 20
137.3011160560254
 30
0.0
  0
VERTEX
  5
2D4
330
29D
100
AcDbEntity
  8
Layer 1
 62
     7
420
 16777215
370
    13
100
AcDbVertex
100
AcDb2dVertex
 10
212.230532292946
 20
144.7800092494139
 30
0.0
  0
VERTEX
  5
2D5
330
29D
100
AcDbEntity
  8
Layer 1
 62
     7
420
 16777215
370
    13
100
AcDbVertex
100
AcDb2dVertex
 10
215.2291434033074
 20
144.7800092494139
 30
0.0
  0
VERTEX
  5
2D6
330
29D
100
AcDbEntity
  8
Layer 1
 62
     7
420
 16777215
370
    13
100
AcDbVertex
100
AcDb2dVertex
 10
215.2291434033074
 20
150.8125006351671
 30
0.0
  0
VERTEX
  5
2D7
330
29D
100
AcDbEntity
  8
Layer 1
 62
     7
420
 16777215
370
    13
100
AcDbVertex
100
AcDb2dVertex
 10
212.230532292946
 20
150.8125006351671
 30
0.0
  0
VERTEX
  5
2D8
330
29D
100
AcDbEntity
  8
Layer 1
 62
     7
420
 16777215
370
    13
100
AcDbVertex
100
AcDb2dVertex
 10
212.230532292946
 20
156.80972285589
 30
0.0
  0
VERTEX
  5
2D9
330
29D
100
AcDbEntity
  8
Layer 1
 62
     7
420
 16777215
370
    13
100
AcDbVertex
100
AcDb2dVertex
 10
215.2291434033074
 20
156.80972285589
 30
0.0
  0
VERTEX
  5
2DA
330
29D
100
AcDbEntity
  8
Layer 1
 62
     7
420
 16777215
370
    13
100
AcDbVertex
100
AcDb2dVertex
 10
215.2291434033074
 20
162.8069450766129
 30
0.0
  0
VERTEX
  5
2DB
330
29D
100
AcDbEntity
  8
Layer 1
 62
     7
420
 16777215
370
    13
100
AcDbVertex
100
AcDb2dVertex
 10
212.230532292946
 20
162.8069450766129
 30
0.0
  0
VERTEX
  5
2DC
330
29D
100
AcDbEntity
  8
Layer 1
 62
     7
420
 16777215
370
    13
100
AcDbVertex
100
AcDb2dVertex
 10
212.230532292946
 20
168.8041672973359
 30
0.0
  0
VERTEX
  5
2DD
330
29D
100
AcDbEntity
  8
Layer 1
 62
     7
420
 16777215
370
    13
100
AcDbVertex
100
AcDb2dVertex
 10
215.2291434033074
 20
168.8041672973359
 30
0.0
  0
VERTEX
  5
2DE
330
29D
100
AcDbEntity
  8
Layer 1
 62
     7
420
 16777215
370
    13
100
AcDbVertex
100
AcDb2dVertex
 10
215.2291434033074
 20
174.8013895180588
 30
0.0
  0
VERTEX
  5
2DF
330
29D
100
AcDbEntity
  8
Layer 1
 62
     7
420
 16777215
370
    13
100
AcDbVertex
100
AcDb2dVertex
 10
212.230532292946
 20
174.8013895180588
 30
0.0
  0
VERTEX
  5
2E0
330
29D
100
AcDbEntity
  8
Layer 1
 62
     7
420
 16777215
370
    13
100
AcDbVertex
100
AcDb2dVertex
 10
212.230532292946
 20
182.2802827114473
 30
0.0
  0
VERTEX
  5
2E1
330
29D
100
AcDbEntity
  8
Layer 1
 62
     7
420
 16777215
370
    13
100
AcDbVertex
100
AcDb2dVertex
 10
215.2291434033074
 20
182.2802827114473
 30
0.0
  0
VERTEX
  5
2E2
330
29D
100
AcDbEntity
  8
Layer 1
 62
     7
420
 16777215
370
    13
100
AcDbVertex
100
AcDb2dVertex
 10
215.2291434033074
 20
186.7958339595046
 30
0.0
  0
SEQEND
  5
2E3
330
29D
100
AcDbEntity
  8
Layer 1
 62
     7
420
 16777215
370
    13
  0
ENDBLK
  5
29C
330
299
100
AcDbEntity
  8
0
100
AcDbBlockEnd
  0
ENDSEC
  0
SECTION
  2
ENTITIES
  0
INSERT
  5
42
330
1F
100
AcDbEntity
  8
Layer 1
100
AcDbBlockReference
  2
block 2
 10
0.0
 20
0.0
 30
0.0
  0
INSERT
  5
8D
330
1F
100
AcDbEntity
  8
Layer 1
100
AcDbBlockReference
  2
block 3
 10
0.0
 20
0.0
 30
0.0
  0
INSERT
  5
D8
330
1F
100
AcDbEntity
  8
Layer 1
100
AcDbBlockReference
  2
block 4
 10
0.0
 20
0.0
 30
0.0
  0
INSERT
  5
123
330
1F
100
AcDbEntity
  8
Layer 1
100
AcDbBlockReference
  2
block 5
 10
0.0
 20
0.0
 30
0.0
  0
INSERT
  5
16E
330
1F
100
AcDbEntity
  8
Layer 1
100
AcDbBlockReference
  2
block 6
 10
0.0
 20
0.0
 30
0.0
  0
INSERT
  5
1B9
330
1F
100
AcDbEntity
  8
Layer 1
100
AcDbBlockReference
  2
block 7
 10
0.0
 20
0.0
 30
0.0
  0
INSERT
  5
204
330
1F
100
AcDbEntity
  8
Layer 1
100
AcDbBlockReference
  2
block 8
 10
0.0
 20
0.0
 30
0.0
  0
INSERT
  5
24F
330
1F
100
AcDbEntity
  8
Layer 1
100
AcDbBlockReference
  2
block 9
 10
0.0
 20
0.0
 30
0.0
  0
INSERT
  5
29A
330
1F
100
AcDbEntity
  8
Layer 1
100
AcDbBlockReference
  2
block 10
 10
0.0
 20
0.0
 30
0.0
  0
ENDSEC
  0
SECTION
  2
OBJECTS
  0
DICTIONARY
  5
C
330
0
100
AcDbDictionary
281
     1
  3
ACAD_GROUP
350
D
  3
ACAD_LAYOUT
350
1A
  3
ACAD_MATERIAL
350
3B
  3
ACAD_MLEADERSTYLE
350
2E5
  3
ACAD_MLINESTYLE
350
17
  3
ACAD_PLOTSETTINGS
350
19
  3
ACAD_PLOTSTYLENAME
350
E
  3
ACAD_TABLESTYLE
350
2E4
  3
ACAD_VISUALSTYLE
350
2A
  0
SUN
  5
3F
330
29
100
AcDbSun
 90
        1
290
     0
 63
     7
421
 16777215
 40
1.0
291
     1
 91
  2455826
 92
 54000000
292
     0
 70
     2
 71
   256
280
     1
  0
DICTIONARY
  5
D
102
{ACAD_REACTORS
330
C
102
}
330
C
100
AcDbDictionary
281
     1
  0
DICTIONARY
  5
1A
102
{ACAD_REACTORS
330
C
102
}
330
C
100
AcDbDictionary
281
     1
  3
Layout1
350
1E
  3
Layout2
350
26
  3
Model
350
22
  0
DICTIONARY
  5
3B
102
{ACAD_REACTORS
330
C
102
}
330
C
100
AcDbDictionary
281
     1
  3
ByBlock
350
3D
  3
ByLayer
350
3C
  3
Global
350
3E
  0
DICTIONARY
  5
2E5
102
{ACAD_REACTORS
330
C
102
}
330
C
100
AcDbDictionary
281
     1
  0
DICTIONARY
  5
17
102
{ACAD_REACTORS
330
C
102
}
330
C
100
AcDbDictionary
281
     1
  3
Standard
350
18
  0
DICTIONARY
  5
19
102
{ACAD_REACTORS
330
C
102
}
330
C
100
AcDbDictionary
281
     1
  0
ACDBDICTIONARYWDFLT
  5
E
102
{ACAD_REACTORS
330
C
102
}
330
C
100
AcDbDictionary
281
     1
  3
Normal
350
F
100
AcDbDictionaryWithDefault
340
F
  0
DICTIONARY
  5
2E4
102
{ACAD_REACTORS
330
C
102
}
330
C
100
AcDbDictionary
281
     1
  0
DICTIONARY
  5
2A
102
{ACAD_REACTORS
330
C
102
}
330
C
100
AcDbDictionary
281
     1
  3
2dWireframe
350
2F
  3
3D Hidden
350
31
  3
3dWireframe
350
30
  3
Basic
350
32
  3
Brighten
350
36
  3
ColorChange
350
3A
  3
Conceptual
350
34
  3
Dim
350
35
  3
Facepattern
350
39
  3
Flat
350
2B
  3
FlatWithEdges
350
2C
  3
Gouraud
350
2D
  3
GouraudWithEdges
350
2E
  3
Linepattern
350
38
  3
Realistic
350
33
  3
Thicken
350
37
  0
LAYOUT
  5
1E
102
{ACAD_REACTORS
330
1A
102
}
330
1A
100
AcDbPlotSettings
  1

  2
none_device
  4

  6

 40
0.0
 41
0.0
 42
0.0
 43
0.0
 44
0.0
 45
0.0
 46
0.0
 47
0.0
 48
0.0
 49
0.0
140
0.0
141
0.0
142
1.0
143
1.0
 70
   688
 72
     0
 73
     0
 74
     5
  7

 75
    16
 76
     0
 77
     2
 78
   300
147
1.0
148
0.0
149
0.0
100
AcDbLayout
  1
Layout1
 70
     1
 71
     1
 10
0.0
 20
0.0
 11
12.0
 21
9.0
 12
0.0
 22
0.0
 32
0.0
 14
1.000000000000000E+20
 24
1.000000000000000E+20
 34
1.000000000000000E+20
 15
-1.000000000000000E+20
 25
-1.000000000000000E+20
 35
-1.000000000000000E+20
146
0.0
 13
0.0
 23
0.0
 33
0.0
 16
1.0
 26
0.0
 36
0.0
 17
0.0
 27
1.0
 37
0.0
 76
     0
330
1B
  0
LAYOUT
  5
26
102
{ACAD_REACTORS
330
1A
102
}
330
1A
100
AcDbPlotSettings
  1

  2
none_device
  4

  6

 40
0.0
 41
0.0
 42
0.0
 43
0.0
 44
0.0
 45
0.0
 46
0.0
 47
0.0
 48
0.0
 49
0.0
140
0.0
141
0.0
142
1.0
143
1.0
 70
   688
 72
     0
 73
     0
 74
     5
  7

 75
    16
 76
     0
 77
     2
 78
   300
147
1.0
148
0.0
149
0.0
100
AcDbLayout
  1
Layout2
 70
     1
 71
     2
 10
0.0
 20
0.0
 11
0.0
 21
0.0
 12
0.0
 22
0.0
 32
0.0
 14
0.0
 24
0.0
 34
0.0
 15
0.0
 25
0.0
 35
0.0
146
0.0
 13
0.0
 23
0.0
 33
0.0
 16
1.0
 26
0.0
 36
0.0
 17
0.0
 27
1.0
 37
0.0
 76
     0
330
23
  0
LAYOUT
  5
22
102
{ACAD_REACTORS
330
1A
102
}
330
1A
100
AcDbPlotSettings
  1

  2
none_device
  4

  6

 40
0.0
 41
0.0
 42
0.0
 43
0.0
 44
0.0
 45
0.0
 46
0.0
 47
0.0
 48
0.0
 49
0.0
140
0.0
141
0.0
142
1.0
143
1.0
 70
  1712
 72
     0
 73
     0
 74
     0
  7

 75
     0
 76
     0
 77
     2
 78
   300
147
1.0
148
0.0
149
0.0
100
AcDbLayout
  1
Model
 70
     1
 71
     0
 10
0.0
 20
0.0
 11
12.0
 21
9.0
 12
0.0
 22
0.0
 32
0.0
 14
1.000000000000000E+20
 24
1.000000000000000E+20
 34
1.000000000000000E+20
 15
-1.000000000000000E+20
 25
-1.000000000000000E+20
 35
-1.000000000000000E+20
146
0.0
 13
0.0
 23
0.0
 33
0.0
 16
1.0
 26
0.0
 36
0.0
 17
0.0
 27
1.0
 37
0.0
 76
     0
330
1F
331
29
  0
MATERIAL
  5
3D
102
{ACAD_REACTORS
330
3B
102
}
330
3B
100
AcDbMaterial
  1
ByBlock
 72
     1
 94
      127
  0
MATERIAL
  5
3C
102
{ACAD_REACTORS
330
3B
102
}
330
3B
100
AcDbMaterial
  1
ByLayer
 72
     1
 94
      127
  0
MATERIAL
  5
3E
102
{ACAD_REACTORS
330
3B
102
}
330
3B
100
AcDbMaterial
  1
Global
 72
     1
 94
      127
  0
MLINESTYLE
  5
18
102
{ACAD_REACTORS
330
17
102
}
330
17
100
AcDbMlineStyle
  2
Standard
 70
     0
  3

 62
   256
 51
90.0
 52
90.0
 71
     2
 49
0.5
 62
   256
  6
BYLAYER
 49
-0.5
 62
   256
  6
BYLAYER
  0
ACDBPLACEHOLDER
  5
F
102
{ACAD_REACTORS
330
E
102
}
330
E
  0
VISUALSTYLE
  5
2F
102
{ACAD_REACTORS
330
2A
102
}
330
2A
100
AcDbVisualStyle
  2
2dWireframe
 70
     4
177
     2
291
     0
 71
     0
176
     1
 72
     2
176
     1
 73
     0
176
     1
 90
        0
176
     1
 40
-0.6
176
     1
 41
-30.0
176
     1
 62
     5
 63
     7
421
 16777215
176
     1
 74
     1
176
     1
 91
        4
176
     1
 64
     7
176
     1
 65
   257
176
     1
 75
     1
176
     1
175
     1
176
     1
 42
1.0
176
     1
 92
        0
176
     1
 66
   257
176
     1
 43
1.0
176
     1
 76
     1
176
     1
 77
     6
176
     1
 78
     2
176
     1
 67
     7
176
     1
 79
     5
176
     1
170
     0
176
     1
171
     0
176
     1
290
     0
176
     1
 93
        1
176
     1
 44
0.0
176
     1
173
     0
176
     1
  0
VISUALSTYLE
  5
31
102
{ACAD_REACTORS
330
2A
102
}
330
2A
100
AcDbVisualStyle
  2
3D Hidden
 70
     6
177
     2
291
     0
 71
     1
176
     1
 72
     2
176
     1
 73
     2
176
     1
 90
        0
176
     1
 40
-0.6
176
     1
 41
-30.0
176
     1
 62
     5
 63
     7
421
 16777215
176
     1
 74
     2
176
     1
 91
        2
176
     1
 64
     7
176
     1
 65
   257
176
     1
 75
     2
176
     1
175
     1
176
     1
 42
40.0
176
     1
 92
        0
176
     1
 66
   257
176
     1
 43
1.0
176
     1
 76
     1
176
     1
 77
     6
176
     1
 78
     2
176
     1
 67
     7
176
     1
 79
     3
176
     1
170
     0
176
     1
171
     0
176
     1
290
     0
176
     1
 93
        1
176
     1
 44
0.0
176
     1
173
     0
176
     1
  0
VISUALSTYLE
  5
30
102
{ACAD_REACTORS
330
2A
102
}
330
2A
100
AcDbVisualStyle
  2
3dWireframe
 70
     5
177
     2
291
     0
 71
     0
176
     1
 72
     2
176
     1
 73
     0
176
     1
 90
        0
176
     1
 40
-0.6
176
     1
 41
-30.0
176
     1
 62
     5
 63
     7
421
 16777215
176
     1
 74
     1
176
     1
 91
        4
176
     1
 64
     7
176
     1
 65
   257
176
     1
 75
     1
176
     1
175
     1
176
     1
 42
1.0
176
     1
 92
        0
176
     1
 66
   257
176
     1
 43
1.0
176
     1
 76
     1
176
     1
 77
     6
176
     1
 78
     2
176
     1
 67
     7
176
     1
 79
     5
176
     1
170
     0
176
     1
171
     0
176
     1
290
     0
176
     1
 93
        1
176
     1
 44
0.0
176
     1
173
     0
176
     1
  0
VISUALSTYLE
  5
32
102
{ACAD_REACTORS
330
2A
102
}
330
2A
100
AcDbVisualStyle
  2
Basic
 70
     7
177
     2
291
     1
 71
     1
176
     1
 72
     0
176
     1
 73
     1
176
     1
 90
        0
176
     1
 40
-0.6
176
     1
 41
-30.0
176
     1
 62
     5
 63
     7
421
 16777215
176
     1
 74
     0
176
     1
 91
        4
176
     1
 64
     7
176
     1
 65
   257
176
     1
 75
     1
176
     1
175
     1
176
     1
 42
1.0
176
     1
 92
        8
176
     1
 66
     7
176
     1
 43
1.0
176
     1
 76
     1
176
     1
 77
     6
176
     1
 78
     2
176
     1
 67
     7
176
     1
 79
     5
176
     1
170
     0
176
     1
171
     0
176
     1
290
     0
176
     1
 93
        1
176
     1
 44
0.0
176
     1
173
     0
176
     1
  0
VISUALSTYLE
  5
36
102
{ACAD_REACTORS
330
2A
102
}
330
2A
100
AcDbVisualStyle
  2
Brighten
 70
    12
177
     2
291
     1
 71
     2
176
     1
 72
     2
176
     1
 73
     0
176
     1
 90
        0
176
     1
 40
-0.6
176
     1
 41
-30.0
176
     1
 62
     5
 63
     7
421
 16777215
176
     1
 74
     1
176
     1
 91
        4
176
     1
 64
     7
176
     1
 65
   257
176
     1
 75
     1
176
     1
175
     1
176
     1
 42
1.0
176
     1
 92
        8
176
     1
 66
     7
176
     1
 43
1.0
176
     1
 76
     1
176
     1
 77
     6
176
     1
 78
     2
176
     1
 67
     7
176
     1
 79
     5
176
     1
170
     0
176
     1
171
     0
176
     1
290
     0
176
     1
 93
        1
176
     1
 44
50.0
176
     1
173
     0
176
     1
  0
VISUALSTYLE
  5
3A
102
{ACAD_REACTORS
330
2A
102
}
330
2A
100
AcDbVisualStyle
  2
ColorChange
 70
    16
177
     2
291
     1
 71
     2
176
     1
 72
     2
176
     1
 73
     3
176
     1
 90
        0
176
     1
 40
-0.6
176
     1
 41
-30.0
176
     1
 62
     5
 63
     8
421
  8421504
176
     1
 74
     1
176
     1
 91
        4
176
     1
 64
     7
176
     1
 65
   257
176
     1
 75
     1
176
     1
175
     1
176
     1
 42
1.0
176
     1
 92
        8
176
     1
 66
     8
424
  8421504
176
     1
 43
1.0
176
     1
 76
     1
176
     1
 77
     6
176
     1
 78
     2
176
     1
 67
     7
176
     1
 79
     5
176
     1
170
     0
176
     1
171
     0
176
     1
290
     0
176
     1
 93
        1
176
     1
 44
0.0
176
     1
173
     0
176
     1
  0
VISUALSTYLE
  5
34
102
{ACAD_REACTORS
330
2A
102
}
330
2A
100
AcDbVisualStyle
  2
Conceptual
 70
     9
177
     2
291
     0
 71
     3
176
     1
 72
     2
176
     1
 73
     0
176
     1
 90
        0
176
     1
 40
-0.6
176
     1
 41
-30.0
176
     1
 62
     5
 63
     7
421
 16777215
176
     1
 74
     2
176
     1
 91
        2
176
     1
 64
     7
176
     1
 65
   257
176
     1
 75
     1
176
     1
175
     1
176
     1
 42
40.0
176
     1
 92
        8
176
     1
 66
     7
176
     1
 43
1.0
176
     1
 76
     1
176
     1
 77
     6
176
     1
 78
     2
176
     1
 67
     7
176
     1
 79
     3
176
     1
170
     0
176
     1
171
     0
176
     1
290
     0
176
     1
 93
        1
176
     1
 44
0.0
176
     1
173
     0
176
     1
  0
VISUALSTYLE
  5
35
102
{ACAD_REACTORS
330
2A
102
}
330
2A
100
AcDbVisualStyle
  2
Dim
 70
    11
177
     2
291
     1
 71
     2
176
     1
 72
     2
176
     1
 73
     0
176
     1
 90
        0
176
     1
 40
-0.6
176
     1
 41
-30.0
176
     1
 62
     5
 63
     7
421
 16777215
176
     1
 74
     1
176
     1
 91
        4
176
     1
 64
     7
176
     1
 65
   257
176
     1
 75
     1
176
     1
175
     1
176
     1
 42
1.0
176
     1
 92
        8
176
     1
 66
     7
176
     1
 43
1.0
176
     1
 76
     1
176
     1
 77
     6
176
     1
 78
     2
176
     1
 67
     7
176
     1
 79
     5
176
     1
170
     0
176
     1
171
     0
176
     1
290
     0
176
     1
 93
        1
176
     1
 44
-50.0
176
     1
173
     0
176
     1
  0
VISUALSTYLE
  5
39
102
{ACAD_REACTORS
330
2A
102
}
330
2A
100
AcDbVisualStyle
  2
Facepattern
 70
    15
177
     2
291
     1
 71
     2
176
     1
 72
     2
176
     1
 73
     0
176
     1
 90
        0
176
     1
 40
-0.6
176
     1
 41
-30.0
176
     1
 62
     5
 63
     7
421
 16777215
176
     1
 74
     1
176
     1
 91
        4
176
     1
 64
     7
176
     1
 65
   257
176
     1
 75
     1
176
     1
175
     1
176
     1
 42
1.0
176
     1
 92
        8
176
     1
 66
     7
176
     1
 43
1.0
176
     1
 76
     1
176
     1
 77
     6
176
     1
 78
     2
176
     1
 67
     7
176
     1
 79
     5
176
     1
170
     0
176
     1
171
     0
176
     1
290
     0
176
     1
 93
        1
176
     1
 44
0.0
176
     1
173
     0
176
     1
  0
VISUALSTYLE
  5
2B
102
{ACAD_REACTORS
330
2A
102
}
330
2A
100
AcDbVisualStyle
  2
Flat
 70
     0
177
     2
291
     1
 71
     2
176
     1
 72
     1
176
     1
 73
     1
176
     1
 90
        2
176
     1
 40
-0.6
176
     1
 41
30.0
176
     1
 62
     5
 63
     7
421
 16777215
176
     1
 74
     0
176
     1
 91
        4
176
     1
 64
     7
176
     1
 65
   257
176
     1
 75
     1
176
     1
175
     1
176
     1
 42
1.0
176
     1
 92
        8
176
     1
 66
     7
176
     1
 43
1.0
176
     1
 76
     1
176
     1
 77
     6
176
     1
 78
     2
176
     1
 67
     7
176
     1
 79
     5
176
     1
170
     0
176
     1
171
     0
176
     1
290
     0
176
     1
 93
       13
176
     1
 44
0.0
176
     1
173
     0
176
     1
  0
VISUALSTYLE
  5
2C
102
{ACAD_REACTORS
330
2A
102
}
330
2A
100
AcDbVisualStyle
  2
FlatWithEdges
 70
     1
177
     2
291
     1
 71
     2
176
     1
 72
     1
176
     1
 73
     1
176
     1
 90
        2
176
     1
 40
-0.6
176
     1
 41
30.0
176
     1
 62
     5
 63
     7
421
 16777215
176
     1
 74
     1
176
     1
 91
        4
176
     1
 64
     7
176
     1
 65
   257
176
     1
 75
     1
176
     1
175
     1
176
     1
 42
1.0
176
     1
 92
        0
176
     1
 66
   257
176
     1
 43
1.0
176
     1
 76
     1
176
     1
 77
     6
176
     1
 78
     2
176
     1
 67
     7
176
     1
 79
     5
176
     1
170
     0
176
     1
171
     0
176
     1
290
     0
176
     1
 93
       13
176
     1
 44
0.0
176
     1
173
     0
176
     1
  0
VISUALSTYLE
  5
2D
102
{ACAD_REACTORS
330
2A
102
}
330
2A
100
AcDbVisualStyle
  2
Gouraud
 70
     2
177
     2
291
     1
 71
     2
176
     1
 72
     2
176
     1
 73
     1
176
     1
 90
        2
176
     1
 40
-0.6
176
     1
 41
30.0
176
     1
 62
     5
 63
     7
421
 16777215
176
     1
 74
     0
176
     1
 91
        4
176
     1
 64
     7
176
     1
 65
   257
176
     1
 75
     1
176
     1
175
     1
176
     1
 42
1.0
176
     1
 92
        0
176
     1
 66
     7
176
     1
 43
1.0
176
     1
 76
     1
176
     1
 77
     6
176
     1
 78
     2
176
     1
 67
     7
176
     1
 79
     5
176
     1
170
     0
176
     1
171
     0
176
     1
290
     0
176
     1
 93
       13
176
     1
 44
0.0
176
     1
173
     0
176
     1
  0
VISUALSTYLE
  5
2E
102
{ACAD_REACTORS
330
2A
102
}
330
2A
100
AcDbVisualStyle
  2
GouraudWithEdges
 70
     3
177
     2
291
     1
 71
     2
176
     1
 72
     2
176
     1
 73
     1
176
     1
 90
        2
176
     1
 40
-0.6
176
     1
 41
30.0
176
     1
 62
     5
 63
     7
421
 16777215
176
     1
 74
     1
176
     1
 91
        4
176
     1
 64
     7
176
     1
 65
   257
176
     1
 75
     1
176
     1
175
     1
176
     1
 42
1.0
176
     1
 92
        0
176
     1
 66
   257
176
     1
 43
1.0
176
     1
 76
     1
176
     1
 77
     6
176
     1
 78
     2
176
     1
 67
     7
176
     1
 79
     5
176
     1
170
     0
176
     1
171
     0
176
     1
290
     0
176
     1
 93
       13
176
     1
 44
0.0
176
     1
173
     0
176
     1
  0
VISUALSTYLE
  5
38
102
{ACAD_REACTORS
330
2A
102
}
330
2A
100
AcDbVisualStyle
  2
Linepattern
 70
    14
177
     2
291
     1
 71
     2
176
     1
 72
     2
176
     1
 73
     0
176
     1
 90
        0
176
     1
 40
-0.6
176
     1
 41
-30.0
176
     1
 62
     5
 63
     7
421
 16777215
176
     1
 74
     1
176
     1
 91
        4
176
     1
 64
     7
176
     1
 65
   257
176
     1
 75
     7
176
     1
175
     7
176
     1
 42
1.0
176
     1
 92
        8
176
     1
 66
     7
176
     1
 43
1.0
176
     1
 76
     1
176
     1
 77
     6
176
     1
 78
     2
176
     1
 67
     7
176
     1
 79
     5
176
     1
170
     0
176
     1
171
     0
176
     1
290
     0
176
     1
 93
        1
176
     1
 44
0.0
176
     1
173
     0
176
     1
  0
VISUALSTYLE
  5
33
102
{ACAD_REACTORS
330
2A
102
}
330
2A
100
AcDbVisualStyle
  2
Realistic
 70
     8
177
     2
291
     0
 71
     2
176
     1
 72
     2
176
     1
 73
     0
176
     1
 90
        0
176
     1
 40
-0.6
176
     1
 41
-30.0
176
     1
 62
     5
 63
     7
421
 16777215
176
     1
 74
     1
176
     1
 91
        0
176
     1
 64
     7
176
     1
 65
   257
176
     1
 75
     1
176
     1
175
     1
176
     1
 42
1.0
176
     1
 92
        8
176
     1
 66
     8
424
  7895160
176
     1
 43
1.0
176
     1
 76
     1
176
     1
 77
     6
176
     1
 78
     2
176
     1
 67
     7
176
     1
 79
     5
176
     1
170
     0
176
     1
171
     0
176
     1
290
     0
176
     1
 93
       13
176
     1
 44
0.0
176
     1
173
     0
176
     1
  0
VISUALSTYLE
  5
37
102
{ACAD_REACTORS
330
2A
102
}
330
2A
100
AcDbVisualStyle
  2
Thicken
 70
    13
177
     2
291
     1
 71
     2
176
     1
 72
     2
176
     1
 73
     0
176
     1
 90
        0
176
     1
 40
-0.6
176
     1
 41
-30.0
176
     1
 62
     5
 63
     7
421
 16777215
176
     1
 74
     1
176
     1
 91
        4
176
     1
 64
     7
176
     1
 65
   257
176
     1
 75
     1
176
     1
175
     1
176
     1
 42
1.0
176
     1
 92
       12
176
     1
 66
     7
176
     1
 43
1.0
176
     1
 76
     1
176
     1
 77
     6
176
     1
 78
     2
176
     1
 67
     7
176
     1
 79
     5
176
     1
170
     0
176
     1
171
     0
176
     1
290
     0
176
     1
 93
        1
176
     1
 44
0.0
176
     1
173
     0
176
     1
  0
ENDSEC
  0
EOF
