<?xml version="1.0" encoding="utf-8"?>
<!-- Generator: Adobe Illustrator 19.0.0, SVG Export Plug-In . SVG Version: 6.00 Build 0)  -->
<svg version="1.1" id="Layer_1" xmlns="http://www.w3.org/2000/svg" xmlns:xlink="http://www.w3.org/1999/xlink" x="0px" y="0px"
	 viewBox="52 152.5 716.3 489.5" style="enable-background:new 52 152.5 716.3 489.5;" xml:space="preserve">
<style type="text/css">
	.st0{fill:none;stroke:#000000;stroke-width:0.1;}
	.st1{fill:none;stroke:#000000;stroke-width:0.1;stroke-miterlimit:10;}
</style>
<g transform="translate(22.5000185, 22.5000185) ">
	<polygon class="st0" points="47.5,148 74.4,148 74.4,156.5 101.4,156.5 101.4,148 118.4,148 118.4,156.5 135.4,156.5 135.4,148 
		152.4,148 152.4,156.5 169.4,156.5 169.4,148 186.4,148 186.4,156.5 203.4,156.5 203.4,148 220.4,148 220.4,156.5 247.3,156.5 
		247.3,148 274.3,148 274.3,174.9 265.8,174.9 265.8,201.8 274.3,201.8 274.3,218.8 265.8,218.8 265.8,235.8 274.3,235.8 
		274.3,252.8 265.8,252.8 265.8,269.8 274.3,269.8 274.3,286.9 265.8,286.9 265.8,303.9 274.3,303.9 274.3,320.9 265.8,320.9 
		265.8,347.8 274.3,347.8 274.3,374.7 247.3,374.7 247.3,366.2 220.4,366.2 220.4,374.7 203.4,374.7 203.4,366.2 186.4,366.2 
		186.4,374.7 169.4,374.7 169.4,366.2 152.4,366.2 152.4,374.7 135.4,374.7 135.4,366.2 118.4,366.2 118.4,374.7 101.4,374.7 
		101.4,366.2 74.4,366.2 74.4,374.7 47.5,374.7 47.5,347.8 56,347.8 56,320.9 47.5,320.9 47.5,303.9 56,303.9 56,286.9 47.5,286.9 
		47.5,269.8 56,269.8 56,252.8 47.5,252.8 47.5,235.8 56,235.8 56,218.8 47.5,218.8 47.5,201.8 56,201.8 56,174.9 47.5,174.9 	"/>
</g>
<g transform="translate(305.9648185, 22.5000185) ">
	<polygon class="st0" points="-9.2,148 17.7,148 17.7,156.5 44.7,156.5 44.7,148 61.7,148 61.7,156.5 78.7,156.5 78.7,148 95.7,148 
		95.7,156.5 112.7,156.5 112.7,148 129.7,148 129.7,156.5 146.7,156.5 146.7,148 163.7,148 163.7,156.5 190.6,156.5 190.6,148 
		217.6,148 217.6,174.9 209.1,174.9 209.1,201.8 217.6,201.8 217.6,218.8 209.1,218.8 209.1,235.8 217.6,235.8 217.6,252.8 
		209.1,252.8 209.1,269.8 217.6,269.8 217.6,286.9 209.1,286.9 209.1,303.9 217.6,303.9 217.6,320.9 209.1,320.9 209.1,347.8 
		217.6,347.8 217.6,374.7 190.6,374.7 190.6,366.2 163.7,366.2 163.7,374.7 146.7,374.7 146.7,366.2 129.7,366.2 129.7,374.7 
		112.7,374.7 112.7,366.2 95.7,366.2 95.7,374.7 78.7,374.7 78.7,366.2 61.7,366.2 61.7,374.7 44.7,374.7 44.7,366.2 17.7,366.2 
		17.7,374.7 -9.2,374.7 -9.2,347.8 -0.7,347.8 -0.7,320.9 -9.2,320.9 -9.2,303.9 -0.7,303.9 -0.7,286.9 -9.2,286.9 -9.2,269.8 
		-0.7,269.8 -0.7,252.8 -9.2,252.8 -9.2,235.8 -0.7,235.8 -0.7,218.8 -9.2,218.8 -9.2,201.8 -0.7,201.8 -0.7,174.9 -9.2,174.9 	"/>
</g>
<g transform="translate(589.4296185, 22.5000185) ">
	<polygon class="st0" points="-57.4,148 -39,148 -39,156.5 -12,156.5 -12,148 5,148 5,156.5 22,156.5 22,148 39,148 39,156.5 
		56,156.5 56,148 73,148 73,156.5 90,156.5 90,148 107,148 107,156.5 134,156.5 134,148 152.4,148 152.4,174.9 160.9,174.9 
		160.9,201.8 152.4,201.8 152.4,218.8 160.9,218.8 160.9,235.8 152.4,235.8 152.4,252.8 160.9,252.8 160.9,269.8 152.4,269.8 
		152.4,286.9 160.9,286.9 160.9,303.9 152.4,303.9 152.4,320.9 160.9,320.9 160.9,347.8 152.4,347.8 152.4,374.7 134,374.7 
		134,366.2 107,366.2 107,374.7 90,374.7 90,366.2 73,366.2 73,374.7 56,374.7 56,366.2 39,366.2 39,374.7 22,374.7 22,366.2 
		5,366.2 5,374.7 -12,374.7 -12,366.2 -39,366.2 -39,374.7 -57.4,374.7 -57.4,347.8 -65.9,347.8 -65.9,320.9 -57.4,320.9 
		-57.4,303.9 -65.9,303.9 -65.9,286.9 -57.4,286.9 -57.4,269.8 -65.9,269.8 -65.9,252.8 -57.4,252.8 -57.4,235.8 -65.9,235.8 
		-65.9,218.8 -57.4,218.8 -57.4,201.8 -65.9,201.8 -65.9,174.9 -57.4,174.9 	"/>
</g>
<g transform="translate(589.4296185, 305.9648185) ">
	<polygon class="st0" points="-57.4,91.3 -39,91.3 -39,99.8 -12,99.8 -12,91.3 5,91.3 5,99.8 22,99.8 22,91.3 39,91.3 39,99.8 
		56,99.8 56,91.3 73,91.3 73,99.8 90,99.8 90,91.3 107,91.3 107,99.8 134,99.8 134,91.3 152.4,91.3 152.4,118.2 160.9,118.2 
		160.9,145.1 152.4,145.1 152.4,162.1 160.9,162.1 160.9,179.1 152.4,179.1 152.4,196.1 160.9,196.1 160.9,213.2 152.4,213.2 
		152.4,230.2 160.9,230.2 160.9,247.2 152.4,247.2 152.4,264.2 160.9,264.2 160.9,291.1 152.4,291.1 152.4,318 134,318 134,309.5 
		107,309.5 107,318 90,318 90,309.5 73,309.5 73,318 56,318 56,309.5 39,309.5 39,318 22,318 22,309.5 5,309.5 5,318 -12,318 
		-12,309.5 -39,309.5 -39,318 -57.4,318 -57.4,291.1 -65.9,291.1 -65.9,264.2 -57.4,264.2 -57.4,247.2 -65.9,247.2 -65.9,230.2 
		-57.4,230.2 -57.4,213.2 -65.9,213.2 -65.9,196.1 -57.4,196.1 -57.4,179.1 -65.9,179.1 -65.9,162.1 -57.4,162.1 -57.4,145.1 
		-65.9,145.1 -65.9,118.2 -57.4,118.2 	"/>
</g>
<g transform="translate(22.5000185, 305.9648185) ">
	<polygon class="st0" points="56,99.8 74.4,99.8 74.4,91.3 101.4,91.3 101.4,99.8 118.4,99.8 118.4,91.3 135.4,91.3 135.4,99.8 
		152.4,99.8 152.4,91.3 169.4,91.3 169.4,99.8 186.4,99.8 186.4,91.3 203.4,91.3 203.4,99.8 220.4,99.8 220.4,91.3 247.3,91.3 
		247.3,99.8 265.8,99.8 265.8,118.2 274.3,118.2 274.3,145.1 265.8,145.1 265.8,162.1 274.3,162.1 274.3,179.1 265.8,179.1 
		265.8,196.1 274.3,196.1 274.3,213.2 265.8,213.2 265.8,230.2 274.3,230.2 274.3,247.2 265.8,247.2 265.8,264.2 274.3,264.2 
		274.3,291.1 265.8,291.1 265.8,309.5 247.3,309.5 247.3,318 220.4,318 220.4,309.5 203.4,309.5 203.4,318 186.4,318 186.4,309.5 
		169.4,309.5 169.4,318 152.4,318 152.4,309.5 135.4,309.5 135.4,318 118.4,318 118.4,309.5 101.4,309.5 101.4,318 74.4,318 
		74.4,309.5 56,309.5 56,291.1 47.5,291.1 47.5,264.2 56,264.2 56,247.2 47.5,247.2 47.5,230.2 56,230.2 56,213.2 47.5,213.2 
		47.5,196.1 56,196.1 56,179.1 47.5,179.1 47.5,162.1 56,162.1 56,145.1 47.5,145.1 47.5,118.2 56,118.2 	"/>
</g>
<g transform="translate(305.9648185, 305.9648185) ">
	<polygon class="st0" points="-0.7,99.8 17.7,99.8 17.7,91.3 44.7,91.3 44.7,99.8 61.7,99.8 61.7,91.3 78.7,91.3 78.7,99.8 
		95.7,99.8 95.7,91.3 112.7,91.3 112.7,99.8 129.7,99.8 129.7,91.3 146.7,91.3 146.7,99.8 163.7,99.8 163.7,91.3 190.6,91.3 
		190.6,99.8 209.1,99.8 209.1,118.2 217.6,118.2 217.6,145.1 209.1,145.1 209.1,162.1 217.6,162.1 217.6,179.1 209.1,179.1 
		209.1,196.1 217.6,196.1 217.6,213.2 209.1,213.2 209.1,230.2 217.6,230.2 217.6,247.2 209.1,247.2 209.1,264.2 217.6,264.2 
		217.6,291.1 209.1,291.1 209.1,309.5 190.6,309.5 190.6,318 163.7,318 163.7,309.5 146.7,309.5 146.7,318 129.7,318 129.7,309.5 
		112.7,309.5 112.7,318 95.7,318 95.7,309.5 78.7,309.5 78.7,318 61.7,318 61.7,309.5 44.7,309.5 44.7,318 17.7,318 17.7,309.5 
		-0.7,309.5 -0.7,291.1 -9.2,291.1 -9.2,264.2 -0.7,264.2 -0.7,247.2 -9.2,247.2 -9.2,230.2 -0.7,230.2 -0.7,213.2 -9.2,213.2 
		-9.2,196.1 -0.7,196.1 -0.7,179.1 -9.2,179.1 -9.2,162.1 -0.7,162.1 -0.7,145.1 -9.2,145.1 -9.2,118.2 -0.7,118.2 	"/>
</g>
<circle class="st1" cx="410.2" cy="283.8" r="42.5"/>
<circle class="st1" cx="356.9" cy="283.9" r="7.1"/>
<circle class="st1" cx="463.4" cy="283.9" r="7.1"/>
</svg>
